<svg width="18" height="19" viewBox="0 0 18 19" fill="none" xmlns="http://www.w3.org/2000/svg">
<path d="M17.4375 0.5C17.127 0.5 16.875 0.752 16.875 1.0625V5.15722L16.3125 5.34481V1.0625C16.3125 0.752 16.0605 0.5 15.75 0.5C15.4395 0.5 15.1875 0.752 15.1875 1.0625V5.34453L14.625 5.15694V1.0625C14.625 0.752 14.373 0.5 14.0625 0.5C13.752 0.5 13.5 0.752 13.5 1.0625V5.5625C13.5 5.80466 13.655 6.01953 13.8848 6.09603L15.1875 6.53028V17.9375C15.1875 18.248 15.4395 18.5 15.75 18.5C16.0605 18.5 16.3125 18.248 16.3125 17.9375V6.53028L17.6153 6.09603C17.845 6.01953 18 5.80466 18 5.5625V1.0625C18 0.752 17.748 0.5 17.4375 0.5Z" fill="black"/>
<path d="M14.0625 10.3438C14.0625 6.46672 10.9083 3.3125 7.03125 3.3125C3.15422 3.3125 0 6.46672 0 10.3438C0 14.2208 3.15422 17.375 7.03125 17.375C10.9083 17.375 14.0625 14.2208 14.0625 10.3438ZM1.125 10.3438C1.125 7.08687 3.77437 4.4375 7.03125 4.4375C10.2881 4.4375 12.9375 7.08687 12.9375 10.3438C12.9375 13.6006 10.2881 16.25 7.03125 16.25C3.77437 16.25 1.125 13.6006 1.125 10.3438Z" fill="black"/>
<path d="M11.8125 10.3438C11.8125 7.70731 9.66769 5.5625 7.03125 5.5625C4.39481 5.5625 2.25 7.70731 2.25 10.3438C2.25 12.9802 4.39481 15.125 7.03125 15.125C9.66769 15.125 11.8125 12.9802 11.8125 10.3438ZM3.375 10.3438C3.375 8.32775 5.01525 6.6875 7.03125 6.6875C9.04725 6.6875 10.6875 8.32775 10.6875 10.3438C10.6875 12.3598 9.04725 14 7.03125 14C5.01525 14 3.375 12.3598 3.375 10.3438Z" fill="black"/>
</svg>
