<svg width="148" height="60" viewBox="0 0 148 60" fill="none" xmlns="http://www.w3.org/2000/svg">
<g clip-path="url(#clip0_5554_10804)">
<path fill-rule="evenodd" clip-rule="evenodd" d="M48.3269 37.7239C48.5395 48.2974 40.439 57.2448 29.8653 57.8973C19.0113 58.5672 9.64686 49.9455 8.99028 39.3061C8.90252 37.884 8.70183 35.0435 10.5219 30.1178C11.6112 27.1699 12.2942 25.3181 12.6408 23.6425C12.8312 22.7216 13.2214 21.2531 14.7315 23.5135C15.622 24.8463 15.7758 26.8328 15.7758 26.8328C15.7758 26.8328 18.6285 24.3315 20.3775 19.7813C22.9416 13.1109 20.3371 9.37882 19.3624 6.73198C19.0251 5.81635 18.746 4.15058 20.7089 4.74553C22.709 5.35193 28.1031 8.6792 31.0424 12.3557C35.2372 17.6028 36.9323 22.7779 36.9323 22.7779C36.9323 22.7779 38.0717 21.1574 38.4098 19.5145C38.7917 17.6592 38.6875 15.8516 40.3963 17.7002C42.0216 19.4582 44.4802 22.7987 45.9474 26.0283C48.6113 31.8931 48.3269 37.7239 48.3269 37.7239Z" fill="url(#paint0_linear_5554_10804)"/>
<path fill-rule="evenodd" clip-rule="evenodd" d="M29.8655 57.8974C22.36 58.3606 15.8974 52.605 15.4307 45.0418C15.1491 40.4782 16.8031 37.5949 20.3694 33.6032C22.6529 31.0474 24.7467 27.9521 25.59 25.8804C25.756 25.4726 26.062 23.3818 27.8823 25.6954C28.8371 26.9087 30.3505 29.078 31.3504 30.9474C33.0742 34.1704 33.6351 37.3624 33.6351 37.3624C33.6351 37.3624 35.0694 36.3865 35.949 34.0473C36.2326 33.2934 36.7261 30.4752 38.7561 33.1373C40.2456 35.0908 42.3452 38.639 42.6102 43.3645C43.0769 50.9277 37.3708 57.4343 29.8655 57.8974Z" fill="#FC9502"/>
<path fill-rule="evenodd" clip-rule="evenodd" d="M29.1512 42.926C31.0852 42.8067 31.3079 46.4154 34.0618 51.0823C35.8956 54.1898 33.6539 57.6635 30.0743 57.8844C26.4948 58.1053 24.458 55.2958 24.2354 51.6887C24.0128 48.0819 27.2173 43.0454 29.1512 42.926Z" fill="#FCE202"/>
</g>
<g clip-path="url(#clip1_5554_10804)">
<path fill-rule="evenodd" clip-rule="evenodd" d="M93.5857 36.8699C93.7983 47.4434 85.6977 56.3908 75.1241 57.0433C64.2701 57.7132 54.9056 49.0915 54.2491 38.4521C54.1613 37.03 53.9606 34.1895 55.7807 29.2638C56.87 26.3159 57.553 24.4641 57.8996 22.7885C58.09 21.8676 58.4802 20.3991 59.9903 22.6595C60.8808 23.9923 61.0346 25.9788 61.0346 25.9788C61.0346 25.9788 63.8873 23.4775 65.6363 18.9273C68.2004 12.2569 65.5959 8.52482 64.6212 5.87798C64.2838 4.96234 64.0048 3.29658 65.9677 3.89153C67.9678 4.49793 73.3619 7.8252 76.3012 11.5017C80.496 16.7488 82.1911 21.9239 82.1911 21.9239C82.1911 21.9239 83.3305 20.3034 83.6686 18.6605C84.0505 16.8052 83.9463 14.9976 85.6551 16.8462C87.2804 18.6042 89.739 21.9447 91.2062 25.1743C93.8701 31.0391 93.5857 36.8699 93.5857 36.8699Z" fill="url(#paint1_linear_5554_10804)"/>
<path fill-rule="evenodd" clip-rule="evenodd" d="M75.1243 57.0434C67.6188 57.5066 61.1562 51.751 60.6895 44.1878C60.4078 39.6242 62.0619 36.7409 65.6282 32.7492C67.9117 30.1934 70.0055 27.0981 70.8488 25.0264C71.0148 24.6186 71.3208 22.5278 73.1411 24.8414C74.0959 26.0547 75.6093 28.224 76.6092 30.0933C78.333 33.3164 78.8939 36.5084 78.8939 36.5084C78.8939 36.5084 80.3282 35.5325 81.2078 33.1933C81.4914 32.4394 81.9849 29.6212 84.0149 32.2833C85.5044 34.2368 87.604 37.7849 87.869 42.5105C88.3357 50.0737 82.6296 56.5803 75.1243 57.0434Z" fill="#FC9502"/>
<path fill-rule="evenodd" clip-rule="evenodd" d="M74.41 42.072C76.3439 41.9527 76.5666 45.5614 79.3206 50.2283C81.1544 53.3358 78.9127 56.8095 75.3331 57.0304C71.7536 57.2513 69.7168 54.4418 69.4942 50.8347C69.2716 47.2279 72.4761 42.1914 74.41 42.072Z" fill="#FCE202"/>
</g>
<g clip-path="url(#clip2_5554_10804)">
<path fill-rule="evenodd" clip-rule="evenodd" d="M139.698 35.1621C139.911 45.7356 131.81 54.6831 121.236 55.3356C110.382 56.0054 101.018 47.3837 100.361 36.7443C100.274 35.3222 100.073 32.4817 101.893 27.556C102.982 24.6082 103.665 22.7564 104.012 21.0807C104.202 20.1598 104.592 18.6913 106.103 20.9517C106.993 22.2845 107.147 24.271 107.147 24.271C107.147 24.271 110 21.7697 111.749 17.2196C114.313 10.5491 111.708 6.81706 110.733 4.17021C110.396 3.25458 110.117 1.58882 112.08 2.18377C114.08 2.79017 119.474 6.11743 122.413 9.79393C126.608 15.041 128.303 20.2161 128.303 20.2161C128.303 20.2161 129.443 18.5956 129.781 16.9527C130.163 15.0975 130.059 13.2898 131.767 15.1384C133.393 16.8965 135.851 20.237 137.318 23.4665C139.982 29.3313 139.698 35.1621 139.698 35.1621Z" fill="url(#paint2_linear_5554_10804)"/>
<path fill-rule="evenodd" clip-rule="evenodd" d="M121.237 55.3357C113.731 55.7988 107.269 50.0433 106.802 42.48C106.52 37.9164 108.174 35.0331 111.741 31.0415C114.024 28.4856 116.118 25.3903 116.961 23.3186C117.127 22.9108 117.433 20.82 119.253 23.1336C120.208 24.347 121.722 26.5162 122.722 28.3856C124.445 31.6086 125.006 34.8006 125.006 34.8006C125.006 34.8006 126.44 33.8247 127.32 31.4855C127.604 30.7317 128.097 27.9134 130.127 30.5755C131.617 32.5291 133.716 36.0772 133.981 40.8027C134.448 48.366 128.742 54.8725 121.237 55.3357Z" fill="#FC9502"/>
<path fill-rule="evenodd" clip-rule="evenodd" d="M120.522 40.3642C122.456 40.2449 122.679 43.8537 125.433 48.5206C127.267 51.6281 125.025 55.1017 121.445 55.3226C117.866 55.5435 115.829 52.734 115.606 49.127C115.384 45.5201 118.588 40.4836 120.522 40.3642Z" fill="#FCE202"/>
</g>
<defs>
<linearGradient id="paint0_linear_5554_10804" x1="29.8972" y1="57.9351" x2="26.5843" y2="4.25099" gradientUnits="userSpaceOnUse">
<stop stop-color="#FF4C0D"/>
<stop offset="1" stop-color="#FC9502"/>
</linearGradient>
<linearGradient id="paint1_linear_5554_10804" x1="75.156" y1="57.0811" x2="71.8431" y2="3.39698" gradientUnits="userSpaceOnUse">
<stop stop-color="#FF4C0D"/>
<stop offset="1" stop-color="#FC9502"/>
</linearGradient>
<linearGradient id="paint2_linear_5554_10804" x1="121.268" y1="55.3734" x2="117.955" y2="1.68922" gradientUnits="userSpaceOnUse">
<stop stop-color="#FF4C0D"/>
<stop offset="1" stop-color="#FC9502"/>
</linearGradient>
<clipPath id="clip0_5554_10804">
<rect width="53.4151" height="53.826" fill="white" transform="translate(0 5.85181) rotate(-3.53133)"/>
</clipPath>
<clipPath id="clip1_5554_10804">
<rect width="53.4151" height="53.826" fill="white" transform="translate(45.2588 4.9978) rotate(-3.53133)"/>
</clipPath>
<clipPath id="clip2_5554_10804">
<rect width="53.4151" height="53.826" fill="white" transform="translate(91.3711 3.29004) rotate(-3.53133)"/>
</clipPath>
</defs>
</svg>
