<svg width="105" height="61" viewBox="0 0 105 61" fill="none" xmlns="http://www.w3.org/2000/svg">
<g clip-path="url(#clip0_5554_10803)">
<path fill-rule="evenodd" clip-rule="evenodd" d="M49.3889 35.9351C49.6062 46.7411 41.3276 55.8852 30.5215 56.552C19.4289 57.2366 9.85862 48.4254 9.18761 37.5521C9.09792 36.0988 8.89282 33.1958 10.7529 28.1618C11.8662 25.1492 12.5642 23.2566 12.9184 21.5442C13.1129 20.603 13.5117 19.1022 15.055 21.4123C15.9651 22.7744 16.1223 24.8046 16.1223 24.8046C16.1223 24.8046 19.0377 22.2483 20.8252 17.5981C23.4456 10.781 20.7838 6.96696 19.7877 4.26193C19.443 3.32617 19.1578 1.62379 21.1638 2.23182C23.2079 2.85155 28.7206 6.25196 31.7245 10.0093C36.0115 15.3717 37.7438 20.6606 37.7438 20.6606C37.7438 20.6606 38.9084 19.0045 39.2539 17.3254C39.6441 15.4294 39.5376 13.582 41.2841 15.4713C42.945 17.2679 45.4577 20.6819 46.9571 23.9824C49.6796 29.9761 49.3889 35.9351 49.3889 35.9351Z" fill="url(#paint0_linear_5554_10803)"/>
<path fill-rule="evenodd" clip-rule="evenodd" d="M30.5215 56.552C22.851 57.0253 16.2464 51.1432 15.7694 43.4137C15.4816 38.7498 17.1719 35.8031 20.8167 31.7237C23.1504 29.1117 25.2902 25.9484 26.152 23.8311C26.3216 23.4143 26.6344 21.2776 28.4947 23.642C29.4705 24.882 31.0171 27.099 32.0391 29.0094C33.8008 32.3033 34.374 35.5655 34.374 35.5655C34.374 35.5655 35.8398 34.5681 36.7387 32.1776C37.0286 31.4071 37.5329 28.5269 39.6075 31.2475C41.1298 33.244 43.2756 36.8701 43.5463 41.6995C44.0233 49.4291 38.1918 56.0786 30.5215 56.552Z" fill="#FC9502"/>
<path fill-rule="evenodd" clip-rule="evenodd" d="M29.7917 41.2517C31.7682 41.1297 31.9958 44.8178 34.8103 49.5873C36.6844 52.7631 34.3933 56.3131 30.7351 56.5389C27.0769 56.7646 24.9953 53.8934 24.7678 50.207C24.5403 46.5208 27.8153 41.3736 29.7917 41.2517Z" fill="#FCE202"/>
</g>
<g clip-path="url(#clip1_5554_10803)">
<path fill-rule="evenodd" clip-rule="evenodd" d="M96.5149 37.6805C96.7322 48.4864 88.4536 57.6305 77.6475 58.2974C66.5549 58.9819 56.9846 50.1708 56.3136 39.2975C56.2239 37.8441 56.0188 34.9411 57.8789 29.9072C58.9921 26.8945 59.6902 25.002 60.0443 23.2896C60.2389 22.3484 60.6377 20.8476 62.181 23.1577C63.0911 24.5198 63.2483 26.55 63.2483 26.55C63.2483 26.55 66.1637 23.9937 67.9512 19.3435C70.5716 12.5264 67.9098 8.71232 66.9137 6.00729C66.569 5.07153 66.2837 3.36915 68.2898 3.97718C70.3339 4.59691 75.8466 7.99732 78.8504 11.7546C83.1375 17.1171 84.8698 22.4059 84.8698 22.4059C84.8698 22.4059 86.0343 20.7498 86.3799 19.0708C86.7701 17.1748 86.6636 15.3273 88.41 17.2166C90.071 19.0133 92.5837 22.4272 94.0831 25.7278C96.8056 31.7215 96.5149 37.6805 96.5149 37.6805Z" fill="url(#paint1_linear_5554_10803)"/>
<path fill-rule="evenodd" clip-rule="evenodd" d="M77.6475 58.2973C69.977 58.7707 63.3723 52.8886 62.8953 45.1591C62.6075 40.4952 64.2979 37.5485 67.9427 33.4691C70.2763 30.857 72.4162 27.6937 73.278 25.5765C73.4476 25.1597 73.7604 23.0229 75.6207 25.3874C76.5965 26.6274 78.1431 28.8444 79.1651 30.7548C80.9268 34.0487 81.5 37.3108 81.5 37.3108C81.5 37.3108 82.9658 36.3135 83.8647 33.9229C84.1545 33.1525 84.6589 30.2723 86.7335 32.9929C88.2558 34.9894 90.4015 38.6155 90.6723 43.4449C91.1493 51.1744 85.3178 57.824 77.6475 58.2973Z" fill="#FC9502"/>
<path fill-rule="evenodd" clip-rule="evenodd" d="M76.9177 42.997C78.8941 42.875 79.1217 46.5631 81.9362 51.3326C83.8103 54.5084 81.5193 58.0585 77.8611 58.2842C74.2029 58.51 72.1213 55.6387 71.8938 51.9524C71.6663 48.2662 74.9413 43.119 76.9177 42.997Z" fill="#FCE202"/>
</g>
<defs>
<linearGradient id="paint0_linear_5554_10803" x1="30.5541" y1="56.5907" x2="27.1684" y2="1.7264" gradientUnits="userSpaceOnUse">
<stop stop-color="#FF4C0D"/>
<stop offset="1" stop-color="#FC9502"/>
</linearGradient>
<linearGradient id="paint1_linear_5554_10803" x1="77.6801" y1="58.336" x2="74.2944" y2="3.47176" gradientUnits="userSpaceOnUse">
<stop stop-color="#FF4C0D"/>
<stop offset="1" stop-color="#FC9502"/>
</linearGradient>
<clipPath id="clip0_5554_10803">
<rect width="54.5893" height="55.0092" fill="white" transform="translate(0 3.3623) rotate(-3.53133)"/>
</clipPath>
<clipPath id="clip1_5554_10803">
<rect width="54.5893" height="55.0092" fill="white" transform="translate(47.126 5.10767) rotate(-3.53133)"/>
</clipPath>
</defs>
</svg>
