<svg width="122" height="121" viewBox="0 0 122 121" fill="none" xmlns="http://www.w3.org/2000/svg">
<path d="M50.3248 108.396C48.5457 108.396 46.7665 108.396 44.9873 108.144C33.2957 106.883 23.6373 101.337 18.2998 92.5145C5.33734 71.5916 18.554 59.7437 31.2623 48.652C34.5665 45.627 38.1248 42.602 41.1748 39.3249C42.1915 38.3166 43.2082 37.0562 44.2248 36.0479C57.9498 20.9229 73.1998 3.78119 94.5498 18.402C103.191 24.452 108.275 33.527 109.546 44.8708C111.071 60.4999 104.462 78.3979 92.5165 90.7499C80.8248 101.842 65.3207 108.396 50.3248 108.396Z" fill="#8D6E63"/>
<path d="M50.3249 108.396C48.5457 108.396 46.7666 108.396 44.9874 108.144C33.2957 106.883 23.6374 101.337 18.2999 92.5145C14.7416 86.7166 13.2166 81.927 12.9624 77.3895C37.6166 99.5728 98.3624 82.9353 109.292 44.6187C110.817 60.2478 104.208 78.1457 92.2624 90.4978C80.8249 101.842 65.3207 108.396 50.3249 108.396Z" fill="#795548"/>
<path d="M53.375 97.052C53.375 98.0549 53.7767 99.0166 54.4917 99.7258C55.2066 100.435 56.1764 100.833 57.1875 100.833C58.1986 100.833 59.1684 100.435 59.8833 99.7258C60.5983 99.0166 61 98.0549 61 97.052C61 96.0492 60.5983 95.0874 59.8833 94.3783C59.1684 93.6691 58.1986 93.2708 57.1875 93.2708C56.1764 93.2708 55.2066 93.6691 54.4917 94.3783C53.7767 95.0874 53.375 96.0492 53.375 97.052Z" fill="#3E2723"/>
<path d="M86.4168 32.7708C87.9418 32.7708 88.9585 33.7791 88.9585 35.2916C88.9585 36.8041 87.9418 37.8124 86.4168 37.8124C84.8918 37.8124 83.8752 36.8041 83.8752 35.2916C83.8752 33.7791 84.8918 32.7708 86.4168 32.7708ZM86.4168 60.4999C86.4168 62.0124 87.4335 63.0207 88.9585 63.0207C90.4835 63.0207 91.5002 62.0124 91.5002 60.4999C91.5002 58.9874 90.4835 57.9791 88.9585 57.9791C87.4335 57.9791 86.4168 58.9874 86.4168 60.4999ZM66.0835 42.8541C66.0835 44.3666 67.1002 45.3749 68.6252 45.3749C70.1502 45.3749 71.1668 44.3666 71.1668 42.8541C71.1668 41.3416 70.1502 40.3333 68.6252 40.3333C67.1002 40.3333 66.0835 41.3416 66.0835 42.8541ZM35.5835 80.6666C35.5835 82.1791 36.6002 83.1874 38.1252 83.1874C39.6502 83.1874 40.6668 82.1791 40.6668 80.6666C40.6668 79.1541 39.6502 78.1457 38.1252 78.1457C36.6002 78.1457 35.5835 79.1541 35.5835 80.6666ZM50.8335 71.8437C50.8335 73.8603 52.6127 75.6249 54.646 75.6249C56.6793 75.6249 58.4585 73.8603 58.4585 71.8437C58.4585 69.827 56.6793 68.0624 54.646 68.0624C52.6127 68.0624 50.8335 69.827 50.8335 71.8437Z" fill="#5D4037"/>
</svg>
