<svg width="25" height="25" viewBox="0 0 25 25" fill="none" xmlns="http://www.w3.org/2000/svg">
<path d="M19.7913 23.3543H5.20801C3.05176 23.3543 1.30176 21.6043 1.30176 19.448V10.6563C1.30176 9.3855 1.92676 8.18758 2.96842 7.45841L10.2601 2.35425C11.6038 1.41675 13.4059 1.41675 14.7393 2.35425L22.0309 7.45841C23.0726 8.18758 23.6976 9.3855 23.6976 10.6563V19.448C23.6976 21.6043 21.9476 23.3543 19.7913 23.3543ZM12.4997 3.20841C12.0309 3.20841 11.5622 3.35425 11.1559 3.6355L3.86426 8.73967C3.23926 9.17717 2.86426 9.89591 2.86426 10.6563V19.448C2.86426 20.7397 3.91634 21.7918 5.20801 21.7918H19.7913C21.083 21.7918 22.1351 20.7397 22.1351 19.448V10.6563C22.1351 9.89591 21.7601 9.17717 21.1351 8.73967L13.8434 3.6355C13.4372 3.35425 12.9684 3.21883 12.4997 3.21883V3.20841Z" fill="black"/>
<path d="M16.6663 23.3542H8.33301C7.90592 23.3542 7.55176 23.0001 7.55176 22.573V17.3647C7.55176 14.6355 9.77051 12.4167 12.4997 12.4167C15.2288 12.4167 17.4476 14.6355 17.4476 17.3647V22.573C17.4476 23.0001 17.0934 23.3542 16.6663 23.3542ZM9.11426 21.7917H15.8851V17.3647C15.8851 15.5001 14.3643 13.9792 12.4997 13.9792C10.6351 13.9792 9.11426 15.5001 9.11426 17.3647V21.7917Z" fill="black"/>
</svg>
