<svg width="25" height="25" viewBox="0 0 25 25" fill="none" xmlns="http://www.w3.org/2000/svg">
<path d="M24.9737 8.80037C24.7443 6.12628 22.9517 3.84308 20.6157 3.24884C19.7231 3.02136 18.7971 3.03714 17.9398 3.26555C16.7751 1.30176 14.7732 0 12.5 0C10.2268 0 8.22489 1.30084 7.06025 3.26462C6.20288 3.03621 5.27602 3.0195 4.38516 3.24791C2.04834 3.84308 0.256577 6.12628 0.0263275 8.79944C-0.244111 11.9424 1.59621 14.792 4.29055 15.5617L4.99302 22.6026C5.12866 23.9694 6.16604 25 7.40604 25H17.594C18.834 25 19.8713 23.9694 20.007 22.6026L20.7094 15.5617C23.4038 14.7929 25.2441 11.9424 24.9737 8.80037ZM18.5091 22.4206C18.4572 22.9387 18.0637 23.3296 17.594 23.3296H7.40604C6.93549 23.3296 6.54198 22.9387 6.4909 22.4206L6.33517 20.8617H18.6648L18.5091 22.4206ZM19.9082 14.0399C19.5708 14.0966 19.3095 14.3974 19.2719 14.7744L18.8314 19.1894H15.9881L16.4142 14.9601C16.4603 14.5014 16.1622 14.0891 15.7495 14.0371C15.3333 13.9861 14.9633 14.3175 14.9164 14.7753L14.4718 19.1894H10.5291L10.0845 14.7753C10.0384 14.3175 9.67421 13.987 9.25139 14.0371C8.83777 14.0891 8.53971 14.5014 8.58659 14.9601L9.01276 19.1894H6.16855L5.72815 14.7744C5.69047 14.3974 5.42924 14.0966 5.09182 14.0399C2.87975 13.6695 1.31405 11.4373 1.52672 8.95729C1.69585 6.99072 3.00953 5.31198 4.72175 4.87558C5.271 4.73631 5.83364 4.72423 6.36866 4.8143C6.12753 5.56732 5.98938 6.37419 5.98938 7.2182C5.98938 7.67967 6.3268 8.05385 6.74292 8.05385C7.15904 8.05385 7.49647 7.67967 7.49647 7.2182C7.49647 4.15877 9.74119 1.67038 12.4992 1.67038C15.2571 1.67038 17.5019 4.15877 17.5019 7.2182C17.5019 7.67967 17.8393 8.05385 18.2554 8.05385C18.6715 8.05385 19.009 7.67967 19.009 7.2182C19.009 6.37419 18.8708 5.56732 18.6297 4.8143C19.1647 4.72423 19.7273 4.73631 20.2774 4.87558C21.9896 5.31198 23.3033 6.98979 23.4724 8.95729C23.6859 11.4373 22.1203 13.6695 19.9082 14.0399Z" fill="black"/>
</svg>
