<svg width="36" height="32" viewBox="0 0 36 32" fill="none" xmlns="http://www.w3.org/2000/svg">
<path d="M33.3734 3.22217C31.5978 1.20743 29.1345 0.0979004 26.4375 0.0979004C22.6443 0.0979004 20.2428 2.36337 18.8961 4.26392C18.5467 4.75709 18.2495 5.2516 18 5.71692C17.7505 5.2516 17.4533 4.75709 17.1039 4.26392C15.7572 2.36337 13.3557 0.0979004 9.5625 0.0979004C6.86545 0.0979004 4.4022 1.2075 2.62652 3.22224C0.932836 5.14416 0 7.71816 0 10.47C0 13.4656 1.16951 16.2517 3.68051 19.238C5.92467 21.9071 9.15321 24.6583 12.8918 27.8441C14.2849 29.0312 15.7255 30.2589 17.2593 31.6008L17.3053 31.6411C17.5042 31.8152 17.7521 31.9022 18 31.9022C18.2479 31.9022 18.4958 31.8152 18.6947 31.6411L18.7407 31.6008C20.2745 30.2589 21.7151 29.0313 23.1084 27.8439C26.8468 24.6583 30.0753 21.9072 32.3195 19.238C34.8305 16.2516 36 13.4656 36 10.47C36 7.71816 35.0672 5.14416 33.3734 3.22217ZM21.7401 26.2385C20.5392 27.2619 19.3032 28.3151 18 29.448C16.6968 28.3152 15.4608 27.2619 14.2597 26.2384C6.94301 20.0036 2.10938 15.8846 2.10938 10.47C2.10938 8.232 2.85504 6.15328 4.20905 4.61689C5.57859 3.06305 7.47977 2.20728 9.5625 2.20728C12.4544 2.20728 14.3238 3.98885 15.3827 5.48342C16.3325 6.82385 16.8282 8.17512 16.9972 8.69382C17.1386 9.128 17.5434 9.42183 18 9.42183C18.4566 9.42183 18.8614 9.128 19.0028 8.69382C19.1718 8.17512 19.6675 6.82385 20.6173 5.48335C21.6762 3.98885 23.5456 2.20728 26.4375 2.20728C28.5202 2.20728 30.4214 3.06305 31.7909 4.61689C33.145 6.15328 33.8906 8.232 33.8906 10.47C33.8906 15.8846 29.057 20.0036 21.7401 26.2385Z" fill="#BD4379"/>
</svg>
