<svg width="56" height="22" viewBox="0 0 56 22" fill="none" xmlns="http://www.w3.org/2000/svg">
<path d="M8.09766 21.4805C6.57422 21.4805 5.24609 21.2103 4.11328 20.6699C2.98047 20.1296 2.10156 19.3743 1.47656 18.4043C0.851562 17.4277 0.539062 16.2852 0.539062 14.9766C0.539062 14.2865 0.594401 13.6777 0.705078 13.1504C0.822266 12.6165 0.96224 12.1348 1.125 11.7051C1.29427 11.2754 1.46354 10.8652 1.63281 10.4746C1.80208 10.084 1.94206 9.6901 2.05273 9.29297C2.16341 8.89583 2.21875 8.45964 2.21875 7.98438C2.21875 7.76302 2.20573 7.52539 2.17969 7.27148C2.16016 7.01107 2.15039 6.81901 2.15039 6.69531C2.15039 6.52604 2.19596 6.38932 2.28711 6.28516C2.38477 6.17448 2.51497 6.11914 2.67773 6.11914C2.99023 6.11914 3.32227 6.2168 3.67383 6.41211C4.02539 6.60742 4.34766 6.88086 4.64062 7.23242C4.9401 7.58398 5.16797 7.99089 5.32422 8.45312L4.89453 8.55078C5.0638 8.28385 5.17773 8.02995 5.23633 7.78906C5.30143 7.54818 5.33398 7.30078 5.33398 7.04688C5.33398 6.42839 5.2168 5.83268 4.98242 5.25977C4.75456 4.68034 4.46159 4.1237 4.10352 3.58984C3.74544 3.05599 3.37109 2.55794 2.98047 2.0957C2.88281 1.97852 2.8112 1.86784 2.76562 1.76367C2.72005 1.65951 2.69727 1.55534 2.69727 1.45117C2.69727 1.19076 2.80794 0.992188 3.0293 0.855469C3.25716 0.71875 3.56966 0.650391 3.9668 0.650391C4.83268 0.650391 5.74089 0.754557 6.69141 0.962891C7.64844 1.16471 8.5957 1.48047 9.5332 1.91016C10.4707 2.33984 11.3561 2.88346 12.1895 3.54102C13.0293 4.19857 13.7715 4.97982 14.416 5.88477C15.0671 6.78971 15.5781 7.82487 15.9492 8.99023C16.3203 10.1491 16.5059 11.4479 16.5059 12.8867C16.5059 14.1758 16.3073 15.3477 15.9102 16.4023C15.513 17.457 14.9401 18.362 14.1914 19.1172C13.4492 19.8724 12.5638 20.4551 11.5352 20.8652C10.5065 21.2754 9.36068 21.4805 8.09766 21.4805ZM8.16602 20.4062C9.59831 20.4062 10.8548 20.0872 11.9355 19.4492C13.0228 18.8177 13.8659 17.9355 14.4648 16.8027C15.0703 15.6699 15.373 14.3548 15.373 12.8574C15.373 11.5618 15.1842 10.3477 14.8066 9.21484C14.429 8.08203 13.8887 7.05664 13.1855 6.13867C12.4889 5.2207 11.6523 4.43294 10.6758 3.77539C9.69922 3.11133 8.60872 2.60026 7.4043 2.24219C6.20638 1.88411 4.91732 1.70182 3.53711 1.69531L3.73242 1.44141C4.28581 2.02083 4.7513 2.61654 5.12891 3.22852C5.51302 3.84049 5.80599 4.47201 6.00781 5.12305C6.20964 5.77409 6.31055 6.44466 6.31055 7.13477C6.31055 7.45378 6.27474 7.7793 6.20312 8.11133C6.13151 8.44336 6.03711 8.7526 5.91992 9.03906C5.80924 9.32552 5.67904 9.55664 5.5293 9.73242C5.38607 9.9082 5.23633 9.99609 5.08008 9.99609C5.00846 9.99609 4.94987 9.97656 4.9043 9.9375C4.86523 9.89193 4.83594 9.83008 4.81641 9.75195C4.69922 9.32227 4.54297 8.94792 4.34766 8.62891C4.15885 8.3099 3.94401 8.03971 3.70312 7.81836C3.46875 7.59049 3.22461 7.41797 2.9707 7.30078L3.16602 6.97852C3.21159 7.16081 3.2474 7.34635 3.27344 7.53516C3.29948 7.71745 3.3125 7.89974 3.3125 8.08203C3.3125 8.63542 3.25716 9.12695 3.14648 9.55664C3.03581 9.97982 2.89583 10.3835 2.72656 10.7676C2.55729 11.1452 2.38477 11.5358 2.20898 11.9395C2.03971 12.3366 1.89648 12.7793 1.7793 13.2676C1.66862 13.7559 1.61328 14.3255 1.61328 14.9766C1.61328 16.0573 1.88672 17.0046 2.43359 17.8184C2.98698 18.6322 3.75195 19.2669 4.72852 19.7227C5.71159 20.1784 6.85742 20.4062 8.16602 20.4062ZM8.27344 18.7363C7.40104 18.7363 6.69792 18.4954 6.16406 18.0137C5.63021 17.5254 5.36328 16.8874 5.36328 16.0996C5.36328 15.6829 5.42188 15.3281 5.53906 15.0352C5.66276 14.7357 5.80599 14.4655 5.96875 14.2246C6.13151 13.9837 6.28125 13.7526 6.41797 13.5312C6.5612 13.3034 6.65234 13.056 6.69141 12.7891C6.69792 12.7435 6.71419 12.7174 6.74023 12.7109C6.76628 12.6979 6.79557 12.7044 6.82812 12.7305C7.04948 12.9258 7.23503 13.1439 7.38477 13.3848C7.54102 13.6191 7.68099 13.8698 7.80469 14.1367C8.05859 13.7982 8.23763 13.3034 8.3418 12.6523C8.44596 12.0013 8.44922 11.2819 8.35156 10.4941C8.34505 10.4486 8.35156 10.416 8.37109 10.3965C8.39714 10.377 8.43294 10.377 8.47852 10.3965C9.16211 10.722 9.73503 11.1484 10.1973 11.6758C10.6595 12.1966 11.0078 12.7663 11.2422 13.3848C11.4766 14.0033 11.5938 14.6185 11.5938 15.2305C11.5938 15.849 11.4733 16.4251 11.2324 16.959C10.9915 17.4928 10.6237 17.9225 10.1289 18.248C9.64062 18.5736 9.02214 18.7363 8.27344 18.7363ZM27.5703 21.4805C26.0469 21.4805 24.7188 21.2103 23.5859 20.6699C22.4531 20.1296 21.5742 19.3743 20.9492 18.4043C20.3242 17.4277 20.0117 16.2852 20.0117 14.9766C20.0117 14.2865 20.0671 13.6777 20.1777 13.1504C20.2949 12.6165 20.4349 12.1348 20.5977 11.7051C20.7669 11.2754 20.9362 10.8652 21.1055 10.4746C21.2747 10.084 21.4147 9.6901 21.5254 9.29297C21.6361 8.89583 21.6914 8.45964 21.6914 7.98438C21.6914 7.76302 21.6784 7.52539 21.6523 7.27148C21.6328 7.01107 21.623 6.81901 21.623 6.69531C21.623 6.52604 21.6686 6.38932 21.7598 6.28516C21.8574 6.17448 21.9876 6.11914 22.1504 6.11914C22.4629 6.11914 22.7949 6.2168 23.1465 6.41211C23.498 6.60742 23.8203 6.88086 24.1133 7.23242C24.4128 7.58398 24.6406 7.99089 24.7969 8.45312L24.3672 8.55078C24.5365 8.28385 24.6504 8.02995 24.709 7.78906C24.7741 7.54818 24.8066 7.30078 24.8066 7.04688C24.8066 6.42839 24.6895 5.83268 24.4551 5.25977C24.2272 4.68034 23.9342 4.1237 23.5762 3.58984C23.2181 3.05599 22.8438 2.55794 22.4531 2.0957C22.3555 1.97852 22.2839 1.86784 22.2383 1.76367C22.1927 1.65951 22.1699 1.55534 22.1699 1.45117C22.1699 1.19076 22.2806 0.992188 22.502 0.855469C22.7298 0.71875 23.0423 0.650391 23.4395 0.650391C24.3053 0.650391 25.2135 0.754557 26.1641 0.962891C27.1211 1.16471 28.0684 1.48047 29.0059 1.91016C29.9434 2.33984 30.8288 2.88346 31.6621 3.54102C32.502 4.19857 33.2441 4.97982 33.8887 5.88477C34.5397 6.78971 35.0508 7.82487 35.4219 8.99023C35.793 10.1491 35.9785 11.4479 35.9785 12.8867C35.9785 14.1758 35.7799 15.3477 35.3828 16.4023C34.9857 17.457 34.4128 18.362 33.6641 19.1172C32.9219 19.8724 32.0365 20.4551 31.0078 20.8652C29.9792 21.2754 28.8333 21.4805 27.5703 21.4805ZM27.6387 20.4062C29.071 20.4062 30.3275 20.0872 31.4082 19.4492C32.4954 18.8177 33.3385 17.9355 33.9375 16.8027C34.543 15.6699 34.8457 14.3548 34.8457 12.8574C34.8457 11.5618 34.6569 10.3477 34.2793 9.21484C33.9017 8.08203 33.3613 7.05664 32.6582 6.13867C31.9616 5.2207 31.125 4.43294 30.1484 3.77539C29.1719 3.11133 28.0814 2.60026 26.877 2.24219C25.679 1.88411 24.39 1.70182 23.0098 1.69531L23.2051 1.44141C23.7585 2.02083 24.224 2.61654 24.6016 3.22852C24.9857 3.84049 25.2786 4.47201 25.4805 5.12305C25.6823 5.77409 25.7832 6.44466 25.7832 7.13477C25.7832 7.45378 25.7474 7.7793 25.6758 8.11133C25.6042 8.44336 25.5098 8.7526 25.3926 9.03906C25.2819 9.32552 25.1517 9.55664 25.002 9.73242C24.8587 9.9082 24.709 9.99609 24.5527 9.99609C24.4811 9.99609 24.4225 9.97656 24.377 9.9375C24.3379 9.89193 24.3086 9.83008 24.2891 9.75195C24.1719 9.32227 24.0156 8.94792 23.8203 8.62891C23.6315 8.3099 23.4167 8.03971 23.1758 7.81836C22.9414 7.59049 22.6973 7.41797 22.4434 7.30078L22.6387 6.97852C22.6842 7.16081 22.7201 7.34635 22.7461 7.53516C22.7721 7.71745 22.7852 7.89974 22.7852 8.08203C22.7852 8.63542 22.7298 9.12695 22.6191 9.55664C22.5085 9.97982 22.3685 10.3835 22.1992 10.7676C22.0299 11.1452 21.8574 11.5358 21.6816 11.9395C21.5124 12.3366 21.3691 12.7793 21.252 13.2676C21.1413 13.7559 21.0859 14.3255 21.0859 14.9766C21.0859 16.0573 21.3594 17.0046 21.9062 17.8184C22.4596 18.6322 23.2246 19.2669 24.2012 19.7227C25.1842 20.1784 26.3301 20.4062 27.6387 20.4062ZM27.7461 18.7363C26.8737 18.7363 26.1706 18.4954 25.6367 18.0137C25.1029 17.5254 24.8359 16.8874 24.8359 16.0996C24.8359 15.6829 24.8945 15.3281 25.0117 15.0352C25.1354 14.7357 25.2786 14.4655 25.4414 14.2246C25.6042 13.9837 25.7539 13.7526 25.8906 13.5312C26.0339 13.3034 26.125 13.056 26.1641 12.7891C26.1706 12.7435 26.1868 12.7174 26.2129 12.7109C26.2389 12.6979 26.2682 12.7044 26.3008 12.7305C26.5221 12.9258 26.7077 13.1439 26.8574 13.3848C27.0137 13.6191 27.1536 13.8698 27.2773 14.1367C27.5312 13.7982 27.7103 13.3034 27.8145 12.6523C27.9186 12.0013 27.9219 11.2819 27.8242 10.4941C27.8177 10.4486 27.8242 10.416 27.8438 10.3965C27.8698 10.377 27.9056 10.377 27.9512 10.3965C28.6348 10.722 29.2077 11.1484 29.6699 11.6758C30.1322 12.1966 30.4805 12.7663 30.7148 13.3848C30.9492 14.0033 31.0664 14.6185 31.0664 15.2305C31.0664 15.849 30.946 16.4251 30.7051 16.959C30.4642 17.4928 30.0964 17.9225 29.6016 18.248C29.1133 18.5736 28.4948 18.7363 27.7461 18.7363ZM47.043 21.4805C45.5195 21.4805 44.1914 21.2103 43.0586 20.6699C41.9258 20.1296 41.0469 19.3743 40.4219 18.4043C39.7969 17.4277 39.4844 16.2852 39.4844 14.9766C39.4844 14.2865 39.5397 13.6777 39.6504 13.1504C39.7676 12.6165 39.9076 12.1348 40.0703 11.7051C40.2396 11.2754 40.4089 10.8652 40.5781 10.4746C40.7474 10.084 40.8874 9.6901 40.998 9.29297C41.1087 8.89583 41.1641 8.45964 41.1641 7.98438C41.1641 7.76302 41.151 7.52539 41.125 7.27148C41.1055 7.01107 41.0957 6.81901 41.0957 6.69531C41.0957 6.52604 41.1413 6.38932 41.2324 6.28516C41.3301 6.17448 41.4603 6.11914 41.623 6.11914C41.9355 6.11914 42.2676 6.2168 42.6191 6.41211C42.9707 6.60742 43.293 6.88086 43.5859 7.23242C43.8854 7.58398 44.1133 7.99089 44.2695 8.45312L43.8398 8.55078C44.0091 8.28385 44.123 8.02995 44.1816 7.78906C44.2467 7.54818 44.2793 7.30078 44.2793 7.04688C44.2793 6.42839 44.1621 5.83268 43.9277 5.25977C43.6999 4.68034 43.4069 4.1237 43.0488 3.58984C42.6908 3.05599 42.3164 2.55794 41.9258 2.0957C41.8281 1.97852 41.7565 1.86784 41.7109 1.76367C41.6654 1.65951 41.6426 1.55534 41.6426 1.45117C41.6426 1.19076 41.7533 0.992188 41.9746 0.855469C42.2025 0.71875 42.515 0.650391 42.9121 0.650391C43.778 0.650391 44.6862 0.754557 45.6367 0.962891C46.5938 1.16471 47.541 1.48047 48.4785 1.91016C49.416 2.33984 50.3014 2.88346 51.1348 3.54102C51.9746 4.19857 52.7168 4.97982 53.3613 5.88477C54.0124 6.78971 54.5234 7.82487 54.8945 8.99023C55.2656 10.1491 55.4512 11.4479 55.4512 12.8867C55.4512 14.1758 55.2526 15.3477 54.8555 16.4023C54.4583 17.457 53.8854 18.362 53.1367 19.1172C52.3945 19.8724 51.5091 20.4551 50.4805 20.8652C49.4518 21.2754 48.306 21.4805 47.043 21.4805ZM47.1113 20.4062C48.5436 20.4062 49.8001 20.0872 50.8809 19.4492C51.9681 18.8177 52.8112 17.9355 53.4102 16.8027C54.0156 15.6699 54.3184 14.3548 54.3184 12.8574C54.3184 11.5618 54.1296 10.3477 53.752 9.21484C53.3743 8.08203 52.834 7.05664 52.1309 6.13867C51.4342 5.2207 50.5977 4.43294 49.6211 3.77539C48.6445 3.11133 47.554 2.60026 46.3496 2.24219C45.1517 1.88411 43.8626 1.70182 42.4824 1.69531L42.6777 1.44141C43.2311 2.02083 43.6966 2.61654 44.0742 3.22852C44.4583 3.84049 44.7513 4.47201 44.9531 5.12305C45.1549 5.77409 45.2559 6.44466 45.2559 7.13477C45.2559 7.45378 45.2201 7.7793 45.1484 8.11133C45.0768 8.44336 44.9824 8.7526 44.8652 9.03906C44.7546 9.32552 44.6243 9.55664 44.4746 9.73242C44.3314 9.9082 44.1816 9.99609 44.0254 9.99609C43.9538 9.99609 43.8952 9.97656 43.8496 9.9375C43.8105 9.89193 43.7812 9.83008 43.7617 9.75195C43.6445 9.32227 43.4883 8.94792 43.293 8.62891C43.1042 8.3099 42.8893 8.03971 42.6484 7.81836C42.4141 7.59049 42.1699 7.41797 41.916 7.30078L42.1113 6.97852C42.1569 7.16081 42.1927 7.34635 42.2188 7.53516C42.2448 7.71745 42.2578 7.89974 42.2578 8.08203C42.2578 8.63542 42.2025 9.12695 42.0918 9.55664C41.9811 9.97982 41.8411 10.3835 41.6719 10.7676C41.5026 11.1452 41.3301 11.5358 41.1543 11.9395C40.985 12.3366 40.8418 12.7793 40.7246 13.2676C40.6139 13.7559 40.5586 14.3255 40.5586 14.9766C40.5586 16.0573 40.832 17.0046 41.3789 17.8184C41.9323 18.6322 42.6973 19.2669 43.6738 19.7227C44.6569 20.1784 45.8027 20.4062 47.1113 20.4062ZM47.2188 18.7363C46.3464 18.7363 45.6432 18.4954 45.1094 18.0137C44.5755 17.5254 44.3086 16.8874 44.3086 16.0996C44.3086 15.6829 44.3672 15.3281 44.4844 15.0352C44.6081 14.7357 44.7513 14.4655 44.9141 14.2246C45.0768 13.9837 45.2266 13.7526 45.3633 13.5312C45.5065 13.3034 45.5977 13.056 45.6367 12.7891C45.6432 12.7435 45.6595 12.7174 45.6855 12.7109C45.7116 12.6979 45.7409 12.7044 45.7734 12.7305C45.9948 12.9258 46.1803 13.1439 46.3301 13.3848C46.4863 13.6191 46.6263 13.8698 46.75 14.1367C47.0039 13.7982 47.1829 13.3034 47.2871 12.6523C47.3913 12.0013 47.3945 11.2819 47.2969 10.4941C47.2904 10.4486 47.2969 10.416 47.3164 10.3965C47.3424 10.377 47.3783 10.377 47.4238 10.3965C48.1074 10.722 48.6803 11.1484 49.1426 11.6758C49.6048 12.1966 49.9531 12.7663 50.1875 13.3848C50.4219 14.0033 50.5391 14.6185 50.5391 15.2305C50.5391 15.849 50.4186 16.4251 50.1777 16.959C49.9368 17.4928 49.569 17.9225 49.0742 18.248C48.5859 18.5736 47.9674 18.7363 47.2188 18.7363Z" fill="black"/>
</svg>
