<svg width="122" height="122" viewBox="0 0 122 122" fill="none" xmlns="http://www.w3.org/2000/svg">
<path d="M76.2498 114.375H45.7498C45.7498 114.375 33.0415 83.8749 33.0415 57.1874C33.0415 48.2916 35.5832 43.2083 47.0207 43.2083H74.979C86.4165 43.2083 88.9582 48.2916 88.9582 57.1874C88.9582 83.8749 76.2498 114.375 76.2498 114.375Z" fill="#90CAF9"/>
<path d="M55.9165 38.125H66.0832V71.1667H55.9165V38.125Z" fill="#42A5F5"/>
<path d="M73.7033 106.75C76.6567 98.4971 81.7909 82.4058 83.3794 66.3908C77.3836 70.2541 67.5779 68.3707 61.4245 66.162C57.7975 64.8607 54.6636 62.8807 50.8308 61.8793C48.8559 61.3633 46.9294 60.4128 44.896 59.968C42.7941 59.5079 40.4227 59.7214 38.1987 60.1561C38.8341 78.1078 44.9596 97.4321 48.2993 106.747H73.7033V106.75Z" fill="#EEEEEE"/>
<path d="M66.0832 38.125H55.9165V7.625L66.0832 17.7917V38.125Z" fill="#3F51B5"/>
<path d="M83.875 39.3958C83.875 40.407 83.4733 41.3767 82.7583 42.0917C82.0434 42.8067 81.0736 43.2083 80.0625 43.2083H41.9375C40.9264 43.2083 39.9566 42.8067 39.2417 42.0917C38.5267 41.3767 38.125 40.407 38.125 39.3958V34.3125C38.125 33.3014 38.5267 32.3316 39.2417 31.6167C39.9566 30.9017 40.9264 30.5 41.9375 30.5H80.0625C81.0736 30.5 82.0434 30.9017 82.7583 31.6167C83.4733 32.3316 83.875 33.3014 83.875 34.3125V39.3958Z" fill="#1976D2"/>
<path d="M45.75 81.3334C45.75 82.0075 46.0178 82.654 46.4944 83.1306C46.9711 83.6073 47.6176 83.8751 48.2917 83.8751C48.9658 83.8751 49.6122 83.6073 50.0889 83.1306C50.5656 82.654 50.8333 82.0075 50.8333 81.3334C50.8333 80.6593 50.5656 80.0128 50.0889 79.5362C49.6122 79.0595 48.9658 78.7917 48.2917 78.7917C47.6176 78.7917 46.9711 79.0595 46.4944 79.5362C46.0178 80.0128 45.75 80.6593 45.75 81.3334Z" fill="#90A4AE"/>
<path d="M50.8335 73.7084C50.8335 74.3825 51.1013 75.029 51.5779 75.5056C52.0546 75.9823 52.7011 76.2501 53.3752 76.2501C54.0493 76.2501 54.6957 75.9823 55.1724 75.5056C55.649 75.029 55.9168 74.3825 55.9168 73.7084C55.9168 73.0343 55.649 72.3878 55.1724 71.9112C54.6957 71.4345 54.0493 71.1667 53.3752 71.1667C52.7011 71.1667 52.0546 71.4345 51.5779 71.9112C51.1013 72.3878 50.8335 73.0343 50.8335 73.7084Z" fill="#90A4AE"/>
<path d="M55.9165 81.3334C55.9165 82.0075 56.1843 82.654 56.6609 83.1306C57.1376 83.6073 57.7841 83.8751 58.4582 83.8751C59.1323 83.8751 59.7787 83.6073 60.2554 83.1306C60.7321 82.654 60.9998 82.0075 60.9998 81.3334C60.9998 80.6593 60.7321 80.0128 60.2554 79.5362C59.7787 79.0595 59.1323 78.7917 58.4582 78.7917C57.7841 78.7917 57.1376 79.0595 56.6609 79.5362C56.1843 80.0128 55.9165 80.6593 55.9165 81.3334Z" fill="#90A4AE"/>
</svg>
