<svg width="80" height="80" viewBox="0 0 80 80" fill="none" xmlns="http://www.w3.org/2000/svg">
<path d="M2.49324 63.7439C3.43601 71.5687 8.30828 77.502 15.1952 77.502C48.9353 77.502 66.7638 60.1612 66.7638 60.1612C67.5462 59.3208 77.5529 49.4108 77.5529 38.1655C77.5529 28.2471 70.4117 19.1691 63.8984 13.1979C58.6075 8.35136 53.1504 2.44751 45.6493 2.44751C32.3293 2.44751 24.6209 7.90062 21.5657 17.6421C27.0659 51.3401 0.660511 48.5767 2.49324 63.7439Z" fill="#F44336"/>
<path d="M40.6363 41.9293C40.5049 41.6761 40.4232 41.3965 40.3963 41.1079C40.3695 40.8193 40.3981 40.5278 40.4803 40.2516C40.5626 39.9754 40.6967 39.7203 40.8744 39.5023C41.0521 39.2843 41.2695 39.108 41.5131 38.9843C41.7568 38.8606 42.0215 38.7923 42.2907 38.7835C42.56 38.7747 42.828 38.8256 43.0782 38.9331C43.3284 39.0406 43.5553 39.2024 43.745 39.4084C43.9346 39.6144 44.0829 39.8602 44.1805 40.1305C45.2915 43.1467 45.8313 46.1249 45.7335 49.297C45.6416 52.4163 44.5326 55.6726 42.426 57.8652C41.3522 58.9815 40.2275 59.7082 39.2065 60.576C38.1601 61.429 37.1293 62.3073 36.1318 63.2257C35.1266 64.1335 34.1674 65.0988 33.2585 66.1176C32.4018 67.156 31.4277 68.2112 31.0991 69.595C31.2752 68.1564 32.1416 66.9516 32.8908 65.7869C33.6868 64.6305 34.5631 63.5395 35.4687 62.4843C36.3765 61.4295 37.3125 60.4033 38.2755 59.407C39.23 58.3876 40.2862 57.4693 41.0041 56.4814C42.4945 54.4447 43.0285 51.8771 42.8192 49.3286C42.6255 46.8031 41.7864 44.1514 40.6794 42.0135L40.6363 41.9293ZM55.6346 33.7254C55.6053 33.4474 55.6271 33.1659 55.6989 32.897C55.7706 32.6281 55.8908 32.3771 56.0527 32.1582C56.2145 31.9394 56.4148 31.757 56.642 31.6215C56.8693 31.486 57.1192 31.4 57.3773 31.3685C57.8987 31.3048 58.4222 31.4667 58.8326 31.8187C59.0359 31.9929 59.2052 32.2086 59.3311 32.4534C59.4569 32.6981 59.5368 32.9672 59.566 33.2451L59.568 33.2788C59.7303 34.8185 59.7108 36.1707 59.6208 37.5946C59.5285 38.9965 59.3097 40.3855 58.9675 41.7418C58.2908 44.4315 56.9235 46.999 54.8972 48.5324C56.4659 46.4704 57.0292 43.9028 57.0311 41.4385C57.0311 40.1958 56.9099 38.9636 56.6888 37.7525C56.4844 36.5717 56.1766 35.4145 55.7695 34.2962C55.7024 34.1128 55.657 33.921 55.6346 33.7254ZM51.8655 21.5322C52.2215 21.2722 52.6262 21.0994 53.051 21.0259C53.4757 20.9524 53.9103 20.9801 54.3241 21.107C54.7378 21.2339 55.1208 21.457 55.4459 21.7604C55.7709 22.0639 56.0303 22.4403 56.2057 22.8634C56.8727 24.4641 56.2077 26.3408 54.7211 27.0591C52.1765 28.2849 49.755 29.1148 47.0264 29.5803C45.6749 29.7909 44.2646 29.892 42.7898 29.6856C41.2756 29.4937 39.8342 28.8795 38.608 27.9037C37.3621 26.9137 36.4858 25.5089 35.987 24.1482C35.4785 22.777 35.2379 21.4353 34.9973 20.1484C34.7646 18.8573 34.5318 17.623 34.1132 16.4267C33.679 15.2872 33.2018 13.9708 32.0751 13.4294C33.3289 13.6969 34.1426 14.9565 34.833 16.0328C35.5254 17.1617 36.0516 18.4234 36.5406 19.6219C37.4833 22.0398 38.6119 24.2472 40.3117 24.9381C42.0329 25.7068 43.938 25.5004 45.9996 24.7443C47.9985 24.0197 50.0992 22.8297 51.8126 21.5638L51.8655 21.5322Z" fill="#FF8A80"/>
<path d="M58.604 22.1389C58.4791 24.6781 58.6017 27.2245 58.9698 29.7362C59.3453 32.2553 59.9947 34.7259 61.1682 36.7964C61.7824 37.8727 62.4318 38.5867 63.4978 39.5998C64.4953 40.6214 65.3853 41.7735 66.019 43.1257C66.6586 44.459 66.9305 46.0302 66.7114 47.4709C66.506 48.92 65.884 50.1796 65.2073 51.338C65.6708 50.0616 66.0327 48.722 65.9799 47.4246C65.9301 46.1578 65.5051 44.9415 64.7672 43.9535C64.0611 42.9698 63.1281 42.1442 62.1384 41.4639C61.1585 40.8594 59.7776 39.8757 58.8563 38.7447C56.916 36.4573 55.6642 33.7212 54.7195 30.9684C53.7766 28.181 53.113 25.293 52.7401 22.3538L58.604 22.1389ZM42.9955 52.8082C43.0337 52.5422 43.1642 52.3019 43.3607 52.1356C43.5572 51.9694 43.805 51.8897 44.054 51.9127C44.303 51.9358 44.5346 52.0597 44.7019 52.2596C44.8692 52.4594 44.9598 52.7203 44.9554 52.9893L44.9534 53.0146C44.8087 54.8491 44.8243 56.7911 45.0766 58.6509C45.2057 59.584 45.4091 60.5108 45.7514 61.3743C46.0957 62.2295 46.6003 63.0572 47.3983 63.5396C46.5299 63.2257 45.8355 62.4591 45.3211 61.6271C44.8172 60.7783 44.4156 59.8638 44.126 58.9058C43.5393 56.9914 43.1606 55.0102 42.9975 53.002C42.9938 52.9374 42.9932 52.8728 42.9955 52.8082Z" fill="#FF8A80"/>
<path d="M51.8813 19.3522C56.511 1.42372 36.9984 2.20514 32.842 2.99499C41.7064 -0.000112457 50.3791 -3.04155 64.8062 14.0718C78.6191 27.6319 81.557 36.9921 79.1453 44.0987C80.978 31.7244 62.8933 11.2663 57.5066 24.0892C48.2158 46.2049 14.992 61.5764 12.7642 63.055C10.3799 64.6347 7.96623 61.608 9.83025 59.8956C11.9349 57.9663 45.5244 43.9681 51.8813 19.3522Z" fill="#FBE9E7"/>
<path d="M0.0543916 67.0212L0.134586 67.017C0.830905 74.5448 6.08263 80 13.7421 80C51.9653 80 68.5088 61.4754 68.5088 61.4754C69.3459 60.5782 80 50.0237 80 38.0433C80 27.4783 72.3894 17.8105 65.4516 11.4517C59.8165 6.28719 54.0015 0 46.0134 0C37.3055 0 29.2548 3.91133 23.4593 9.93945L23.4632 9.98789C18.7611 14.9397 19.3499 20.6203 19.876 25.6353C20.3767 30.4039 20.8501 34.9092 17.566 39.5303C15.1054 42.9951 12.3378 45.5163 9.66398 47.9511C4.39661 52.7534 -0.577381 57.2882 0.0543916 67.0212ZM3.96043 65.2941C3.96043 64.6643 3.9839 64.1125 4.0328 63.5859C4.07778 63.1499 4.1482 62.7308 4.22839 62.3222C4.43181 61.3807 4.77215 60.4012 5.30612 59.1185C6.75353 56.1677 9.21802 53.8782 12.193 51.1653C14.8962 48.7031 17.9553 45.9102 20.674 42.0873C24.9165 36.1203 24.3043 30.2965 23.7644 25.1593C23.2618 20.3465 22.8686 16.5384 26.1683 13.0357C31.4351 7.37716 38.5736 4.20339 46.0134 4.21252C51.7169 4.21252 56.2919 8.48402 61.1329 13.0062C61.7314 13.5622 62.3221 14.1162 62.9148 14.6596C67.834 19.167 76.0842 28.1986 76.0842 38.0433C76.0842 46.7653 68.9978 55.0956 65.9504 58.2739L65.8409 58.3919C64.9333 59.2428 48.1278 76.2635 13.7363 75.7896C8.19702 75.8401 3.96043 71.2759 3.96043 65.2941Z" fill="#FFCCBC"/>
</svg>
