<svg width="25" height="25" viewBox="0 0 25 25" fill="none" xmlns="http://www.w3.org/2000/svg">
<path d="M12.333 0.5C5.72555 0.5 0.333008 5.89292 0.333008 12.5C0.333008 19.1075 5.72593 24.5 12.333 24.5C18.9405 24.5 24.333 19.107 24.333 12.5C24.333 5.89255 18.9401 0.5 12.333 0.5ZM12.333 23.0938C6.49159 23.0938 1.73926 18.3414 1.73926 12.5C1.73926 6.65858 6.49159 1.90625 12.333 1.90625C18.1744 1.90625 22.9268 6.65858 22.9268 12.5C22.9268 18.3414 18.1744 23.0938 12.333 23.0938Z" fill="black"/>
<path d="M6.36719 19.1694C6.75551 19.1694 7.07031 18.8546 7.07031 18.4663C7.07031 18.078 6.75551 17.7632 6.36719 17.7632C5.97886 17.7632 5.66406 18.078 5.66406 18.4663C5.66406 18.8546 5.97886 19.1694 6.36719 19.1694Z" fill="black"/>
<path d="M18.2988 7.23682C18.6872 7.23682 19.002 6.92202 19.002 6.53369C19.002 6.14537 18.6872 5.83057 18.2988 5.83057C17.9105 5.83057 17.5957 6.14537 17.5957 6.53369C17.5957 6.92202 17.9105 7.23682 18.2988 7.23682Z" fill="black"/>
<path d="M5.87001 6.03651C5.59541 6.31111 5.59541 6.75628 5.87001 7.03087C6.1446 7.30546 6.58977 7.30546 6.86437 7.03087C7.13896 6.75628 7.13896 6.31111 6.86437 6.03651C6.58982 5.76192 6.1446 5.76192 5.87001 6.03651Z" fill="black"/>
<path d="M17.8016 17.9691C17.5271 18.2437 17.5271 18.6889 17.8016 18.9635C18.0762 19.2381 18.5214 19.2381 18.796 18.9635C19.0706 18.6889 19.0706 18.2437 18.796 17.9691C18.5214 17.6945 18.0762 17.6945 17.8016 17.9691Z" fill="black"/>
<path d="M12.333 6.17188C12.7213 6.17188 13.0361 5.85706 13.0361 5.46875V4.0625C13.0361 3.67419 12.7213 3.35938 12.333 3.35938C11.9447 3.35938 11.6299 3.67419 11.6299 4.0625V5.46875C11.6299 5.85706 11.9447 6.17188 12.333 6.17188Z" fill="black"/>
<path d="M12.333 18.8281C11.9447 18.8281 11.6299 19.1429 11.6299 19.5312V20.9375C11.6299 21.3258 11.9447 21.6406 12.333 21.6406C12.7213 21.6406 13.0361 21.3258 13.0361 20.9375V19.5312C13.0361 19.1429 12.7213 18.8281 12.333 18.8281Z" fill="black"/>
<path d="M6.00488 12.5C6.00488 12.1117 5.69007 11.7969 5.30176 11.7969H3.89551C3.5072 11.7969 3.19238 12.1117 3.19238 12.5C3.19238 12.8883 3.5072 13.2031 3.89551 13.2031H5.30176C5.69007 13.2031 6.00488 12.8883 6.00488 12.5Z" fill="black"/>
<path d="M18.6611 12.5C18.6611 12.8883 18.9759 13.2031 19.3643 13.2031H20.7705C21.1588 13.2031 21.4736 12.8883 21.4736 12.5C21.4736 12.1117 21.1588 11.7969 20.7705 11.7969H19.3643C18.9759 11.7969 18.6611 12.1117 18.6611 12.5Z" fill="black"/>
<path d="M13.0361 12.2088V8.28125C13.0361 7.89294 12.7213 7.57812 12.333 7.57812C11.9447 7.57812 11.6299 7.89294 11.6299 8.28125V12.5C11.6299 12.6865 11.704 12.8653 11.8359 12.9972L16.0546 17.216C16.3291 17.4905 16.7744 17.4905 17.049 17.216C17.3236 16.9414 17.3236 16.4962 17.049 16.2216L13.0361 12.2088Z" fill="black"/>
</svg>
