<svg width="16" height="22" viewBox="0 0 16 22" fill="none" xmlns="http://www.w3.org/2000/svg">
<path d="M7.57031 21.4805C6.04688 21.4805 4.71875 21.2103 3.58594 20.6699C2.45312 20.1296 1.57422 19.3743 0.949219 18.4043C0.324219 17.4277 0.0117188 16.2852 0.0117188 14.9766C0.0117188 14.2865 0.0670573 13.6777 0.177734 13.1504C0.294922 12.6165 0.434896 12.1348 0.597656 11.7051C0.766927 11.2754 0.936198 10.8652 1.10547 10.4746C1.27474 10.084 1.41471 9.6901 1.52539 9.29297C1.63607 8.89583 1.69141 8.45964 1.69141 7.98438C1.69141 7.76302 1.67839 7.52539 1.65234 7.27148C1.63281 7.01107 1.62305 6.81901 1.62305 6.69531C1.62305 6.52604 1.66862 6.38932 1.75977 6.28516C1.85742 6.17448 1.98763 6.11914 2.15039 6.11914C2.46289 6.11914 2.79492 6.2168 3.14648 6.41211C3.49805 6.60742 3.82031 6.88086 4.11328 7.23242C4.41276 7.58398 4.64062 7.99089 4.79688 8.45312L4.36719 8.55078C4.53646 8.28385 4.65039 8.02995 4.70898 7.78906C4.77409 7.54818 4.80664 7.30078 4.80664 7.04688C4.80664 6.42839 4.68945 5.83268 4.45508 5.25977C4.22721 4.68034 3.93424 4.1237 3.57617 3.58984C3.2181 3.05599 2.84375 2.55794 2.45312 2.0957C2.35547 1.97852 2.28385 1.86784 2.23828 1.76367C2.19271 1.65951 2.16992 1.55534 2.16992 1.45117C2.16992 1.19076 2.2806 0.992188 2.50195 0.855469C2.72982 0.71875 3.04232 0.650391 3.43945 0.650391C4.30534 0.650391 5.21354 0.754557 6.16406 0.962891C7.12109 1.16471 8.06836 1.48047 9.00586 1.91016C9.94336 2.33984 10.8288 2.88346 11.6621 3.54102C12.502 4.19857 13.2441 4.97982 13.8887 5.88477C14.5397 6.78971 15.0508 7.82487 15.4219 8.99023C15.793 10.1491 15.9785 11.4479 15.9785 12.8867C15.9785 14.1758 15.7799 15.3477 15.3828 16.4023C14.9857 17.457 14.4128 18.362 13.6641 19.1172C12.9219 19.8724 12.0365 20.4551 11.0078 20.8652C9.97917 21.2754 8.83333 21.4805 7.57031 21.4805ZM7.63867 20.4062C9.07096 20.4062 10.3275 20.0872 11.4082 19.4492C12.4954 18.8177 13.3385 17.9355 13.9375 16.8027C14.543 15.6699 14.8457 14.3548 14.8457 12.8574C14.8457 11.5618 14.6569 10.3477 14.2793 9.21484C13.9017 8.08203 13.3613 7.05664 12.6582 6.13867C11.9616 5.2207 11.125 4.43294 10.1484 3.77539C9.17188 3.11133 8.08138 2.60026 6.87695 2.24219C5.67904 1.88411 4.38997 1.70182 3.00977 1.69531L3.20508 1.44141C3.75846 2.02083 4.22396 2.61654 4.60156 3.22852C4.98568 3.84049 5.27865 4.47201 5.48047 5.12305C5.68229 5.77409 5.7832 6.44466 5.7832 7.13477C5.7832 7.45378 5.7474 7.7793 5.67578 8.11133C5.60417 8.44336 5.50977 8.7526 5.39258 9.03906C5.2819 9.32552 5.15169 9.55664 5.00195 9.73242C4.85872 9.9082 4.70898 9.99609 4.55273 9.99609C4.48112 9.99609 4.42253 9.97656 4.37695 9.9375C4.33789 9.89193 4.30859 9.83008 4.28906 9.75195C4.17188 9.32227 4.01562 8.94792 3.82031 8.62891C3.63151 8.3099 3.41667 8.03971 3.17578 7.81836C2.94141 7.59049 2.69727 7.41797 2.44336 7.30078L2.63867 6.97852C2.68424 7.16081 2.72005 7.34635 2.74609 7.53516C2.77214 7.71745 2.78516 7.89974 2.78516 8.08203C2.78516 8.63542 2.72982 9.12695 2.61914 9.55664C2.50846 9.97982 2.36849 10.3835 2.19922 10.7676C2.02995 11.1452 1.85742 11.5358 1.68164 11.9395C1.51237 12.3366 1.36914 12.7793 1.25195 13.2676C1.14128 13.7559 1.08594 14.3255 1.08594 14.9766C1.08594 16.0573 1.35938 17.0046 1.90625 17.8184C2.45964 18.6322 3.22461 19.2669 4.20117 19.7227C5.18424 20.1784 6.33008 20.4062 7.63867 20.4062ZM7.74609 18.7363C6.8737 18.7363 6.17057 18.4954 5.63672 18.0137C5.10286 17.5254 4.83594 16.8874 4.83594 16.0996C4.83594 15.6829 4.89453 15.3281 5.01172 15.0352C5.13542 14.7357 5.27865 14.4655 5.44141 14.2246C5.60417 13.9837 5.75391 13.7526 5.89062 13.5312C6.03385 13.3034 6.125 13.056 6.16406 12.7891C6.17057 12.7435 6.18685 12.7174 6.21289 12.7109C6.23893 12.6979 6.26823 12.7044 6.30078 12.7305C6.52214 12.9258 6.70768 13.1439 6.85742 13.3848C7.01367 13.6191 7.15365 13.8698 7.27734 14.1367C7.53125 13.7982 7.71029 13.3034 7.81445 12.6523C7.91862 12.0013 7.92188 11.2819 7.82422 10.4941C7.81771 10.4486 7.82422 10.416 7.84375 10.3965C7.86979 10.377 7.9056 10.377 7.95117 10.3965C8.63477 10.722 9.20768 11.1484 9.66992 11.6758C10.1322 12.1966 10.4805 12.7663 10.7148 13.3848C10.9492 14.0033 11.0664 14.6185 11.0664 15.2305C11.0664 15.849 10.946 16.4251 10.7051 16.959C10.4642 17.4928 10.0964 17.9225 9.60156 18.248C9.11328 18.5736 8.49479 18.7363 7.74609 18.7363Z" fill="black"/>
</svg>
