<svg width="97" height="65" viewBox="0 0 97 65" fill="none" xmlns="http://www.w3.org/2000/svg">
<path d="M35.0057 63.9131C0.447957 59.5553 1.02942 29.8414 1.02942 20.8528H96.9997C96.9997 25.4788 97.2453 58.968 59.9524 64.1596C54.1885 64.962 41.7237 64.7614 35.0057 63.9131Z" fill="#292F33"/>
<path d="M92.4498 11.782C99.4133 -1.69001 68.9343 -0.916588 61.3018 1.19099C57.2234 0.78327 53.1209 0.578292 49.0148 0.577085C22.5129 0.577085 1.02962 8.37899 1.02962 20.9858C1.02962 23.4245 1.85101 25.7689 3.33855 27.9732C-8.87508 41.7788 15.3236 44.3746 29.2618 41.7739C35.291 43.0718 41.9638 43.8138 49.0148 43.8138C75.5167 43.8138 96.9999 33.5926 96.9999 20.9882C96.9999 17.532 95.3374 14.4528 92.4498 11.782Z" fill="#66757F"/>
<path d="M49.0151 40.1886C72.3988 40.1886 91.355 32.6138 91.355 23.2699C91.355 13.926 72.3988 6.35132 49.0151 6.35132C25.6315 6.35132 6.67529 13.926 6.67529 23.2699C6.67529 32.6138 25.6315 40.1886 49.0151 40.1886Z" fill="#FFCC4D"/>
<path d="M9.4973 18.4357C7.96742 13.1934 15.1426 3.93404 29.2559 6.35098C32.0785 3.93404 37.2666 1.51709 46.1918 1.51709C51.8371 1.51709 62.0326 5.80717 57.4825 13.6018C54.6598 18.4357 43.3692 25.6865 29.2559 20.8527C26.4332 23.2696 12.32 28.1035 9.4973 18.4357Z" fill="#77B255"/>
<path d="M32.0788 20.8529C31.376 20.9399 30.7493 21.0293 30.165 21.1211C43.8493 25.3411 54.7221 18.3296 57.4827 13.602C60.5255 8.39108 56.9718 4.756 52.5967 2.91187C53.7088 7.31554 49.4127 18.7332 32.0788 20.8529Z" fill="#5C913B"/>
<path d="M12.3207 18.436C13.8026 15.2626 26.434 11.1852 40.5473 25.6868C43.37 28.1038 53.492 29.5201 57.4832 32.9377C60.3059 35.3546 57.4832 37.7716 46.1926 37.7716C34.902 37.7716 6.67544 30.5207 12.3207 18.436Z" fill="#D99E82"/>
<path d="M15.2583 28.1472C22.4504 34.2935 38.3759 37.7715 46.1918 37.7715C57.4824 37.7715 60.3051 35.3546 57.4824 32.9376C56.5622 32.1497 55.309 31.4705 53.9033 30.859C44.8595 35.0476 20.9347 30.511 15.2583 28.1472Z" fill="#B27962"/>
<path d="M74.4188 25.689C73.8289 25.689 73.2248 25.6069 72.6321 25.4377L64.1641 23.0207C62.7436 22.6153 61.5694 21.7433 60.8998 20.5965C60.2301 19.4497 60.1199 18.1222 60.5934 16.9059C61.0669 15.6895 62.0853 14.6841 63.4246 14.1107C64.7638 13.5373 66.3143 13.443 67.7348 13.8484L76.2027 16.2654C77.4777 16.6261 78.5608 17.3643 79.2575 18.3472C79.9542 19.3302 80.2189 20.4936 80.004 21.6286C79.7892 22.7636 79.1089 23.7959 78.0852 24.5401C77.0616 25.2842 75.7616 25.6916 74.4188 25.689ZM71.5961 32.9375H65.9508C65.2022 32.9375 64.4843 32.6828 63.9549 32.2296C63.4256 31.7763 63.1282 31.1615 63.1282 30.5205C63.1282 29.8795 63.4256 29.2647 63.9549 28.8115C64.4843 28.3582 65.2022 28.1036 65.9508 28.1036H71.5961C72.3448 28.1036 73.0627 28.3582 73.5921 28.8115C74.1214 29.2647 74.4188 29.8795 74.4188 30.5205C74.4188 31.1615 74.1214 31.7763 73.5921 32.2296C73.0627 32.6828 72.3448 32.9375 71.5961 32.9375Z" fill="#FFE8B6"/>
</svg>
