<svg width="47" height="59" viewBox="0 0 47 59" fill="none" xmlns="http://www.w3.org/2000/svg">
<path fill-rule="evenodd" clip-rule="evenodd" d="M43.2702 37.1494C42.8274 47.4683 34.1185 55.7023 23.4356 55.7023C12.4694 55.7023 3.5796 46.7353 3.5796 36.3254C3.5796 34.934 3.55404 32.1532 5.69194 27.4616C6.97138 24.6538 7.77386 22.8899 8.22674 21.2775C8.47558 20.3913 8.95951 18.9834 10.3391 21.2775C11.1525 22.6301 11.184 24.5757 11.184 24.5757C11.184 24.5757 14.2106 22.3092 16.2536 17.9793C19.2487 11.6317 16.859 7.83739 16.0424 5.19884C15.7598 4.28607 15.5823 2.64564 17.521 3.34361C19.4965 4.05499 24.719 7.62259 27.449 11.3829C31.3452 16.7497 32.7298 21.8959 32.7298 21.8959C32.7298 21.8959 33.9774 20.3849 34.4197 18.8038C34.9193 17.0185 34.9267 15.2503 36.5318 17.155C38.0584 18.9663 40.3256 22.3702 41.6017 25.6063C43.9187 31.4831 43.2702 37.1494 43.2702 37.1494Z" fill="url(#paint0_linear_5085_1136)"/>
<path fill-rule="evenodd" clip-rule="evenodd" d="M25.0537 55.6542C17.4851 56.1213 10.9801 50.5125 10.5243 43.1265C10.2493 38.6698 11.9227 35.8505 15.5264 31.9449C17.8339 29.4442 19.9511 26.4169 20.8054 24.3919C20.9736 23.9932 21.2862 21.9506 23.1171 24.2067C24.0775 25.3899 25.5991 27.5056 26.6037 29.3294C28.3355 32.4739 28.8948 35.5904 28.8948 35.5904C28.8948 35.5904 30.3429 34.6345 31.2344 32.3481C31.5218 31.6113 32.0249 28.8578 34.0665 31.4538C35.5646 33.3589 37.6746 36.8202 37.9326 41.4351C38.3884 48.8211 32.6222 55.1871 25.0537 55.6542Z" fill="#FC9502"/>
<path fill-rule="evenodd" clip-rule="evenodd" d="M24.363 41.0333C26.3132 40.913 26.5307 44.4372 29.2984 48.9899C31.1413 52.0214 28.8741 55.4184 25.2645 55.6412C21.6548 55.864 19.6066 53.1239 19.3892 49.6014C19.1719 46.079 22.4128 41.1537 24.363 41.0333Z" fill="#FCE202"/>
<defs>
<linearGradient id="paint0_linear_5085_1136" x1="23.4653" y1="55.741" x2="23.4653" y2="3.21499" gradientUnits="userSpaceOnUse">
<stop stop-color="#FF4C0D"/>
<stop offset="1" stop-color="#FC9502"/>
</linearGradient>
</defs>
</svg>
