<svg width="19" height="16" viewBox="0 0 19 16" fill="none" xmlns="http://www.w3.org/2000/svg">
<path d="M16.7894 1.57175C15.8961 0.558179 14.6569 0 13.3001 0C11.3918 0 10.1837 1.1397 9.5062 2.09583C9.33044 2.34393 9.18092 2.5927 9.05538 2.8268C8.92984 2.5927 8.78036 2.34393 8.60456 2.09583C7.9271 1.1397 6.71895 0 4.81067 0C3.45385 0 2.21464 0.558215 1.32134 1.57178C0.469288 2.53865 0 3.83357 0 5.21799C0 6.72496 0.588352 8.1266 1.85158 9.62895C2.98056 10.9717 4.60477 12.3557 6.48556 13.9584C7.1864 14.5557 7.91115 15.1733 8.68273 15.8484L8.7059 15.8687C8.80593 15.9563 8.93066 16 9.05538 16C9.1801 16 9.30483 15.9562 9.40486 15.8687L9.42803 15.8484C10.1996 15.1733 10.9244 14.5557 11.6253 13.9584C13.506 12.3558 15.1302 10.9717 16.2592 9.62895C17.5224 8.12657 18.1108 6.72496 18.1108 5.21799C18.1108 3.83357 17.6415 2.53865 16.7894 1.57175ZM10.937 13.1507C10.3328 13.6656 9.71101 14.1954 9.05538 14.7654C8.39978 14.1955 7.77797 13.6656 7.1737 13.1507C3.49287 10.0141 1.06118 7.94192 1.06118 5.21799C1.06118 4.09208 1.4363 3.04632 2.11747 2.2734C2.80646 1.4917 3.7629 1.06118 4.81067 1.06118C6.26551 1.06118 7.20596 1.95745 7.73867 2.70933C8.21652 3.38367 8.46586 4.06346 8.5509 4.3244C8.62203 4.54283 8.82567 4.69065 9.05538 4.69065C9.28509 4.69065 9.48873 4.54283 9.55986 4.3244C9.6449 4.06346 9.89424 3.38367 10.3721 2.70929C10.9048 1.95745 11.8453 1.06118 13.3001 1.06118C14.3479 1.06118 15.3043 1.4917 15.9933 2.2734C16.6745 3.04632 17.0496 4.09208 17.0496 5.21799C17.0496 7.94192 14.6179 10.0141 10.937 13.1507Z" fill="black"/>
</svg>
