<svg width="66" height="67" viewBox="0 0 66 67" fill="none" xmlns="http://www.w3.org/2000/svg">
<path d="M52.6388 14.2501C57.5017 19.2104 60.5 26.0051 60.5 33.5C60.5 41.0839 57.4299 47.951 52.465 52.926M13.75 53.1391C8.65876 48.1479 5.5 41.1928 5.5 33.5C5.5 25.8962 8.5861 19.0132 13.5741 14.0352" stroke="white" stroke-width="4" stroke-linecap="round" stroke-linejoin="round"/>
<path d="M44.7835 22.6209C47.701 25.4116 49.5 29.2342 49.5 33.451C49.5 37.7179 47.6581 41.5811 44.679 44.3801M21.45 44.5C18.3952 41.692 16.5 37.779 16.5 33.451C16.5 29.1731 18.3517 25.3007 21.3445 22.5" stroke="white" stroke-width="4" stroke-linecap="round" stroke-linejoin="round"/>
<path d="M37.5548 29.2405C40.0183 31.0492 41.25 31.9534 41.25 33.5C41.25 35.0466 40.0183 35.9508 37.5548 37.7595C36.875 38.2586 36.2004 38.7289 35.5806 39.1205C35.0369 39.4642 34.4212 39.8195 33.7835 40.1685C31.3261 41.5135 30.0971 42.1862 28.9952 41.4415C27.893 40.6968 27.7929 39.1381 27.5927 36.0207C27.536 35.139 27.5 34.2747 27.5 33.5C27.5 32.7253 27.536 31.861 27.5927 30.9794C27.7929 27.8619 27.893 26.3031 28.9952 25.5586C30.0971 24.814 31.3261 25.4865 33.7835 26.8315C34.4212 27.1804 35.0369 27.5359 35.5806 27.8795C36.2004 28.2712 36.875 28.7414 37.5548 29.2405Z" stroke="white" stroke-width="4"/>
</svg>
