<svg width="75" height="76" viewBox="0 0 75 76" fill="none" xmlns="http://www.w3.org/2000/svg">
<path fill-rule="evenodd" clip-rule="evenodd" d="M71.6853 24.3834L47.7058 30.8087L44.1909 27.2939L50.6162 3.31433C51.2552 0.929577 53.7064 -0.48572 56.0911 0.153533C58.4759 0.792488 59.8912 3.2437 59.2522 5.62846L55.5482 19.4515L69.3712 15.7474C71.756 15.1085 74.2072 16.5238 74.8464 18.9085C75.4854 21.2933 74.0701 23.7445 71.6853 24.3834Z" fill="#4CEBC0"/>
<path fill-rule="evenodd" clip-rule="evenodd" d="M70.8148 4.18486C72.5606 5.93066 72.5606 8.76125 70.8148 10.5071L50.7953 30.5265L44.4731 24.2046L64.4929 4.18486C66.2384 2.43936 69.069 2.43936 70.8148 4.18486Z" fill="#00E2A5"/>
<path fill-rule="evenodd" clip-rule="evenodd" d="M59.3788 45.5748C58.5357 45.9962 8.01684 74.5694 8.01684 74.5694C5.31172 76.0944 3.13558 76.4317 1.27325 74.5694C-0.588775 72.7074 -0.251715 70.5312 1.27325 67.8261C1.27325 67.8261 29.8465 17.307 30.2682 16.4642C30.6896 15.6211 33.5634 11.6088 37.5193 15.5645L60.2782 38.3236C64.2341 42.2793 60.2216 45.1534 59.3788 45.5748Z" fill="#FC9502"/>
<path fill-rule="evenodd" clip-rule="evenodd" d="M39.6265 45.4884C40.092 45.0229 40.8469 45.0229 41.3124 45.4884L47.8709 52.0472C47.1718 52.4418 46.4523 52.8477 45.7156 53.2637L39.6265 47.1743C39.161 46.7088 39.161 45.9539 39.6265 45.4884ZM16.4459 52.6534L23.6109 59.8183C24.0764 60.2839 24.0764 61.0384 23.6109 61.5042C23.1454 61.9698 22.3905 61.9698 21.925 61.5042L14.76 54.3392C14.2945 53.8737 14.2945 53.1189 14.76 52.6534C15.2255 52.1878 15.9804 52.1878 16.4459 52.6534ZM9.28094 63.1898C8.81543 63.6553 8.06085 63.6553 7.59534 63.1898L5.23145 60.8262C5.61678 60.145 6.02388 59.425 6.44945 58.6725L9.28094 61.5042C9.74674 61.9698 9.74674 62.7243 9.28094 63.1898ZM22.7678 46.3315L16.7985 40.3621C17.2059 39.6412 17.6121 38.9224 18.0159 38.2074L24.4537 44.6456C24.9192 45.1111 24.9192 45.866 24.4537 46.3315C23.9882 46.797 23.2336 46.797 22.7678 46.3315ZM42.3659 32.2125C41.9004 32.678 41.1455 32.678 40.68 32.2125L33.5153 25.0475C33.0498 24.582 33.0498 23.8271 33.5153 23.3616C33.9808 22.8961 34.7357 22.8961 35.2012 23.3616L42.3659 30.5266C42.8314 30.9921 42.8314 31.7467 42.3659 32.2125Z" fill="#FF5134"/>
</svg>
