<svg width="80" height="80" viewBox="0 0 80 80" fill="none" xmlns="http://www.w3.org/2000/svg">
<g clip-path="url(#clip0_5554_13316)">
<path d="M58.3326 5.00019C55.9035 5.00019 53.545 5.43474 51.3478 6.25022C48.44 3.20093 44.3385 1.30151 39.795 1.30151C35.3052 1.30151 31.2476 3.15703 28.3472 6.14038C26.2378 5.39567 23.9843 5.00035 21.665 5.00035C10.6371 5.00035 1.66504 13.9724 1.66504 25.0003C1.66504 29.0262 2.85647 32.9057 5.10731 36.2211C7.30705 39.4608 10.3734 41.9657 13.9745 43.4672L14.9999 43.8944V78.3327H64.9976V43.8944L66.023 43.4672C69.624 41.9657 72.6903 39.4608 74.89 36.2211C77.141 32.9057 78.3325 29.0262 78.3325 25.0003C78.3326 13.9723 69.3604 5.00019 58.3326 5.00019Z" fill="#F5F7FA"/>
<path d="M58.3326 3.33268C55.5055 3.33268 52.8028 3.87456 50.3273 4.86099C51.399 5.59335 52.3903 6.43806 53.2814 7.37558C54.9147 6.90932 56.6165 6.6651 58.3326 6.6651C63.2301 6.6651 67.8322 8.57436 71.2965 12.0362C74.7583 15.4981 76.6651 20.1026 76.6651 25.0001C76.6651 28.6891 75.5738 32.2462 73.5106 35.2834C71.4942 38.2546 68.6818 40.5518 65.3833 41.9289L63.3324 42.7834V45.0052V76.665H16.6651V45.0051V42.7833L14.6144 41.9287C11.316 40.5518 8.50364 38.2544 6.48687 35.2833C4.42385 32.246 3.33242 28.6891 3.33242 24.9999C3.33242 20.1024 5.23919 15.498 8.70114 12.036C12.1654 8.5742 16.7674 6.66494 21.665 6.66494C23.3812 6.66494 25.0829 6.90901 26.7163 7.37543C27.6074 6.4379 28.5985 5.5932 29.6702 4.86084C27.1947 3.87456 24.492 3.33252 21.665 3.33252C9.6996 3.33268 0 13.0323 0 24.9999C0 34.0112 5.50294 41.7383 13.3325 45.0049V79.9999H66.665V45.0051C74.4944 41.7384 80 34.0114 80 25.0001C80.0002 13.0324 70.2979 3.33268 58.3326 3.33268Z" fill="#E6E9ED"/>
<path d="M40 0C28.9526 0 20 8.95271 20 20C20 20.9205 20.7447 21.665 21.665 21.665C22.5854 21.665 23.3324 20.9203 23.3324 20C23.3324 15.5469 25.0659 11.3623 28.2128 8.21535C31.3623 5.06606 35.5468 3.33258 40 3.33258C44.4506 3.33258 48.6352 5.0659 51.7847 8.21535C54.9318 11.3623 56.6651 15.5469 56.6651 19.9975V20C56.6651 20.9205 57.412 21.665 58.3325 21.665C59.2529 21.665 59.9998 20.9203 59.9998 20C59.9998 8.95271 51.0449 0 40 0Z" fill="#E6E9ED"/>
<path d="M66.665 73.332H13.3325V79.9994H66.665V73.332Z" fill="#E6E9ED"/>
<path d="M28.3326 36.665C27.4121 36.665 26.665 37.4121 26.665 38.3324V61.6652C26.665 62.5856 27.4121 63.3324 28.3326 63.3324C29.2529 63.3324 29.9975 62.5856 29.9975 61.6652V38.3326C29.9975 37.4121 29.2529 36.665 28.3326 36.665Z" fill="#CCD1D9"/>
<path d="M39.9976 36.665C39.0771 36.665 38.3325 37.4121 38.3325 38.3324V61.6652C38.3325 62.5856 39.0772 63.3324 39.9976 63.3324C40.9179 63.3324 41.6651 62.5856 41.6651 61.6652V38.3326C41.6651 37.4121 40.9181 36.665 39.9976 36.665Z" fill="#CCD1D9"/>
<path d="M51.6651 36.665C50.7446 36.665 50.0001 37.4121 50.0001 38.3324H49.9976V61.6652H50.0001C50.0001 62.5856 50.7448 63.3324 51.6651 63.3324C52.5854 63.3324 53.3326 62.5856 53.3326 61.6652V38.3326C53.3326 37.4121 52.5856 36.665 51.6651 36.665Z" fill="#CCD1D9"/>
</g>
<defs>
<clipPath id="clip0_5554_13316">
<rect width="80" height="80" fill="white"/>
</clipPath>
</defs>
</svg>
