<svg width="121" height="121" viewBox="0 0 121 121" fill="none" xmlns="http://www.w3.org/2000/svg">
<path d="M95.3204 39.8595C88.2293 46.9506 75.8192 45.1785 75.8192 45.1785C75.8192 45.1785 74.0521 32.7659 81.1382 25.6798C88.2293 18.5913 100.637 20.3634 100.637 20.3634C100.637 20.3634 102.411 32.7659 95.3204 39.8595Z" fill="#689F38"/>
<path d="M76.9587 48.4554C93.0038 50.2376 110.829 68.0624 110.829 68.0624C110.829 68.0624 112.611 55.5843 100.133 46.6732C87.6546 37.7595 76.9587 48.4554 76.9587 48.4554ZM72.817 44.0414C71.0348 27.9988 53.21 10.1715 53.21 10.1715C53.21 10.1715 65.6881 8.38928 74.5992 20.8649C83.5104 33.3455 72.817 44.0414 72.817 44.0414Z" fill="#8BC34A"/>
<path d="M88.741 89.2375C75.2092 102.774 36.6102 116.987 21.5709 101.948C6.52907 86.9082 20.7415 48.3117 34.2784 34.7774C47.8153 21.2405 64.6267 28.8156 79.666 43.8574C94.7028 58.8917 102.278 75.7006 88.741 89.2375Z" fill="#FF1744"/>
<path d="M40.9182 38.3973C41.5033 37.8122 42.198 37.3481 42.9625 37.0314C43.7269 36.7147 44.5463 36.5518 45.3738 36.5518C46.2013 36.5518 47.0206 36.7147 47.7851 37.0314C48.5496 37.3481 49.2443 37.8122 49.8294 38.3973C50.4145 38.9824 50.8786 39.6771 51.1953 40.4416C51.5119 41.206 51.6749 42.0254 51.6749 42.8529C51.6749 43.6804 51.5119 44.4997 51.1953 45.2642C50.8786 46.0287 50.4145 46.7233 49.8294 47.3085C47.3665 49.7688 42.7962 50.3587 40.3334 47.8958C37.8705 45.433 38.4579 40.8602 40.9182 38.3973ZM61.6647 53.0509C62.2498 52.4658 62.9444 52.0017 63.7089 51.685C64.4734 51.3683 65.2928 51.2054 66.1203 51.2054C66.9477 51.2054 67.7671 51.3683 68.5316 51.685C69.2961 52.0017 69.9907 52.4658 70.5758 53.0509C71.1609 53.636 71.6251 54.3307 71.9417 55.0952C72.2584 55.8596 72.4214 56.679 72.4214 57.5065C72.4214 58.334 72.2584 59.1533 71.9417 59.9178C71.6251 60.6823 71.1609 61.377 70.5758 61.9621C68.113 64.4224 63.5402 65.0098 61.0773 62.5469C58.6145 60.084 59.2018 55.5113 61.6647 53.0509ZM28.8535 85.7562C29.4386 85.1711 30.1333 84.707 30.8977 84.3903C31.6622 84.0736 32.4816 83.9107 33.3091 83.9107C34.1366 83.9107 34.9559 84.0736 35.7204 84.3903C36.4849 84.707 37.1795 85.1711 37.7647 85.7562C38.3498 86.3413 38.8139 87.036 39.1306 87.8004C39.4472 88.5649 39.6102 89.3843 39.6102 90.2118C39.6102 91.0393 39.4472 91.8586 39.1306 92.6231C38.8139 93.3876 38.3498 94.0822 37.7647 94.6674C35.3018 97.1277 30.729 97.715 28.2662 95.2522C25.8033 92.7893 26.3932 88.2165 28.8535 85.7562ZM76.3712 73.5302C76.9563 72.9451 77.651 72.4809 78.4155 72.1643C79.1799 71.8476 79.9993 71.6846 80.8268 71.6846C81.6543 71.6846 82.4736 71.8476 83.2381 72.1643C84.0026 72.4809 84.6973 72.9451 85.2824 73.5302C85.8675 74.1153 86.3316 74.8099 86.6483 75.5744C86.9649 76.3389 87.1279 77.1583 87.1279 77.9857C87.1279 78.8132 86.9649 79.6326 86.6483 80.3971C86.3316 81.1616 85.8675 81.8562 85.2824 82.4413C82.8195 84.9016 78.2467 85.489 75.7839 83.0261C73.321 80.5633 73.9084 75.993 76.3712 73.5302ZM33.9027 60.5403C34.4879 59.9552 35.1825 59.4911 35.947 59.1744C36.7115 58.8577 37.5308 58.6948 38.3583 58.6948C39.1858 58.6948 40.0052 58.8577 40.7697 59.1744C41.5341 59.4911 42.2288 59.9552 42.8139 60.5403C43.399 61.1254 43.8631 61.8201 44.1798 62.5846C44.4965 63.349 44.6594 64.1684 44.6594 64.9959C44.6594 65.8234 44.4965 66.6427 44.1798 67.4072C43.8631 68.1717 43.399 68.8663 42.8139 69.4515C40.351 71.9118 35.7782 72.4991 33.3154 70.0363C30.8525 67.5734 31.4424 63.0006 33.9027 60.5403ZM51.1629 81.0927C51.748 80.5076 52.4426 80.0434 53.2071 79.7268C53.9716 79.4101 54.791 79.2471 55.6185 79.2471C56.4459 79.2471 57.2653 79.4101 58.0298 79.7268C58.7943 80.0434 59.4889 80.5076 60.074 81.0927C60.6591 81.6778 61.1233 82.3724 61.44 83.1369C61.7566 83.9014 61.9196 84.7208 61.9196 85.5482C61.9196 86.3757 61.7566 87.1951 61.44 87.9596C61.1233 88.7241 60.6591 89.4187 60.074 90.0038C57.6112 92.4641 53.0384 93.0515 50.5755 90.5886C48.1127 88.1258 48.7 83.5555 51.1629 81.0927Z" fill="#D50000"/>
<path d="M47.1571 44.6364C46.1714 45.6221 41.3188 48.8815 40.3332 47.8959C39.3475 46.9102 42.607 42.0576 43.5926 41.072C43.8267 40.8379 44.1045 40.6523 44.4103 40.5256C44.7161 40.3989 45.0439 40.3337 45.3748 40.3337C45.7058 40.3337 46.0336 40.3989 46.3394 40.5256C46.6452 40.6523 46.923 40.8379 47.1571 41.072C47.3911 41.306 47.5768 41.5839 47.7034 41.8897C47.8301 42.1955 47.8953 42.5232 47.8953 42.8542C47.8953 43.1852 47.8301 43.5129 47.7034 43.8187C47.5768 44.1245 47.3911 44.4024 47.1571 44.6364ZM67.9035 59.29C66.9179 60.2757 62.0653 63.5351 61.0796 62.5495C60.094 61.5638 63.3534 56.7112 64.3391 55.7256C64.5731 55.4915 64.851 55.3059 65.1568 55.1792C65.4626 55.0525 65.7903 54.9873 66.1213 54.9873C66.4523 54.9873 66.78 55.0525 67.0858 55.1792C67.3916 55.3059 67.6695 55.4915 67.9035 55.7256C68.1376 55.9596 68.3232 56.2375 68.4499 56.5433C68.5766 56.8491 68.6418 57.1768 68.6418 57.5078C68.6418 57.8388 68.5766 58.1665 68.4499 58.4723C68.3232 58.7781 68.1376 59.056 67.9035 59.29ZM35.0924 91.9928C34.1067 92.9784 29.2541 96.2379 28.2685 95.2522C27.2828 94.2666 30.5423 89.414 31.5279 88.4283C31.762 88.1943 32.0398 88.0086 32.3456 87.882C32.6514 87.7553 32.9792 87.6901 33.3101 87.6901C33.6411 87.6901 33.9689 87.7553 34.2747 87.882C34.5805 88.0086 34.8583 88.1943 35.0924 88.4283C35.3264 88.6624 35.5121 88.9402 35.6387 89.246C35.7654 89.5518 35.8306 89.8796 35.8306 90.2106C35.8306 90.5416 35.7654 90.8693 35.6387 91.1751C35.5121 91.4809 35.3264 91.7588 35.0924 91.9928ZM82.6101 79.7693C81.6244 80.7549 76.7718 84.0144 75.7862 83.0287C74.8005 82.0431 78.06 77.1905 79.0456 76.2048C79.2797 75.9708 79.5575 75.7851 79.8633 75.6585C80.1691 75.5318 80.4969 75.4666 80.8278 75.4666C81.1588 75.4666 81.4866 75.5318 81.7924 75.6585C82.0982 75.7851 82.376 75.9708 82.6101 76.2048C82.8441 76.4389 83.0298 76.7167 83.1564 77.0225C83.2831 77.3283 83.3483 77.6561 83.3483 77.987C83.3483 78.318 83.2831 78.6458 83.1564 78.9516C83.0298 79.2574 82.8441 79.5352 82.6101 79.7693ZM40.1416 66.7769C39.156 67.7625 34.3033 71.022 33.3177 70.0363C32.3321 69.0507 35.5915 64.1981 36.5771 63.2124C36.8112 62.9784 37.089 62.7927 37.3948 62.6661C37.7006 62.5394 38.0284 62.4742 38.3594 62.4742C38.6904 62.4742 39.0181 62.5394 39.3239 62.6661C39.6297 62.7927 39.9076 62.9784 40.1416 63.2124C40.3756 63.4465 40.5613 63.7243 40.688 64.0301C40.8146 64.3359 40.8798 64.6637 40.8798 64.9947C40.8798 65.3257 40.8146 65.6534 40.688 65.9592C40.5613 66.265 40.3756 66.5429 40.1416 66.7769ZM57.4017 87.3318C56.4161 88.3174 51.5635 91.5769 50.5778 90.5912C49.5922 89.6056 52.8516 84.753 53.8373 83.7673C54.0713 83.5333 54.3492 83.3476 54.655 83.221C54.9608 83.0943 55.2885 83.0291 55.6195 83.0291C55.9505 83.0291 56.2783 83.0943 56.5841 83.221C56.8898 83.3476 57.1677 83.5333 57.4017 83.7673C57.6358 84.0014 57.8214 84.2792 57.9481 84.585C58.0748 84.8908 58.14 85.2186 58.14 85.5495C58.14 85.8805 58.0748 86.2083 57.9481 86.5141C57.8214 86.8199 57.6358 87.0977 57.4017 87.3318Z" fill="#FFC107"/>
</svg>
