<svg width="25" height="22" viewBox="0 0 25 22" fill="none" xmlns="http://www.w3.org/2000/svg">
<path d="M4.49609 21.8438C3.26953 21.8438 2.34766 21.5391 1.73047 20.9297C1.12109 20.3281 0.816406 19.4219 0.816406 18.2109V3.90234C0.816406 2.69141 1.12109 1.78516 1.73047 1.18359C2.34766 0.574219 3.26953 0.269531 4.49609 0.269531H20.5039C21.7305 0.269531 22.6484 0.574219 23.2578 1.18359C23.8672 1.78516 24.1719 2.69141 24.1719 3.90234V18.2109C24.1719 19.4219 23.8672 20.3281 23.2578 20.9297C22.6484 21.5391 21.7305 21.8438 20.5039 21.8438H4.49609ZM4.32031 19.957H20.6562C21.1797 19.957 21.582 19.8164 21.8633 19.5352C22.1445 19.2617 22.2852 18.8555 22.2852 18.3164V7.26562C22.2852 6.72656 22.1445 6.32031 21.8633 6.04688C21.582 5.76562 21.1797 5.625 20.6562 5.625H4.32031C3.80469 5.625 3.40625 5.76562 3.125 6.04688C2.84375 6.32031 2.70312 6.72656 2.70312 7.26562V18.3164C2.70312 18.8555 2.84375 19.2617 3.125 19.5352C3.40625 19.8164 3.80469 19.957 4.32031 19.957ZM10.2148 9.84375C10.0117 9.84375 9.86719 9.80469 9.78125 9.72656C9.70312 9.64844 9.66406 9.50781 9.66406 9.30469V8.61328C9.66406 8.41016 9.70312 8.27344 9.78125 8.20312C9.86719 8.125 10.0117 8.08594 10.2148 8.08594H10.9062C11.1094 8.08594 11.25 8.125 11.3281 8.20312C11.4141 8.27344 11.457 8.41016 11.457 8.61328V9.30469C11.457 9.50781 11.4141 9.64844 11.3281 9.72656C11.25 9.80469 11.1094 9.84375 10.9062 9.84375H10.2148ZM14.1055 9.84375C13.9023 9.84375 13.7617 9.80469 13.6836 9.72656C13.6055 9.64844 13.5664 9.50781 13.5664 9.30469V8.61328C13.5664 8.41016 13.6055 8.27344 13.6836 8.20312C13.7617 8.125 13.9023 8.08594 14.1055 8.08594H14.7969C15.0078 8.08594 15.1523 8.125 15.2305 8.20312C15.3086 8.27344 15.3477 8.41016 15.3477 8.61328V9.30469C15.3477 9.50781 15.3086 9.64844 15.2305 9.72656C15.1523 9.80469 15.0078 9.84375 14.7969 9.84375H14.1055ZM18.0078 9.84375C17.7969 9.84375 17.6523 9.80469 17.5742 9.72656C17.4961 9.64844 17.457 9.50781 17.457 9.30469V8.61328C17.457 8.41016 17.4961 8.27344 17.5742 8.20312C17.6523 8.125 17.7969 8.08594 18.0078 8.08594H18.6875C18.8984 8.08594 19.043 8.125 19.1211 8.20312C19.1992 8.27344 19.2383 8.41016 19.2383 8.61328V9.30469C19.2383 9.50781 19.1992 9.64844 19.1211 9.72656C19.043 9.80469 18.8984 9.84375 18.6875 9.84375H18.0078ZM6.32422 13.6758C6.11328 13.6758 5.96875 13.6367 5.89062 13.5586C5.8125 13.4805 5.77344 13.3398 5.77344 13.1367V12.457C5.77344 12.2461 5.8125 12.1055 5.89062 12.0352C5.96875 11.957 6.11328 11.918 6.32422 11.918H7.01562C7.21875 11.918 7.35938 11.957 7.4375 12.0352C7.51562 12.1055 7.55469 12.2461 7.55469 12.457V13.1367C7.55469 13.3398 7.51562 13.4805 7.4375 13.5586C7.35938 13.6367 7.21875 13.6758 7.01562 13.6758H6.32422ZM10.2148 13.6758C10.0117 13.6758 9.86719 13.6367 9.78125 13.5586C9.70312 13.4805 9.66406 13.3398 9.66406 13.1367V12.457C9.66406 12.2461 9.70312 12.1055 9.78125 12.0352C9.86719 11.957 10.0117 11.918 10.2148 11.918H10.9062C11.1094 11.918 11.25 11.957 11.3281 12.0352C11.4141 12.1055 11.457 12.2461 11.457 12.457V13.1367C11.457 13.3398 11.4141 13.4805 11.3281 13.5586C11.25 13.6367 11.1094 13.6758 10.9062 13.6758H10.2148ZM14.1055 13.6758C13.9023 13.6758 13.7617 13.6367 13.6836 13.5586C13.6055 13.4805 13.5664 13.3398 13.5664 13.1367V12.457C13.5664 12.2461 13.6055 12.1055 13.6836 12.0352C13.7617 11.957 13.9023 11.918 14.1055 11.918H14.7969C15.0078 11.918 15.1523 11.957 15.2305 12.0352C15.3086 12.1055 15.3477 12.2461 15.3477 12.457V13.1367C15.3477 13.3398 15.3086 13.4805 15.2305 13.5586C15.1523 13.6367 15.0078 13.6758 14.7969 13.6758H14.1055ZM18.0078 13.6758C17.7969 13.6758 17.6523 13.6367 17.5742 13.5586C17.4961 13.4805 17.457 13.3398 17.457 13.1367V12.457C17.457 12.2461 17.4961 12.1055 17.5742 12.0352C17.6523 11.957 17.7969 11.918 18.0078 11.918H18.6875C18.8984 11.918 19.043 11.957 19.1211 12.0352C19.1992 12.1055 19.2383 12.2461 19.2383 12.457V13.1367C19.2383 13.3398 19.1992 13.4805 19.1211 13.5586C19.043 13.6367 18.8984 13.6758 18.6875 13.6758H18.0078ZM6.32422 17.5078C6.11328 17.5078 5.96875 17.4727 5.89062 17.4023C5.8125 17.3242 5.77344 17.1797 5.77344 16.9688V16.2891C5.77344 16.0781 5.8125 15.9375 5.89062 15.8672C5.96875 15.7891 6.11328 15.75 6.32422 15.75H7.01562C7.21875 15.75 7.35938 15.7891 7.4375 15.8672C7.51562 15.9375 7.55469 16.0781 7.55469 16.2891V16.9688C7.55469 17.1797 7.51562 17.3242 7.4375 17.4023C7.35938 17.4727 7.21875 17.5078 7.01562 17.5078H6.32422ZM10.2148 17.5078C10.0117 17.5078 9.86719 17.4727 9.78125 17.4023C9.70312 17.3242 9.66406 17.1797 9.66406 16.9688V16.2891C9.66406 16.0781 9.70312 15.9375 9.78125 15.8672C9.86719 15.7891 10.0117 15.75 10.2148 15.75H10.9062C11.1094 15.75 11.25 15.7891 11.3281 15.8672C11.4141 15.9375 11.457 16.0781 11.457 16.2891V16.9688C11.457 17.1797 11.4141 17.3242 11.3281 17.4023C11.25 17.4727 11.1094 17.5078 10.9062 17.5078H10.2148ZM14.1055 17.5078C13.9023 17.5078 13.7617 17.4727 13.6836 17.4023C13.6055 17.3242 13.5664 17.1797 13.5664 16.9688V16.2891C13.5664 16.0781 13.6055 15.9375 13.6836 15.8672C13.7617 15.7891 13.9023 15.75 14.1055 15.75H14.7969C15.0078 15.75 15.1523 15.7891 15.2305 15.8672C15.3086 15.9375 15.3477 16.0781 15.3477 16.2891V16.9688C15.3477 17.1797 15.3086 17.3242 15.2305 17.4023C15.1523 17.4727 15.0078 17.5078 14.7969 17.5078H14.1055Z" fill="black"/>
</svg>
