<svg width="122" height="121" viewBox="0 0 122 121" fill="none" xmlns="http://www.w3.org/2000/svg">
<path d="M56.0869 30.5117C56.0869 30.5117 13.9715 22.0921 8.60353 56.4637C3.24569 90.8403 35.075 101.599 44.2707 103.659C53.4614 105.716 94.7635 111.377 103.428 74.1297C110.611 43.2646 82.899 24.6684 59.1547 31.2024L56.0869 30.5117Z" fill="#FF3D00"/>
<path d="M61.3204 29.3298L58.2526 28.6416C58.2526 28.6416 27.5416 22.521 15.2349 42.1482C19.2914 44.6035 25.9429 47.4848 25.9429 47.4848C30.5281 49.446 34.9353 50.4443 39.0427 50.4443C43.0992 50.4443 46.8151 49.4889 50.0481 47.6764C51.113 52.776 54.0512 58.1404 60.8908 62.2846L65.8598 65.2945L68.1981 60.0033C70.1577 55.5666 71.1337 51.8685 71.3727 48.541C74.0033 49.8544 76.9313 50.6938 80.1287 50.6938C83.9641 50.6938 87.8426 49.4914 91.6551 47.1269C91.6551 47.1269 96.6597 44.2607 99.8673 41.8382C91.1468 30.512 75.5283 25.42 61.3204 29.3298Z" fill="#DD2C00"/>
<path d="M61.3763 59.8542C66.2487 48.8255 64.195 43.8191 59.4472 34.6433C65.9437 43.0377 74.6133 52.2917 86.793 44.7292C77.5261 42.2865 79.2035 35.2206 67.6949 33.2165C76.3264 33.5745 80.8912 36.2516 86.793 24.5625C77.5006 29.4126 72.0716 18.7848 59.9962 29.7353C57.9578 30.9906 55.8177 27.8043 54.1834 29.5311C45.4655 15.1598 35.1056 28.0034 30.8763 17C30.8763 33.9198 47.2497 29.3168 51.2096 32.125C35.797 30.8369 36.9839 42.4705 25.793 44.7292C40.5143 51.0312 50.0684 44.888 53.9343 34.4164C53.3294 38.5077 48.124 51.8253 61.3763 59.8542Z" fill="#4CAF50"/>
<path d="M55.9194 30.4013C55.8533 30.8979 56.9157 32.7709 60.3622 32.7709C64.4873 32.7709 62.9064 30.7315 62.9064 30.7315C62.9064 30.7315 62.5277 18.9592 71.1668 11.1799C68.9734 9.37752 66.6655 10.343 66.6655 10.343C66.6655 10.343 57.4418 19.7886 55.9194 30.4013Z" fill="#4CAF50"/>
</svg>
