<svg width="18" height="18" viewBox="0 0 18 18" fill="none" xmlns="http://www.w3.org/2000/svg">
<g clip-path="url(#clip0_5453_14128)">
<path d="M4.59487 13.0717C4.52032 13.2316 4.36173 13.3256 4.19623 13.3256C4.13403 13.3256 4.07082 13.3123 4.01073 13.2843L2.06171 12.3755C1.84171 12.2729 1.7465 12.0113 1.84909 11.7913C1.95164 11.5713 2.21319 11.476 2.43324 11.5787L4.38225 12.4876C4.60226 12.5902 4.69747 12.8517 4.59487 13.0717ZM3.65336 5.15639H3.73903V8.27836C3.73903 8.52113 3.93582 8.71793 4.1786 8.71793C4.42138 8.71793 4.61817 8.52113 4.61817 8.27836V5.15639H8.99999C10.4216 5.15639 11.5782 3.99979 11.5782 2.57822C11.5782 2.33544 11.3814 2.13865 11.1386 2.13865C10.8959 2.13865 10.6991 2.33544 10.6991 2.57822C10.6991 3.51507 9.93689 4.27725 8.99999 4.27725H3.65336C2.7165 4.27725 1.95428 3.51507 1.95428 2.57822C1.95428 1.64131 2.7165 0.879142 3.65336 0.879142H6.12876C5.73477 1.32746 5.49604 1.91266 5.49604 2.55211C5.49604 2.79488 5.69283 2.99168 5.93561 2.99168C6.17838 2.99168 6.37518 2.79488 6.37518 2.55211C6.37518 1.62962 7.13735 0.879142 8.07421 0.879142H14.3465C15.2834 0.879142 16.0456 1.64131 16.0456 2.57822C16.0456 3.51507 15.2834 4.27725 14.3465 4.27725H12.2079C11.9651 4.27725 11.7683 4.47404 11.7683 4.71682C11.7683 4.95959 11.9651 5.15639 12.2079 5.15639H13.3818V8.27836C13.3818 8.52113 13.5786 8.71793 13.8213 8.71793C14.0641 8.71793 14.2609 8.52113 14.2609 8.27836V5.15639H14.3466C15.7682 5.15639 16.9248 3.99979 16.9248 2.57822C16.9247 1.1566 15.7682 0 14.3465 0H3.65336C2.23174 0 1.07514 1.1566 1.07514 2.57822C1.07514 3.99983 2.23174 5.15639 3.65336 5.15639ZM15.9904 11.2865C15.7683 11.1885 15.5088 11.2893 15.411 11.5115C15.3438 11.6639 15.2465 11.7707 15.1216 11.8289L14.046 12.3305C13.9222 12.3882 13.7791 12.3945 13.6207 12.3494C13.3873 12.2828 13.144 12.4179 13.0774 12.6514C13.0107 12.8848 13.1459 13.1281 13.3794 13.1947C13.528 13.2372 13.6759 13.2583 13.8206 13.2583C14.029 13.2583 14.2307 13.2145 14.4175 13.1274L15.4931 12.6257C15.8122 12.477 16.062 12.2143 16.2155 11.866C16.3134 11.6438 16.2127 11.3843 15.9904 11.2865ZM4.90082 11.3754L2.9518 10.4666C2.73171 10.3639 2.47021 10.4592 2.36765 10.6792C2.26506 10.8993 2.36027 11.1608 2.58028 11.2634L4.52929 12.1722C4.58938 12.2003 4.65259 12.2135 4.71479 12.2135C4.88033 12.2135 5.03888 12.1195 5.11344 11.9596C5.21603 11.7396 5.12082 11.478 4.90082 11.3754ZM17.4713 12.4174C17.2625 12.9911 16.8445 13.4483 16.2943 13.7049L14.7273 14.4356C14.1771 14.6922 13.5582 14.7185 12.9845 14.5096C12.5518 14.3521 12.1853 14.0756 11.9213 13.7131L10.1917 14.5196L15.8582 17.1619C16.0782 17.2645 16.1734 17.5261 16.0708 17.7461C15.9963 17.906 15.8377 18 15.6722 18C15.61 18 15.5468 17.9867 15.4867 17.9587L9.1516 15.0046L2.84164 17.947C2.62168 18.0497 2.36009 17.9544 2.2575 17.7344C2.1549 17.5144 2.25011 17.2528 2.47012 17.1502L8.11149 14.5196L6.40714 13.7249C6.14309 14.0874 5.77662 14.3639 5.34386 14.5214C4.77017 14.7302 4.15121 14.7039 3.60105 14.4473L1.13053 13.2953C0.489235 12.9962 0.210767 12.2312 0.509807 11.5898L1.35242 9.78283C1.49691 9.47298 1.75419 9.23768 2.07692 9.12018C2.39966 9.00273 2.7481 9.01758 3.05787 9.16207L5.52835 10.3141C6.07856 10.5706 6.49655 11.0279 6.70534 11.6016C6.86284 12.0343 6.88658 12.4927 6.77862 12.9281L9.15156 14.0346L11.5497 12.9163C11.2932 11.8799 11.7966 10.7702 12.7999 10.3023L14.3668 9.57157C15.5064 9.04031 16.8658 9.535 17.3972 10.6745C17.6538 11.2248 17.6801 11.8437 17.4713 12.4174ZM5.87926 11.9023C5.75077 11.5492 5.49424 11.2682 5.15687 11.1109L2.68634 9.95888C2.58929 9.91369 2.47966 9.90912 2.37763 9.94635C2.27556 9.9835 2.19446 10.0574 2.14919 10.1544L1.30657 11.9614C1.21237 12.1634 1.30007 12.4044 1.50205 12.4986L3.97257 13.6506C4.30994 13.8079 4.69013 13.8238 5.04319 13.6953C5.39621 13.5668 5.67723 13.3103 5.83455 12.9729C5.99188 12.6355 6.00774 12.2553 5.87926 11.9023ZM16.6005 11.0461C16.274 10.3459 15.4387 10.0418 14.7385 10.3684L13.1715 11.0991C12.4908 11.4165 12.1846 12.2148 12.468 12.9023C12.4797 12.92 12.5162 12.9983 12.5223 13.0186C12.6838 13.3276 12.9526 13.5624 13.2852 13.6835C13.6383 13.8119 14.0184 13.7961 14.3557 13.6388L15.9228 12.908C16.2602 12.7507 16.5167 12.4697 16.6452 12.1166C16.7737 11.7637 16.7578 11.3835 16.6005 11.0461Z" fill="#2D281E"/>
</g>
<defs>
<clipPath id="clip0_5453_14128">
<rect width="18" height="18" fill="white"/>
</clipPath>
</defs>
</svg>
