<svg width="18" height="18" viewBox="0 0 18 18" fill="none" xmlns="http://www.w3.org/2000/svg">
<path fill-rule="evenodd" clip-rule="evenodd" d="M2.00005 12.4999H1.01205C0.460057 12.4939 0.00706033 12.9359 6.03693e-05 13.4879C-0.0059396 14.0399 0.436059 14.4929 0.988056 14.4999H1.97605H2.00005C2.00005 16.1569 3.34304 17.4999 5.00003 17.4999H7.00002C8.65701 17.4999 10 16.1569 10 14.4999H17C17.552 14.4999 18 14.0519 18 13.4999C18 12.9479 17.552 12.4999 17 12.4999H10C10 10.8429 8.65701 9.49995 7.00002 9.49995H5.00003C3.34304 9.49995 2.00005 10.8429 2.00005 12.4999ZM4.00004 12.4999C4.00004 11.9479 4.44804 11.4999 5.00003 11.4999H7.00002C7.55202 11.4999 8.00001 11.9479 8.00001 12.4999V14.4999C8.00001 15.0519 7.55202 15.4999 7.00002 15.4999H5.00003C4.44804 15.4999 4.00004 15.0519 4.00004 14.4999V12.4999ZM8.00001 3.49998H1.00005C0.448058 3.49998 6.03693e-05 3.94798 6.03693e-05 4.49998C6.03693e-05 5.05197 0.448058 5.49997 1.00005 5.49997H8.00001C8.00001 7.15696 9.34301 8.49996 11 8.49996H13C14.657 8.49996 16 7.15696 16 5.49997H17C17.552 5.49997 18 5.05197 18 4.49998C18 3.94798 17.552 3.49998 17 3.49998H16C16 1.84299 14.657 0.5 13 0.5H11C9.34301 0.5 8.00001 1.84299 8.00001 3.49998ZM14 3.49998V5.49997C14 6.05197 13.552 6.49997 13 6.49997H11C10.448 6.49997 10 6.05197 10 5.49997V3.49998C10 2.94799 10.448 2.49999 11 2.49999H13C13.552 2.49999 14 2.94799 14 3.49998Z" fill="black"/>
</svg>
