<svg width="122" height="122" viewBox="0 0 122 122" fill="none" xmlns="http://www.w3.org/2000/svg">
<path d="M75.1638 89.3872C82.1269 98.8432 80.6498 98.6206 85.2853 101.112C94.8561 106.255 76.7894 109.803 68.6583 105.97C60.5248 102.138 56.844 92.8492 60.4387 85.2238C64.0315 77.5983 69.8318 82.1478 75.1638 89.3872ZM119.455 90.9256L118.836 90.1505C118.836 90.1505 118.707 89.9889 118.468 89.7125C118.231 89.427 117.862 89.0665 117.454 88.5459C117.348 88.4201 117.242 88.2838 117.124 88.1529C117.011 88.0164 116.884 87.8892 116.772 87.7276C116.544 87.41 116.286 87.0959 116.02 86.7588C115.767 86.3814 115.506 86.0098 115.236 85.6441C114.985 85.2385 114.714 84.8275 114.445 84.4041C113.942 83.5174 113.4 82.6022 112.96 81.5811C112.853 81.3243 112.711 81.0893 112.621 80.8201C112.522 80.5556 112.416 80.2935 112.304 80.034C112.245 79.9067 112.203 79.7685 112.16 79.632C112.114 79.4974 112.067 79.3611 112.02 79.2248C111.927 78.9555 111.821 78.6879 111.753 78.4046C111.672 78.1263 111.597 77.8463 111.505 77.5702C111.435 77.2883 111.378 76.9995 111.306 76.7157C111.272 76.5722 111.227 76.434 111.2 76.2887L111.128 75.8507L111.044 75.4163C111.015 75.271 110.977 75.1294 110.97 74.9784C110.942 74.6824 110.895 74.3898 110.854 74.0939C110.845 74.0255 110.825 73.9395 110.825 73.882L110.82 73.715C110.814 73.6037 110.805 73.4924 110.794 73.3814C110.784 73.2701 110.769 73.1605 110.755 73.0492L110.748 73.008L110.746 72.988L110.744 72.9468L110.741 72.7764L110.73 72.4373L110.697 71.3498L110.698 71.3389L110.699 71.2831L110.705 71.1702L110.712 70.944L110.724 70.4918C110.732 70.3409 110.719 70.1887 110.735 70.0395L110.777 69.5908L110.812 69.1438C110.82 68.993 110.825 68.8441 110.854 68.6968C110.895 68.4025 110.942 68.1101 110.97 67.8123C110.977 67.6634 111.015 67.5197 111.044 67.376L111.128 66.9397L111.2 66.5037C111.227 66.3583 111.272 66.2199 111.306 66.0764C111.378 65.7929 111.435 65.5041 111.505 65.2203C111.597 64.9458 111.672 64.6658 111.753 64.3858C111.821 64.1023 111.927 63.8366 112.021 63.5656C112.067 63.4294 112.114 63.2947 112.161 63.1601C112.203 63.0236 112.245 62.8856 112.304 62.7581C112.416 62.4985 112.522 62.2364 112.622 61.972C112.711 61.7028 112.853 61.4678 112.961 61.2112C113.4 60.1899 113.942 59.2728 114.445 58.3883C114.714 57.9629 114.985 57.5536 115.237 57.1464C115.507 56.7817 115.768 56.4106 116.021 56.0336C116.286 55.6962 116.545 55.3821 116.772 55.0645C116.894 54.8958 116.982 54.7936 117.079 54.668C117.174 54.5496 117.26 54.4238 117.347 54.3089L117.593 53.9715C117.611 53.9446 117.63 53.9176 117.648 53.8907C117.681 53.8602 117.713 53.8297 117.743 53.7995C117.806 53.7401 117.867 53.6827 117.925 53.6269C118.16 53.4082 118.353 53.2142 118.513 53.0563C118.676 52.8949 118.835 52.731 118.993 52.5644C120.014 51.4538 120.57 49.8976 120.36 48.2844C119.981 45.3896 117.329 43.3508 114.434 43.7295C114.434 43.7295 114.195 43.7619 113.756 43.8355C113.486 43.8804 113.218 43.9301 112.95 43.9844C112.871 43.9987 112.788 44.0149 112.704 44.0311C112.663 44.0399 112.62 44.0487 112.575 44.0561C112.521 44.074 112.465 44.0921 112.41 44.1119C112.184 44.1891 111.945 44.2715 111.692 44.3597C111.439 44.451 111.168 44.5427 110.888 44.6521C110.613 44.7595 110.296 44.8763 110.036 44.995C109.483 45.2318 108.896 45.5154 108.257 45.817C107.642 46.1471 106.995 46.524 106.312 46.9315C105.655 47.3694 104.964 47.845 104.264 48.3726C102.902 49.4673 101.461 50.7504 100.161 52.3245C99.8774 52.6436 99.6084 52.9821 99.3441 53.3293C94.8292 38.6424 86.1481 30.0259 76.0957 23.3712C58.1064 11.4638 46.1235 12.7917 37.5757 19.4605C29.0261 26.1295 29.8949 42.5378 29.8949 42.5378L97.4157 56.1749L97.3871 56.2225C97.1055 56.6981 96.8093 57.1754 96.5705 57.6868C96.321 58.1931 96.0644 58.7026 95.8221 59.2249C95.5979 59.7524 95.3858 60.2926 95.1723 60.8364C95.0701 61.1111 94.9588 61.3839 94.8671 61.662C94.7791 61.942 94.6914 62.2236 94.6033 62.5055C94.5206 62.791 94.4362 63.0746 94.3519 63.3598C94.2694 63.6452 94.1796 63.9305 94.1222 64.2231C93.9876 64.8061 93.8708 65.3949 93.7488 65.9854C93.6197 66.5739 93.571 67.1754 93.4886 67.7749L93.3809 68.6758C93.3432 68.9773 93.3413 69.2789 93.3235 69.582L93.2858 70.4884L93.2699 70.9426L93.2608 71.1687L93.257 71.2836L93.2553 71.3393V71.3679C93.257 71.5204 93.2482 71.0682 93.2608 71.7161L93.3182 73.0764L93.3325 73.4155L93.3416 73.5842L93.3432 73.629L93.3504 73.6919L93.363 73.8191L93.4724 74.8368L93.5944 75.851L93.6628 76.3552C93.6878 76.5222 93.7202 76.6549 93.7488 76.8074C93.8708 77.3979 93.9873 77.9864 94.1222 78.5678C94.1796 78.8604 94.2694 79.1457 94.3519 79.433C94.4362 79.7183 94.5206 80.0021 94.6033 80.2854C94.6914 80.5689 94.7791 80.8489 94.8671 81.1308C94.9586 81.4089 95.0698 81.6817 95.1723 81.9545C95.3858 82.5 95.5976 83.0385 95.8221 83.5677C96.0644 84.0881 96.3208 84.5997 96.5705 85.1058C96.809 85.6174 97.1052 86.0928 97.3871 86.5703C97.6742 87.0421 97.9399 87.5196 98.2557 87.9592C98.8766 88.844 99.4814 89.7037 100.162 90.4683C101.461 92.0422 102.902 93.3253 104.264 94.42C104.964 94.9478 105.655 95.4234 106.312 95.8611C106.996 96.2686 107.642 96.6453 108.257 96.9758C108.896 97.2755 109.483 97.5608 110.036 97.7957C110.587 98.0345 111.116 98.2087 111.585 98.3702C111.82 98.4491 112.04 98.5227 112.25 98.5928C112.457 98.6664 112.665 98.704 112.85 98.7543C113.223 98.8511 113.542 98.923 113.801 98.9785C114.316 99.0915 114.591 99.1401 114.591 99.1401C115.974 99.3734 117.467 99.0434 118.65 98.0993C120.853 96.3403 121.214 93.1294 119.455 90.9256Z" fill="#00B1FF"/>
<path d="M104.849 67.8905C104.849 78.8505 81.6985 104.472 53.1386 104.472C32.7499 104.472 15.1175 96.1237 6.69713 83.9957C6.1031 83.1412 6.76171 81.9803 7.79918 82.0699C8.92435 82.1688 10.2938 82.2765 11.6074 82.3482C13.2746 82.4416 14.0267 80.2987 12.6699 79.3261C10.0783 77.4668 6.70095 75.1123 4.48636 73.8254C2.67923 72.7722 1.51618 70.8752 1.44446 68.7843C1.43486 68.4864 1.42994 68.1885 1.42969 67.8905C1.42969 47.6866 24.5804 31.3088 53.1384 31.3088C81.6985 31.3086 104.849 56.9307 104.849 67.8905Z" fill="#59CAFC"/>
<path d="M20.3413 55.1277C22.5218 55.1277 24.2912 56.8936 24.2912 59.0812V63.936C24.2912 66.1198 22.5218 67.8896 20.3413 67.8896C18.1572 67.8896 16.3877 66.1198 16.3877 63.936V59.0812C16.3877 56.8936 18.1572 55.1277 20.3413 55.1277Z" fill="#2B3B47"/>
<path d="M53.7167 89.167C52.5751 90.7697 51.1736 89.508 51.7461 87.6237C53.0724 83.2629 54.158 76.2727 54.158 68.396C54.158 60.5175 53.0724 53.5294 51.7461 49.1684C51.1736 47.2841 52.5751 46.0226 53.7167 47.6251C56.6597 51.7545 58.7809 59.511 58.7809 68.3963C58.7809 77.283 56.6597 85.0378 53.7167 89.167ZM67.5583 83.3591C69.6775 80.3837 71.2066 74.797 71.2066 68.3956C71.2066 61.9941 69.6775 56.4071 67.5583 53.4317C66.7343 52.2777 65.7256 53.1877 66.1386 54.5445C67.095 57.687 67.8756 62.7206 67.8756 68.3956C67.8756 74.0702 67.095 79.1058 66.1386 82.2483C65.7256 83.6053 66.7343 84.515 67.5583 83.3591Z" fill="#00B1FF"/>
</svg>
