<svg width="121" height="122" viewBox="0 0 121 122" fill="none" xmlns="http://www.w3.org/2000/svg">
<path d="M76.9762 76.9643C74.3898 76.9643 72.3177 76.3339 70.722 75.0783C68.7608 73.5406 68.0625 71.3878 68.0625 69.8959H75.625C75.625 69.4638 75.5418 69.1867 75.3704 69.0673C75.383 69.0775 76.6233 69.8425 81.007 68.7394C88.6023 66.823 95.7917 50.0734 95.7917 44.4792C95.7917 40.7557 95.1489 39.3374 94.6119 38.796C94.1582 38.3436 93.4044 38.1073 92.0407 38.1301C85.7663 38.1301 79.0483 42.5247 78.9802 42.5704L74.7856 36.229C75.1334 35.9951 83.3992 30.5051 92.0079 30.5051H92.1516C95.3959 30.5051 98.0226 31.4735 99.9359 33.3823C102.999 36.4425 103.354 41.1827 103.354 44.4792C103.354 52.122 95.1816 73.0221 82.8447 76.1306C80.649 76.6872 78.6979 76.9643 76.9762 76.9643Z" fill="#90CAF9"/>
<path d="M83.1877 58.4608C79.2955 30.322 83.1877 22.8825 83.1877 20.3409C83.1877 20.3409 80.6668 17.7916 63.021 20.3333C45.5516 22.8495 37.8127 12.7083 27.7293 12.7083C17.646 12.7083 17.646 17.7992 17.646 17.7992C25.2085 25.4217 29.4712 28.3853 25.2085 58.4608C20.1668 94.0365 37.8127 106.75 37.8127 106.75C40.5301 109.688 42.8543 109.292 42.8543 109.292H65.5418C65.5418 109.292 67.5106 109.688 70.5835 106.75C70.5835 106.75 88.1235 94.1407 83.1877 58.4608Z" fill="#90CAF9"/>
<path d="M39.7008 101.677H68.703C72.028 98.4488 81.9525 86.3251 78.1965 59.1623C77.4457 53.8694 76.9201 48.5465 76.621 43.2083H31.8308C31.6241 47.6206 31.0972 52.8412 30.1998 59.1801C26.3681 86.2133 36.3103 98.3904 39.7008 101.677Z" fill="#FAFAFA"/>
</svg>
