<svg width="82" height="82" viewBox="0 0 82 82" fill="none" xmlns="http://www.w3.org/2000/svg">
<path d="M56.0249 0.0720385C52.7541 -1.22452 45.4544 15.0423 19.4399 43.8772L43.8129 72.0339C50.8497 65.4625 70.0937 46.936 82.0004 30.0791C82.0004 30.0791 59.398 1.4093 56.0249 0.0720385ZM57.3662 9.67491C57.3662 10.7663 56.6029 11.6496 55.6595 11.6496C54.7162 11.6496 53.9503 10.765 53.9503 9.67491C53.9503 8.58486 54.716 7.70168 55.6595 7.70168C56.603 7.70168 57.3662 8.58504 57.3662 9.67491Z" fill="#CCD1D9"/>
<path d="M10.5852 81.8814C13.8972 83.0782 14.2651 74.8385 14.2651 74.8385L25.4861 61.8746L32.7507 59.2552L19.4351 43.8831C19.4351 43.8831 4.30276 61.2242 2.5285 63.274C0.753117 65.3237 -5.04887 76.2405 10.5852 81.8814Z" fill="#965353"/>
</svg>
