<svg width="25" height="25" viewBox="0 0 25 25" fill="none" xmlns="http://www.w3.org/2000/svg">
<path d="M21.3389 3.66118C18.9779 1.30024 15.8389 0 12.5 0C9.16113 0 6.02212 1.30024 3.66113 3.66118C1.30024 6.02212 0 9.16113 0 12.5C0 15.8389 1.30024 18.9779 3.66113 21.3388C6.02212 23.6998 9.16113 25 12.5 25C15.8389 25 18.9779 23.6998 21.3389 21.3388C23.6998 18.9779 25 15.8389 25 12.5C25 9.16113 23.6998 6.02212 21.3389 3.66118ZM12.5 23.5352C9.5291 23.5352 6.829 22.3546 4.84316 20.4385C5.91855 17.1527 9.00815 14.8926 12.5 14.8926C15.9918 14.8926 19.0814 17.1527 20.1569 20.4386C18.171 22.3546 15.4709 23.5352 12.5 23.5352ZM8.83789 9.76562C8.83789 7.74634 10.4807 6.10352 12.5 6.10352C14.5193 6.10352 16.1621 7.74634 16.1621 9.76562C16.1621 11.7849 14.5193 13.4277 12.5 13.4277C10.4807 13.4277 8.83789 11.7849 8.83789 9.76562ZM21.2568 19.2067C20.1792 16.6855 18.0633 14.7698 15.506 13.9162C16.7902 12.9836 17.627 11.4706 17.627 9.76562C17.627 6.93862 15.327 4.63867 12.5 4.63867C9.673 4.63867 7.37305 6.93862 7.37305 9.76562C7.37305 11.4706 8.20981 12.9836 9.49404 13.9162C6.93672 14.7698 4.8208 16.6855 3.74316 19.2067C2.31514 17.3466 1.46484 15.0209 1.46484 12.5C1.46484 6.41519 6.41519 1.46484 12.5 1.46484C18.5848 1.46484 23.5352 6.41519 23.5352 12.5C23.5352 15.0209 22.6849 17.3466 21.2568 19.2067Z" fill="black"/>
</svg>
