<svg width="25" height="25" viewBox="0 0 25 25" fill="none" xmlns="http://www.w3.org/2000/svg">
<path d="M22.6823 2.09603C22.0052 1.41895 21.0937 1.02832 20.0781 1.02832H16.5625V2.43457H20.0521C20.6771 2.43457 21.25 2.69499 21.6667 3.11165C22.0833 3.52832 22.3437 4.10124 22.3437 4.72624V8.4502H23.75V4.7002C23.75 3.68457 23.3333 2.77311 22.6823 2.09603Z" fill="black"/>
<path d="M3.33333 21.8618C2.91667 21.4451 2.65625 20.8722 2.65625 20.2472V16.5493H1.25V20.2733C1.25 21.2889 1.66667 22.2004 2.31771 22.8774C3.02083 23.5285 3.93229 23.9451 4.94792 23.9451H8.4375V22.5389H4.94792C4.32292 22.5389 3.75 22.2785 3.33333 21.8618Z" fill="black"/>
<path d="M22.3177 20.2733C22.3177 20.8983 22.0573 21.4712 21.6406 21.8879C21.224 22.3045 20.651 22.5649 20.026 22.5649H16.5625V23.9712H20.0521C21.0677 23.9712 21.9792 23.5545 22.6563 22.9035C23.3333 22.2264 23.724 21.3149 23.724 20.2993V16.5493H22.3177V20.2733Z" fill="black"/>
<path d="M2.34408 2.09603C1.66699 2.77311 1.27637 3.68457 1.27637 4.7002V8.42415H2.68262V4.7002C2.68262 4.0752 2.94303 3.50228 3.3597 3.08561C3.77637 2.66895 4.34928 2.40853 4.97428 2.40853H8.46387V1.02832H4.94824C3.93262 1.02832 3.02116 1.44499 2.34408 2.09603Z" fill="black"/>
<path d="M11.8835 17.469V13.814H8.22852V12.624H11.8835V8.96899H13.0735V12.624H16.7285V13.814H13.0735V17.469H11.8835Z" fill="black"/>
</svg>
