<svg width="34" height="34" viewBox="0 0 34 34" fill="none" xmlns="http://www.w3.org/2000/svg">
<path d="M15.5 11C15.5 10.1716 16.1715 9.5 17 9.5C17.8284 9.5 18.5 10.1716 18.5 11V15.5H23C23.8284 15.5 24.5 16.1715 24.5 17C24.5 17.8284 23.8284 18.5 23 18.5H18.5V23C18.5 23.8284 17.8284 24.5 17 24.5C16.1715 24.5 15.5 23.8284 15.5 23V18.5H11C10.1716 18.5 9.5 17.8284 9.5 17C9.5 16.1715 10.1716 15.5 11 15.5H15.5V11Z" fill="#BD4379"/>
<path fill-rule="evenodd" clip-rule="evenodd" d="M33.5 17C33.5 26.1127 26.1127 33.5 17 33.5C7.8873 33.5 0.5 26.1127 0.5 17C0.5 7.8873 7.8873 0.5 17 0.5C26.1127 0.5 33.5 7.8873 33.5 17ZM3.51025 17C3.51025 24.4502 9.54982 30.4898 17 30.4898C24.4502 30.4898 30.4898 24.4502 30.4898 17C30.4898 9.54982 24.4502 3.51025 17 3.51025C9.54982 3.51025 3.51025 9.54982 3.51025 17Z" fill="#BD4379"/>
</svg>
