<svg width="120" height="80" viewBox="0 0 120 80" fill="none" xmlns="http://www.w3.org/2000/svg">
<path d="M100.001 40.0008C100.001 62.0921 82.0898 80 59.9999 80C37.91 80 20.0005 62.0924 20.0005 40.0008C20.0005 17.9091 37.91 0.00146484 59.9999 0.00146484C82.0898 0.00146484 100.001 17.9093 100.001 40.0008Z" fill="#FFCE54"/>
<g opacity="0.2">
<path d="M59.9999 0.00146484C59.1613 0.00146484 58.3281 0.028887 57.5005 0.0802163C78.4276 1.37118 95.0023 18.7496 95.0023 40.0008C95.0023 61.2502 78.4276 78.6305 57.5005 79.9193C58.3281 79.9707 59.1613 80 59.9999 80C82.0898 80 100.001 62.0924 100.001 40.0008C100.001 17.9093 82.0898 0.00146484 59.9999 0.00146484Z" fill="white"/>
</g>
<path d="M7.50195 2.50073V77.4987C7.50195 78.8795 8.62065 79.9998 10.0014 79.9998C11.3821 79.9998 12.5008 78.8795 12.5008 77.4987V2.50073H7.50195Z" fill="#CCD1D9"/>
<path d="M105 15.7302V77.4988C105 78.8796 106.121 79.9999 107.501 79.9999C108.882 79.9999 110.002 78.8796 110.002 77.4988V15.7302H105Z" fill="#CCD1D9"/>
<path d="M20.0006 2.50084C20.0006 1.86168 19.7571 1.22089 19.2682 0.73197C18.2922 -0.24399 16.7102 -0.24399 15.7323 0.73197C15.2453 1.22089 14.9999 1.86168 15.0018 2.50271V15.0015H12.5007V2.50084C12.5007 1.86168 12.2572 1.22089 11.7682 0.733844C10.7923 -0.243991 9.21022 -0.243991 8.23238 0.733844C7.74534 1.22089 7.49994 1.86168 7.50182 2.50271V15.0015H5.00051V2.50084C5.00051 1.86168 4.75699 1.22089 4.2683 0.733844C3.29234 -0.243991 1.71027 -0.243991 0.732439 0.733844C0.245396 1.22089 0.00187504 1.86168 0.00187504 2.50084H0V15.0013H0.00187504V26.2513C0.00187504 26.2513 5.00051 30.0014 10.0013 30.0014C15.0018 30.0014 20.0006 26.2513 20.0006 26.2513V15.0013V2.50084Z" fill="#E6E9ED"/>
<path d="M85.0013 40.0007C85.0013 53.805 73.8059 65 60 65C46.1938 65 35.0005 53.805 35.0005 40.0007C35.0005 26.1945 46.1938 15.0012 60 15.0012C73.8059 15.0015 85.0013 26.1945 85.0013 40.0007Z" fill="#F6BB42"/>
<g opacity="0.1">
<path d="M59.9999 15.0015C59.1576 15.0015 58.3227 15.0437 57.5005 15.124C70.1366 16.3801 80.0024 27.0369 80.0024 40.0007C80.0024 52.9627 70.1366 63.6192 57.5005 64.8753C58.3227 64.9559 59.1576 64.9997 59.9999 64.9997C73.8059 64.9997 85.0013 53.8048 85.0013 40.0005C85.0013 26.1945 73.8059 15.0015 59.9999 15.0015Z" fill="black"/>
</g>
<path d="M120 50.0002H105V0.00146484C105 0.00146484 120 6.09535 120 25.001C120 43.9063 120 50.0002 120 50.0002Z" fill="#E6E9ED"/>
</svg>
