<svg width="122" height="122" viewBox="0 0 122 122" fill="none" xmlns="http://www.w3.org/2000/svg">
<path d="M88.9583 27.9583C91.5 27.9583 106.75 25.4166 106.75 48.2916C106.75 71.1666 73.7083 111.833 27.9583 111.833C22.875 111.833 17.7917 109.292 17.7917 109.292L15.25 101.667C15.25 101.667 17.7917 91.5 33.0417 83.875C48.2917 76.25 59.1268 69.8602 65.608 63.3815C70.6914 58.3007 78.7917 48.2916 78.7917 40.6666C78.7917 35.69 83.875 30.5 83.875 30.5" fill="#FFE082"/>
<path d="M20.3332 104.208C20.3332 104.208 38.1248 99.125 53.3748 91.5C68.6248 83.875 101.667 61 91.4998 27.9583C91.4998 27.9583 106.75 25.4166 106.75 48.2916C106.75 71.1666 73.7082 111.833 27.9582 111.833C22.8748 111.833 17.7915 109.292 17.7915 109.292L20.3332 104.208Z" fill="#FFCA28"/>
<path d="M104.368 35.4258C99.6028 25.2058 88.9583 30.5001 88.9583 10.1667C81.3333 10.1667 76.25 15.2501 76.25 15.2501C76.25 15.2501 83.875 22.8751 83.875 30.5001C88.9583 30.5001 93.0555 30.101 93.5105 42.573C96.9468 28.0118 104.368 35.4258 104.368 35.4258Z" fill="#C0CA33"/>
<path d="M78.7915 40.6666C78.7915 40.6666 78.6314 36.0585 83.8749 30.4999C89.1183 24.9413 94.1203 29.468 94.1203 29.468L93.5103 42.5728C93.5103 42.5728 91.2864 34.3124 87.7916 34.1014C80.4208 33.6566 78.7915 40.6666 78.7915 40.6666Z" fill="#C0CA33"/>
<path d="M15.25 104.208L17.7917 109.292H20.3333V104.208L15.25 101.667V104.208Z" fill="#5D4037"/>
<path d="M88.9583 10.1667C81.3333 10.1667 76.25 15.2501 76.25 15.2501H83.875L88.9583 10.1667Z" fill="#827717"/>
</svg>
