<svg width="25" height="25" viewBox="0 0 25 25" fill="none" xmlns="http://www.w3.org/2000/svg">
<path d="M18.3535 10.021H12.8848C12.4577 10.021 12.1035 9.66683 12.1035 9.23975C12.1035 8.81266 12.4577 8.4585 12.8848 8.4585H18.3535C18.7806 8.4585 19.1348 8.81266 19.1348 9.23975C19.1348 9.66683 18.791 10.021 18.3535 10.021Z" fill="black"/>
<path d="M7.41634 10.8126C7.21842 10.8126 7.02051 10.7397 6.86426 10.5834L6.08301 9.80217C5.78092 9.50008 5.78092 9.00008 6.08301 8.698C6.38509 8.39591 6.88509 8.39591 7.18717 8.698L7.41634 8.92716L9.20801 7.1355C9.51009 6.83341 10.0101 6.83341 10.3122 7.1355C10.6143 7.43758 10.6143 7.93758 10.3122 8.23966L7.96842 10.5834C7.82259 10.7293 7.62467 10.8126 7.41634 10.8126Z" fill="black"/>
<path d="M18.3535 17.3125H12.8848C12.4577 17.3125 12.1035 16.9583 12.1035 16.5312C12.1035 16.1042 12.4577 15.75 12.8848 15.75H18.3535C18.7806 15.75 19.1348 16.1042 19.1348 16.5312C19.1348 16.9583 18.791 17.3125 18.3535 17.3125Z" fill="black"/>
<path d="M7.41634 18.1041C7.21842 18.1041 7.02051 18.0312 6.86426 17.8749L6.08301 17.0937C5.78092 16.7916 5.78092 16.2916 6.08301 15.9895C6.38509 15.6874 6.88509 15.6874 7.18717 15.9895L7.41634 16.2187L9.20801 14.427C9.51009 14.1249 10.0101 14.1249 10.3122 14.427C10.6143 14.7291 10.6143 15.2291 10.3122 15.5312L7.96842 17.8749C7.82259 18.0208 7.62467 18.1041 7.41634 18.1041Z" fill="black"/>
<path d="M15.6247 23.6978H9.37468C3.71842 23.6978 1.30176 21.2812 1.30176 15.6249V9.37492C1.30176 3.71867 3.71842 1.302 9.37468 1.302H15.6247C21.2809 1.302 23.6976 3.71867 23.6976 9.37492V15.6249C23.6976 21.2812 21.2809 23.6978 15.6247 23.6978ZM9.37468 2.8645C4.57259 2.8645 2.86426 4.57284 2.86426 9.37492V15.6249C2.86426 20.427 4.57259 22.1353 9.37468 22.1353H15.6247C20.4268 22.1353 22.1351 20.427 22.1351 15.6249V9.37492C22.1351 4.57284 20.4268 2.8645 15.6247 2.8645H9.37468Z" fill="black"/>
</svg>
