<svg width="274" height="158" viewBox="0 0 274 158" fill="none" xmlns="http://www.w3.org/2000/svg">
<path d="M273.087 158V151.295C273.087 145.96 270.962 140.843 267.179 137.071C263.397 133.298 258.267 131.179 252.919 131.179H199.137C193.788 131.179 188.659 133.298 184.876 137.071C181.094 140.843 178.969 145.96 178.969 151.295V158H273.087Z" fill="#E1E8ED"/>
<path d="M226.028 158L242.852 131.179H209.204L226.028 158Z" fill="#226699"/>
<path d="M211.154 131.107C211.154 137.705 240.414 137.705 240.414 131.107V118.5H211.154V131.107Z" fill="#7C533E"/>
<path d="M211.158 124.188C215.234 128.922 220.289 130.204 225.787 130.204C231.282 130.204 236.334 128.919 240.414 124.188V112.161H211.154L211.158 124.188Z" fill="#664131"/>
<path d="M229.79 60.0659C223.354 57.9605 234.618 47.562 230.833 52.5365C220.99 52.7292 205.25 63.2087 198.062 72.7116C190.316 82.9513 191.964 89.3823 193.151 98.2127C194.498 108.216 200.061 111.416 204.508 112.754C210.907 121.301 217.711 120.936 229.135 120.936C251.441 120.936 260.027 104.333 258.837 83.4041C257.944 73.3301 245.972 65.358 229.79 60.0659Z" fill="#0B0200"/>
<path d="M251.528 81.3132C249.345 78.2979 246.554 75.8695 240.43 75.0128C242.728 76.0617 246.26 80.8376 246.547 82.8411C246.834 84.8479 246.824 88.7435 245.243 86.5478C238.318 76.9319 228.758 78.4497 220.897 73.5422C215.409 70.1155 213.736 66.321 213.736 66.321C213.736 66.321 213.067 71.3803 204.743 76.5373C202.33 78.0314 199.451 81.3604 197.856 86.278C196.707 89.8127 197.065 92.9629 197.065 98.3459C197.065 114.063 210.046 127.278 226.054 127.278C242.063 127.278 255.043 113.945 255.043 98.3459C255.04 88.5715 254.016 84.7501 251.528 81.3132Z" fill="#7C533E"/>
<path d="M229.034 106.308H222.534C222.102 106.308 221.689 106.154 221.384 105.88C221.079 105.606 220.907 105.234 220.907 104.846C220.907 104.458 221.079 104.085 221.384 103.811C221.689 103.537 222.102 103.383 222.534 103.383H229.034C229.465 103.383 229.879 103.537 230.184 103.811C230.489 104.085 230.66 104.458 230.66 104.846C230.66 105.234 230.489 105.606 230.184 105.88C229.879 106.154 229.465 106.308 229.034 106.308Z" fill="#3D2E24"/>
<path d="M212.909 95.0924C212.056 95.0924 211.237 94.7499 210.634 94.1402C210.03 93.5305 209.691 92.7036 209.691 91.8414V88.5904C209.691 87.7282 210.03 86.9012 210.634 86.2916C211.237 85.6819 212.056 85.3394 212.909 85.3394C213.763 85.3394 214.581 85.6819 215.185 86.2916C215.788 86.9012 216.127 87.7282 216.127 88.5904V91.8414C216.128 92.2685 216.045 92.6914 215.883 93.0861C215.721 93.4807 215.484 93.8393 215.186 94.1412C214.887 94.4432 214.532 94.6827 214.141 94.8459C213.751 95.0091 213.332 95.0929 212.909 95.0924ZM238.659 95.0924C237.805 95.0924 236.987 94.7499 236.383 94.1402C235.78 93.5305 235.441 92.7036 235.441 91.8414V88.5904C235.441 87.7282 235.78 86.9012 236.383 86.2916C236.987 85.6819 237.805 85.3394 238.659 85.3394C239.512 85.3394 240.331 85.6819 240.934 86.2916C241.538 86.9012 241.877 87.7282 241.877 88.5904V91.8414C241.877 92.7036 241.538 93.5305 240.934 94.1402C240.331 94.7499 239.512 95.0924 238.659 95.0924Z" fill="black"/>
<path d="M226.28 119.963C217.083 119.963 214.257 117.539 213.786 117.048C213.578 116.844 213.411 116.6 213.294 116.33C213.177 116.06 213.113 115.769 213.106 115.473C213.091 114.876 213.307 114.297 213.706 113.864C214.106 113.431 214.656 113.179 215.236 113.164C215.816 113.148 216.378 113.371 216.799 113.782C216.972 113.909 219.207 115.456 226.28 115.456C233.627 115.456 235.751 113.789 235.771 113.771C235.973 113.566 236.213 113.403 236.476 113.294C236.74 113.185 237.022 113.131 237.306 113.136C237.59 113.141 237.871 113.204 238.131 113.322C238.391 113.44 238.625 113.61 238.82 113.823C239.225 114.259 239.447 114.842 239.438 115.445C239.429 116.048 239.191 116.624 238.774 117.048C238.299 117.539 235.477 119.963 226.28 119.963Z" fill="#3D2E24"/>
<path d="M256.994 77.0494C256.994 77.0494 248.147 80.4629 226.028 80.4629C203.908 80.4629 195.062 77.0494 195.062 77.0494V56.5679H256.99L256.994 77.0494Z" fill="#CCD6DD"/>
<path d="M205.755 74.6654C205.755 75.1108 205.577 75.5381 205.26 75.8531C204.944 76.1681 204.514 76.3451 204.066 76.3451C203.618 76.3451 203.188 76.1681 202.871 75.8531C202.554 75.5381 202.376 75.1108 202.376 74.6654V64.5872C202.376 64.1417 202.554 63.7144 202.871 63.3994C203.188 63.0844 203.618 62.9075 204.066 62.9075C204.514 62.9075 204.944 63.0844 205.26 63.3994C205.577 63.7144 205.755 64.1417 205.755 64.5872V74.6654ZM249.679 74.6654C249.679 75.1108 249.501 75.5381 249.184 75.8531C248.867 76.1681 248.438 76.3451 247.99 76.3451C247.542 76.3451 247.112 76.1681 246.795 75.8531C246.478 75.5381 246.3 75.1108 246.3 74.6654V64.5872C246.3 64.1417 246.478 63.7144 246.795 63.3994C247.112 63.0844 247.542 62.9075 247.99 62.9075C248.438 62.9075 248.867 63.0844 249.184 63.3994C249.501 63.7144 249.679 64.1417 249.679 64.5872V74.6654ZM215.891 76.0091C215.891 76.4546 215.713 76.8818 215.397 77.1968C215.08 77.5118 214.65 77.6888 214.202 77.6888C213.754 77.6888 213.324 77.5118 213.008 77.1968C212.691 76.8818 212.513 76.4546 212.513 76.0091V65.9309C212.513 65.4854 212.691 65.0582 213.008 64.7432C213.324 64.4282 213.754 64.2512 214.202 64.2512C214.65 64.2512 215.08 64.4282 215.397 64.7432C215.713 65.0582 215.891 65.4854 215.891 65.9309V76.0091ZM227.717 76.3451C227.717 76.7905 227.539 77.2178 227.222 77.5328C226.905 77.8478 226.476 78.0248 226.028 78.0248C225.58 78.0248 225.15 77.8478 224.833 77.5328C224.516 77.2178 224.338 76.7905 224.338 76.3451V66.2669C224.338 65.8214 224.516 65.3941 224.833 65.0791C225.15 64.7641 225.58 64.5872 226.028 64.5872C226.476 64.5872 226.905 64.7641 227.222 65.0791C227.539 65.3941 227.717 65.8214 227.717 66.2669V76.3451ZM239.543 76.0091C239.543 76.4546 239.365 76.8818 239.048 77.1968C238.731 77.5118 238.301 77.6888 237.853 77.6888C237.405 77.6888 236.976 77.5118 236.659 77.1968C236.342 76.8818 236.164 76.4546 236.164 76.0091V65.9309C236.164 65.4854 236.342 65.0582 236.659 64.7432C236.976 64.4282 237.405 64.2512 237.853 64.2512C238.301 64.2512 238.731 64.4282 239.048 64.7432C239.365 65.0582 239.543 65.4854 239.543 65.9309V76.0091Z" fill="#99AAB5"/>
<path d="M247.119 36.5767C243.214 36.5767 239.57 37.6604 236.432 39.5198C233.245 37.6213 229.615 36.605 225.909 36.5747C222.204 36.5443 218.557 37.501 215.341 39.3471C212.172 37.5305 208.586 36.5756 204.937 36.5767C193.288 36.5767 183.846 46.053 183.846 57.7444C183.846 69.4358 221.958 68.7517 225.744 68.7517C229.649 68.7517 268.21 69.4358 268.21 57.7444C268.21 46.053 258.764 36.5767 247.119 36.5767Z" fill="#E1E8ED"/>
<path d="M185.309 119.905C185.309 131.486 178.54 137.519 170.192 137.519C161.843 137.519 155.074 131.486 155.074 119.905C155.074 108.323 161.843 95.5803 170.192 95.5803C178.54 95.5803 185.309 108.323 185.309 119.905Z" fill="#99AAB5"/>
<path d="M185.309 119.905C185.309 131.486 178.54 137.519 170.192 137.519C161.843 137.519 155.074 131.486 155.074 119.905C155.074 108.323 161.843 95.5803 170.192 95.5803C178.54 95.5803 185.309 108.323 185.309 119.905Z" fill="#C1694F"/>
<path d="M173.895 115.218C169.81 109.088 178.867 106.796 178.867 106.796L178.876 106.806C177.302 108.739 176.586 110.427 177.512 112.097C178.666 114.181 182.102 114.483 182.102 114.483C182.102 114.483 177.426 118.595 173.895 115.218Z" fill="url(#paint0_radial_5156_1574)"/>
<path d="M179.847 81.7178C179.856 85.5346 189.94 92.7827 180.518 104.609C180.024 105.23 177.713 107.439 177.191 109.234C177.191 109.234 168.3 96.7218 165.644 89.3702C165.113 87.8848 164.619 86.3619 164.553 84.7825C164.507 83.598 164.684 82.1878 165.364 81.1819C166.194 79.9504 179.381 80.6742 179.381 80.6742C179.372 80.693 179.847 81.7178 179.847 81.7178Z" fill="url(#paint1_radial_5156_1574)"/>
<path d="M108.468 81.4671C107.504 85.3187 99.2567 94.6061 108.201 104.567C108.735 105.165 111.074 107.423 111.608 109.235C111.608 109.235 120.714 96.6078 123.435 89.1892C123.988 87.6903 124.485 86.1535 124.551 84.5597C124.599 83.3644 124.418 81.9414 123.721 80.9263C122.872 79.6836 121.879 80.0156 120.437 80.0156C117.688 80.0156 110.138 80.4141 109.203 80.4141C109.203 80.433 108.468 81.4671 108.468 81.4671Z" fill="url(#paint2_radial_5156_1574)"/>
<path d="M194.159 87.0577C184.434 86.2797 175.914 93.5285 175.136 103.254C174.424 112.059 180.316 119.858 188.656 121.831L187.47 131.111C187.48 131.111 194.178 131.87 194.264 131.889L195.032 122.182C203.135 121.129 209.682 114.545 210.355 106.081C211.133 96.356 203.885 87.8357 194.159 87.0577Z" fill="url(#paint3_linear_5156_1574)"/>
<path d="M192.916 120.247C200.933 120.247 207.433 113.748 207.433 105.73C207.433 97.713 200.933 91.2136 192.916 91.2136C184.899 91.2136 178.399 97.713 178.399 105.73C178.399 113.748 184.899 120.247 192.916 120.247Z" fill="url(#paint4_linear_5156_1574)"/>
<path d="M203.201 104.487C205.194 111.575 200.08 118.966 193.324 114.516C186.569 110.066 180.601 111.186 182.745 104.838C184.889 98.4907 186.578 92.9117 191.559 94.0408C196.55 95.1604 201.209 97.3996 203.201 104.487Z" fill="white"/>
<path d="M192.726 109.213C195.43 109.213 197.622 107.021 197.622 104.317C197.622 101.613 195.43 99.4209 192.726 99.4209C190.023 99.4209 187.831 101.613 187.831 104.317C187.831 107.021 190.023 109.213 192.726 109.213Z" fill="url(#paint5_linear_5156_1574)"/>
<path d="M203.201 104.487C204.141 107.258 204.055 110.512 202.48 113.169C201.712 114.488 200.459 115.607 198.922 116.072C197.385 116.547 195.725 116.262 194.321 115.626C192.926 114.877 191.806 114.08 190.497 113.425C189.216 112.751 187.869 112.211 186.531 111.613C185.212 111.006 183.751 110.446 182.745 109.203C182.299 108.548 182.128 107.751 182.185 107.002C182.223 106.632 182.299 106.262 182.375 105.901L182.745 104.857L182.517 105.929C182.48 106.29 182.432 106.651 182.432 107.011C182.451 107.723 182.679 108.406 183.106 108.928C184.036 109.943 185.449 110.436 186.806 110.949C188.182 111.452 189.558 111.992 190.905 112.638C192.233 113.273 193.533 114.165 194.729 114.782C195.981 115.361 197.376 115.598 198.676 115.228C199.975 114.886 201.086 113.947 201.873 112.799C202.661 111.641 203.135 110.256 203.334 108.833C203.552 107.4 203.477 105.929 203.201 104.487Z" fill="#F7CB4D"/>
<path d="M187.147 132.6C187.147 132.249 188.656 121.831 188.656 121.831L188.855 121.727C189.76 121.273 190.765 121.054 191.777 121.092C192.789 121.131 193.775 121.424 194.643 121.945L195.023 122.173L194.254 133.426L187.147 132.6Z" fill="#757575"/>
<path d="M185.013 133.35C183.96 133.511 182.935 133.767 181.977 134.194C180.591 134.802 174.007 132.8 173.532 139.157C173.475 140.912 173.257 146.453 174.718 149.185C177.773 154.888 189.482 153.607 190.364 153.759C195.933 154.679 193.618 136.728 190.497 134.412C190.108 134.156 189.472 133.824 188.912 133.511C187.821 132.913 186.104 133.189 185.013 133.35Z" fill="url(#paint6_radial_5156_1574)"/>
<path d="M192.669 149.963L186.369 149.764C185.994 149.736 185.621 149.848 185.322 150.077C185.023 150.306 184.818 150.637 184.747 151.007C184.576 151.823 185.174 152.601 186.037 152.772L192.261 153.759C193.258 153.939 194.216 153.294 194.33 152.326L194.387 151.833C194.482 150.846 193.704 149.992 192.669 149.963Z" fill="url(#paint7_radial_5156_1574)"/>
<path d="M184.642 136.044C184.481 136.044 175.107 143.768 175.107 143.768C175.107 143.768 175.316 147.544 178.94 150.628C179.965 151.491 182.916 152.724 184.301 152.772C193.77 153.123 192.603 136.007 184.642 136.044Z" fill="url(#paint8_radial_5156_1574)"/>
<path d="M173.494 143.341C173.494 143.341 174.794 144.366 176.73 145.153C182.612 147.554 183.409 140.333 183.552 139.214C184.32 133.473 189.396 134.802 193.704 134.564C194.596 134.517 197.66 134.081 198.514 132.069C199.416 128.72 195.971 128.729 188.713 128.217C186.74 128.075 184.766 128.094 182.802 128.35C173.428 129.555 173.21 139.024 173.494 143.341Z" fill="url(#paint9_radial_5156_1574)"/>
<path d="M194.728 139.764L185.715 140.437C184.5 140.513 184.472 141.434 184.396 142.582C184.292 143.825 184.434 144.897 185.753 144.992L194.804 145.514C196.332 145.608 197.641 144.46 197.641 142.99V142.24C197.603 140.751 196.285 139.612 194.728 139.764Z" fill="url(#paint10_radial_5156_1574)"/>
<path d="M194.662 134.45L186.919 135.456C185.762 135.589 184.936 136.519 184.918 137.619C184.88 138.815 185.923 139.783 187.185 139.811L195.013 139.953C196.474 139.972 197.679 138.805 197.603 137.401L197.565 136.69C197.461 135.257 196.142 134.223 194.662 134.45Z" fill="url(#paint11_radial_5156_1574)"/>
<path d="M193.855 145.219L186.711 145.542C185.648 145.571 184.813 146.349 184.709 147.345C184.576 148.426 185.449 149.404 186.597 149.527L193.722 150.248C195.051 150.381 196.246 149.413 196.284 148.132L196.303 147.478C196.332 146.178 195.221 145.134 193.855 145.219Z" fill="url(#paint12_radial_5156_1574)"/>
<path d="M195.07 145.523C195.184 144.508 186.996 145.466 185.999 144.622C184.861 143.654 185.003 141.785 186.417 141.168C188.011 140.466 195.744 140.267 195.734 139.83C195.734 139.024 185.307 140.969 185.601 137.677C185.8 135.447 187.954 135.466 189.548 135.2C190.497 135.039 194.662 134.764 194.662 134.47C194.662 134.175 193.637 134.261 193.524 134.251C192.764 134.175 187.878 134.403 186.597 134.792C184.918 135.305 183.552 136.794 184.026 138.692C184.102 139.014 184.244 139.299 184.415 139.574C184.747 140.086 183.998 141.481 183.903 142.202C183.665 144.062 184.681 145.058 184.662 145.732C184.652 146.244 184.149 146.605 184.007 147.392C183.855 148.265 184.586 149.252 184.406 150.286C184.339 150.637 184.311 150.922 184.377 151.282C184.481 151.823 184.757 152.298 185.146 152.687C186.047 153.597 187.29 153.711 188.504 153.778C189.32 153.825 192.67 154.024 193.429 153.597C191.635 153.559 186.199 153.427 185.468 151.377C185.421 149.983 186.91 150.4 187.84 150.495C188.893 150.599 190.867 150.647 191.93 150.552C192.224 150.523 193.457 150.39 193.457 150.172C193.457 149.84 190.535 149.945 190.174 149.926C188.865 149.869 186.104 150.058 185.516 148.493C185.297 147.924 185.392 147.212 185.781 146.728C186.711 145.542 195.004 146.045 195.07 145.523Z" fill="#EDBD82"/>
<path d="M118.5 157.512V150.807C118.5 145.472 116.364 140.356 112.562 136.583C108.76 132.811 103.604 130.691 98.2275 130.691H44.1675C38.7909 130.691 33.6345 132.811 29.8327 136.583C26.0309 140.356 23.895 145.472 23.895 150.807V157.512H118.5Z" fill="#E1E8ED"/>
<path d="M70.9535 157.512L87.7775 130.691H54.1294L70.9535 157.512Z" fill="#226699"/>
<path d="M56.5679 130.62C56.5679 137.217 85.8271 137.217 85.8271 130.62V118.012H56.5679V130.62Z" fill="#F3D2A2"/>
<path d="M56.5712 123.863C60.6477 128.469 65.703 129.716 71.2009 129.716C76.6953 129.716 81.7473 128.466 85.8271 123.863V112.161H56.5679L56.5712 123.863Z" fill="#E2C196"/>
<path d="M74.9906 60.0039C68.5078 57.9132 79.8536 47.5875 76.0413 52.5272C66.1268 52.7185 50.2717 63.1248 43.0311 72.5612C35.2281 82.7293 36.8884 89.1153 38.0839 97.884C39.4411 107.817 45.045 110.995 49.524 112.324C55.9698 120.811 62.8231 120.448 74.3305 120.448C96.7999 120.448 105.448 103.961 104.249 83.1789C103.35 73.1753 91.2903 65.259 74.9906 60.0039Z" fill="#FFE51E"/>
<path d="M96.4547 81.1932C94.2716 78.2021 91.4801 75.7931 85.3566 74.9432C87.6546 75.9838 91.1861 80.7215 91.4734 82.7089C91.7606 84.6997 91.7505 88.5641 90.1689 86.386C83.2444 76.847 73.6839 78.3526 65.8233 73.4845C60.335 70.0851 58.6622 66.321 58.6622 66.321C58.6622 66.321 57.9931 71.3398 49.6694 76.4556C47.2565 77.9378 44.3772 81.2401 42.7821 86.1183C41.6331 89.6247 41.9913 92.7497 41.9913 98.0897C41.9913 113.681 54.9718 126.79 70.9803 126.79C86.9888 126.79 99.9693 113.564 99.9693 98.0897C99.966 88.3935 98.942 84.6026 96.4547 81.1932Z" fill="#F3D2A2"/>
<path d="M74.4477 105.821H67.9479C67.5165 105.821 67.1028 105.667 66.7977 105.392C66.4927 105.118 66.3213 104.746 66.3213 104.358C66.3213 103.97 66.4927 103.598 66.7977 103.324C67.1028 103.049 67.5165 102.895 67.9479 102.895H74.4477C74.8791 102.895 75.2929 103.049 75.5979 103.324C75.903 103.598 76.0744 103.97 76.0744 104.358C76.0744 104.746 75.903 105.118 75.5979 105.392C75.2929 105.667 74.8791 105.821 74.4477 105.821Z" fill="#C1694F"/>
<path d="M58.3228 94.6048C57.4694 94.6048 56.6509 94.2794 56.0475 93.7002C55.444 93.121 55.105 92.3354 55.105 91.5163V88.4278C55.105 87.6087 55.444 86.8231 56.0475 86.2439C56.6509 85.6647 57.4694 85.3394 58.3228 85.3394C59.1762 85.3394 59.9947 85.6647 60.5982 86.2439C61.2016 86.8231 61.5407 87.6087 61.5407 88.4278V91.5163C61.5411 91.922 61.4582 92.3238 61.2966 92.6987C61.1351 93.0736 60.8981 93.4143 60.5992 93.7011C60.3003 93.988 59.9454 94.2155 59.5548 94.3706C59.1642 94.5256 58.7455 94.6052 58.3228 94.6048ZM84.0723 94.6048C83.2189 94.6048 82.4004 94.2794 81.797 93.7002C81.1935 93.121 80.8545 92.3354 80.8545 91.5163V88.4278C80.8545 87.6087 81.1935 86.8232 81.797 86.2439C82.4004 85.6647 83.2189 85.3394 84.0723 85.3394C84.9257 85.3394 85.7442 85.6647 86.3477 86.2439C86.9511 86.8232 87.2902 87.6087 87.2902 88.4278V91.5163C87.2902 92.3354 86.9511 93.121 86.3477 93.7002C85.7442 94.2794 84.9257 94.6048 84.0723 94.6048Z" fill="#662113"/>
<path d="M71.4497 119.475C62.082 119.475 59.2043 117.052 58.7247 116.56C58.5125 116.357 58.3421 116.113 58.2231 115.842C58.1042 115.572 58.0391 115.281 58.0315 114.986C58.0162 114.389 58.2362 113.81 58.643 113.377C59.0499 112.944 59.6103 112.692 60.201 112.676C60.7917 112.661 61.3643 112.883 61.7928 113.294C61.9697 113.421 64.2453 114.968 71.4497 114.968C78.933 114.968 81.0964 113.301 81.1168 113.284C81.3223 113.078 81.5665 112.916 81.835 112.807C82.1036 112.697 82.391 112.644 82.6803 112.648C82.9697 112.653 83.2552 112.717 83.52 112.835C83.7848 112.953 84.0236 113.123 84.2224 113.335C84.6345 113.772 84.8604 114.354 84.8515 114.958C84.8426 115.561 84.5995 116.136 84.1747 116.56C83.6917 117.052 80.8175 119.475 71.4497 119.475Z" fill="#C1694F"/>
<path d="M101.92 76.6314C101.92 76.6314 93.0734 79.9753 70.9538 79.9753C48.8343 79.9753 39.9878 76.6314 39.9878 76.6314V56.5679H101.917L101.92 76.6314Z" fill="#CCD6DD"/>
<path d="M50.6815 74.1776C50.6815 74.623 50.5035 75.0503 50.1867 75.3653C49.8699 75.6803 49.4402 75.8573 48.9921 75.8573C48.5441 75.8573 48.1144 75.6803 47.7975 75.3653C47.4807 75.0503 47.3027 74.623 47.3027 74.1776V64.0994C47.3027 63.6539 47.4807 63.2267 47.7975 62.9117C48.1144 62.5966 48.5441 62.4197 48.9921 62.4197C49.4402 62.4197 49.8699 62.5966 50.1867 62.9117C50.5035 63.2267 50.6815 63.6539 50.6815 64.0994V74.1776ZM94.6052 74.1776C94.6052 74.623 94.4272 75.0503 94.1104 75.3653C93.7936 75.6803 93.3639 75.8573 92.9158 75.8573C92.4678 75.8573 92.0381 75.6803 91.7213 75.3653C91.4044 75.0503 91.2265 74.623 91.2265 74.1776V64.0994C91.2265 63.6539 91.4044 63.2267 91.7213 62.9117C92.0381 62.5966 92.4678 62.4197 92.9158 62.4197C93.3639 62.4197 93.7936 62.5966 94.1104 62.9117C94.4272 63.2267 94.6052 63.6539 94.6052 64.0994V74.1776ZM60.8177 75.5213C60.8177 75.9668 60.6397 76.394 60.3229 76.7091C60.0061 77.0241 59.5764 77.201 59.1284 77.201C58.6803 77.201 58.2506 77.0241 57.9338 76.7091C57.617 76.394 57.439 75.9668 57.439 75.5213V65.4431C57.439 64.9976 57.617 64.5704 57.9338 64.2554C58.2506 63.9404 58.6803 63.7634 59.1284 63.7634C59.5764 63.7634 60.0061 63.9404 60.3229 64.2554C60.6397 64.5704 60.8177 64.9976 60.8177 65.4431V75.5213ZM72.6433 75.8573C72.6433 76.3027 72.4654 76.73 72.1485 77.045C71.8317 77.36 71.402 77.537 70.954 77.537C70.5059 77.537 70.0762 77.36 69.7594 77.045C69.4426 76.73 69.2646 76.3027 69.2646 75.8573V65.7791C69.2646 65.3336 69.4426 64.9064 69.7594 64.5913C70.0762 64.2763 70.5059 64.0994 70.954 64.0994C71.402 64.0994 71.8317 64.2763 72.1485 64.5913C72.4654 64.9064 72.6433 65.3336 72.6433 65.7791V75.8573ZM84.469 75.5213C84.469 75.9668 84.291 76.394 83.9742 76.7091C83.6573 77.0241 83.2276 77.201 82.7796 77.201C82.3315 77.201 81.9018 77.0241 81.585 76.7091C81.2682 76.394 81.0902 75.9668 81.0902 75.5213V65.4431C81.0902 64.9976 81.2682 64.5704 81.585 64.2554C81.9018 63.9404 82.3315 63.7634 82.7796 63.7634C83.2276 63.7634 83.6573 63.9404 83.9742 64.2554C84.291 64.5704 84.469 64.9976 84.469 65.4431V75.5213Z" fill="#99AAB5"/>
<path d="M92.0446 36.5766C88.1403 36.5766 84.4957 37.644 81.3574 39.4752C78.1712 37.6054 74.5403 36.6045 70.8351 36.5747C67.1299 36.5448 63.4829 37.487 60.2663 39.3051C57.0978 37.516 53.5116 36.5756 49.8625 36.5766C38.2135 36.5766 28.7715 45.9094 28.7715 57.4237C28.7715 68.9379 66.8839 68.2641 70.6701 68.2641C74.5745 68.2641 113.136 68.9379 113.136 57.4237C113.136 45.9094 103.69 36.5766 92.0446 36.5766Z" fill="#E1E8ED"/>
<path d="M30.7222 119.7C30.7222 131.416 23.8439 137.518 15.3611 137.518C6.87836 137.518 0 131.416 0 119.7C0 107.983 6.87836 95.0925 15.3611 95.0925C23.8439 95.0925 30.7222 107.983 30.7222 119.7Z" fill="#99AAB5"/>
<path d="M12.1914 130.691H19.0186V157.512H12.1914V130.691Z" fill="#99AAB5"/>
<path d="M30.7222 119.7C30.7222 131.416 23.8439 137.518 15.3611 137.518C6.87836 137.518 0 131.416 0 119.7C0 107.983 6.87836 95.0925 15.3611 95.0925C23.8439 95.0925 30.7222 107.983 30.7222 119.7Z" fill="#C1694F"/>
<path d="M12.1914 130.691H19.0186V157.512H12.1914V130.691Z" fill="#C1694F"/>
<path d="M47.1738 51.624C47.3907 51.6706 47.6147 51.6745 47.8331 51.6354C48.0515 51.5963 48.2599 51.515 48.4464 51.3962C48.633 51.2773 48.7939 51.1233 48.9201 50.9429C49.0462 50.7625 49.1351 50.5592 49.1816 50.3448C49.2864 49.8605 50.3106 45.5319 53.64 42.9567C56.2089 40.9695 59.5518 39.6602 60.4239 39.3362C59.0664 38.5861 57.6289 37.9868 56.1379 37.5493C54.7081 38.2507 53.0485 39.1725 51.5579 40.3282C47.38 43.5579 46.0922 48.6514 45.8759 49.6401C45.7835 50.0731 45.8681 50.5246 46.1112 50.8963C46.3543 51.2679 46.7363 51.5295 47.1738 51.624ZM88.2659 42.9868C91.5987 45.5653 92.6229 49.8872 92.7243 50.3715C92.8184 50.8047 93.0829 51.1832 93.4594 51.4237C93.6458 51.5428 93.8542 51.6244 94.0726 51.6639C94.2909 51.7035 94.5151 51.7001 94.7321 51.6541C94.9492 51.608 95.1549 51.5202 95.3376 51.3955C95.5203 51.2709 95.6764 51.1119 95.7969 50.9277C95.9174 50.7435 96.0001 50.5376 96.0401 50.3218C96.0801 50.106 96.0767 49.8846 96.0301 49.6701C95.8137 48.6815 94.5327 43.5913 90.3481 40.3549C88.9661 39.3136 87.4841 38.4086 85.9235 37.6529C84.4674 38.1045 83.0654 38.7115 81.7423 39.4631C82.8814 39.904 85.8897 41.1465 88.2659 42.9868Z" fill="#CCD6DD"/>
<path d="M182.674 97.7675C181.07 94.8419 182.417 91.0399 186.602 88.1788C200.376 78.7576 188.207 62.7249 185.986 56.4742C186.024 56.3969 184.882 54.0771 184.921 53.9997L182.61 53.8837C181.878 53.7806 163.175 52.2341 137.887 52.2212C112.587 52.2212 93.3447 53.7678 92.6001 53.8837C92.6001 53.8837 89.1985 56.3969 89.2241 56.4742C87.9276 61.7068 76.6957 74.4788 89.1599 88.1788C92.5745 91.9292 94.6797 94.8419 93.0879 97.7675C91.5347 100.616 86.9136 101.028 86.9136 101.028C86.9136 101.028 87.979 103.941 90.5463 105.513C92.9211 106.97 95.8478 107.305 97.8631 107.356C97.8631 107.356 105.758 118.324 126.399 118.324H149.376C170.017 118.324 177.912 107.356 177.912 107.356C179.927 107.305 182.854 106.97 185.229 105.513C187.796 103.941 188.861 101.028 188.861 101.028C188.861 101.028 184.227 100.616 182.674 97.7675Z" fill="#312D2D"/>
<path d="M137.542 118.311V106.054L174.502 103.12L177.865 107.275C177.865 107.275 169.909 118.324 149.108 118.324L137.542 118.311Z" fill="url(#paint13_radial_5156_1574)"/>
<path d="M138.204 118.311V106.054L101.245 103.12L97.8813 107.275C97.8813 107.275 105.837 118.324 126.639 118.324L138.204 118.311Z" fill="url(#paint14_radial_5156_1574)"/>
<path d="M201.001 149.644C201.001 134.313 182.595 124.223 159.501 120.69V116.558C158.728 116.558 148.154 118.713 148.154 118.713H128.112L116.597 116.341L116.61 121.175C93.9023 124.619 75.4062 133.79 75.4062 149.644V154.019H200.988V149.644H201.001Z" fill="url(#paint15_radial_5156_1574)"/>
<path d="M138.131 109.411H126.453V118.439C126.453 118.439 136.729 119.623 136.729 132.767H140.201C140.587 118.311 149.822 118.311 149.822 118.311V109.424L138.131 109.411Z" fill="#EDC391"/>
<path d="M137.732 133.821C137.681 133.358 137.333 129.68 137.269 129.076C136.575 122.825 133.025 119.005 128.768 118.041L116.228 114.851C115.418 114.851 114.749 115.7 114.749 116.742L116.678 132.034L134.131 136.625L137.732 133.821Z" fill="#F8F8F7"/>
<path d="M125.668 151.454C127.28 151.454 128.588 150.147 128.588 148.535C128.588 146.923 127.28 145.615 125.668 145.615C124.056 145.615 122.749 146.923 122.749 148.535C122.749 150.147 124.056 151.454 125.668 151.454Z" fill="#9E9E9E"/>
<path d="M159.686 151.454C161.299 151.454 162.606 150.147 162.606 148.535C162.606 146.923 161.299 145.615 159.686 145.615C158.074 145.615 156.767 146.923 156.767 148.535C156.767 150.147 158.074 151.454 159.686 151.454Z" fill="#9E9E9E"/>
<path d="M138.324 133.77C138.375 133.307 138.722 129.629 138.787 129.024C139.481 122.774 143.031 118.954 147.288 117.989L159.828 114.8C160.638 114.8 161.294 115.649 161.294 116.69L159.365 131.982L141.912 136.574L138.324 133.77Z" fill="#F8F8F7"/>
<path d="M140.523 129.063C137.706 128.96 132.549 128.008 127.044 129.037C112.936 131.7 104.473 142.49 106.351 151.827C106.531 152.702 106.827 153.525 107.187 154.323H114.479L116.035 141.551C117.836 139.596 140.677 134.169 140.677 134.169L140.523 129.063Z" fill="url(#paint16_radial_5156_1574)"/>
<path d="M138.787 129.024C138.722 129.577 138.542 131.584 138.478 132.214L138.594 133.423L117.977 139.326C115.881 140.098 114.479 142.091 114.479 144.329V154.322H115.804C115.804 154.322 117.334 144.985 117.566 143.737C117.797 142.49 118.788 142.271 119.366 142.053L141.835 135.326C141.835 119.095 147.301 117.989 147.301 117.989C143.031 118.954 139.481 122.774 138.787 129.024Z" fill="url(#paint17_linear_5156_1574)"/>
<path d="M172.882 59.7661H102.595C95.0199 59.7661 88.8208 66.3639 88.8208 74.4408C88.8208 82.5177 95.0199 89.1155 102.595 89.1155H172.882C180.457 89.1155 186.656 82.5048 186.656 74.4408C186.656 66.3768 180.457 59.7661 172.882 59.7661Z" fill="#EDC391"/>
<path d="M137.732 9.13159C115.353 9.13159 94.6211 33.0664 94.6211 67.5217C94.6211 101.784 115.984 118.722 137.732 118.722C159.48 118.722 180.843 101.784 180.843 67.5217C180.843 33.0664 160.123 9.13159 137.732 9.13159Z" fill="#F9DDBD"/>
<path d="M89.181 56.4224C89.7084 61.5541 93.2066 62.3386 93.2066 62.3386C92.615 72.6405 94.5313 78.981 95.5474 81.5533C95.7274 82.0034 96.3576 81.9649 96.4734 81.5019C97.7466 76.3959 102.081 58.6088 101.656 55.5093C101.656 55.5093 116.241 52.6155 130.17 42.3651C132.999 40.2815 136.073 38.5067 139.34 37.2077C156.818 30.2498 160.471 42.1207 160.471 42.1207C160.471 42.1207 172.586 39.7928 176.239 56.6153C177.615 62.9173 178.541 73.0134 179.326 80.0743C179.377 80.5758 180.059 80.6787 180.252 80.2157C181.473 77.412 183.917 71.8559 184.496 66.1841C184.702 64.1906 187.441 61.5541 185.936 55.7793C184.226 49.1815 177.319 17.7615 137.565 17.7615C97.8109 17.7615 88.3579 48.3584 89.181 56.4224Z" fill="#312D2D"/>
<path d="M117.707 77.1031C121.209 77.1031 124.048 74.1664 124.048 70.5439C124.048 66.9213 121.209 63.9846 117.707 63.9846C114.205 63.9846 111.367 66.9213 111.367 70.5439C111.367 74.1664 114.205 77.1031 117.707 77.1031Z" fill="#312D2D"/>
<path d="M157.77 77.1031C161.272 77.1031 164.11 74.1664 164.11 70.5439C164.11 66.9213 161.272 63.9846 157.77 63.9846C154.268 63.9846 151.429 66.9213 151.429 70.5439C151.429 74.1664 154.268 77.1031 157.77 77.1031Z" fill="#312D2D"/>
<path d="M148.747 92.9762C144.624 95.316 131.133 95.316 127.024 92.9762C124.659 91.6268 122.242 93.6942 123.225 95.7492C124.194 97.7672 131.547 102.459 137.917 102.459C144.288 102.459 151.551 97.7672 152.52 95.7492C153.502 93.6818 151.111 91.6268 148.747 92.9762Z" fill="#444444"/>
<path d="M127.122 58.9171C125.926 57.3352 123.173 55.0459 117.823 55.0459C112.473 55.0459 109.708 57.3481 108.524 58.9171C107.997 59.6116 108.126 60.4219 108.499 60.9106C108.833 61.3608 109.836 61.7852 110.942 61.4122C112.048 61.0392 114.209 59.9203 117.823 59.8946C121.437 59.9203 123.598 61.0392 124.704 61.4122C125.81 61.7852 126.813 61.3736 127.148 60.9106C127.508 60.4219 127.649 59.6116 127.122 58.9171Z" fill="#454140"/>
<path d="M166.953 58.9171C165.757 57.3352 163.005 55.0459 157.655 55.0459C152.304 55.0459 149.539 57.3481 148.356 58.9171C147.829 59.6116 147.957 60.4219 148.33 60.9106C148.665 61.3608 149.668 61.7852 150.774 61.4122C151.88 61.0392 154.041 59.9203 157.655 59.8946C161.269 59.9203 163.429 61.0392 164.535 61.4122C165.641 61.7852 166.645 61.3736 166.979 60.9106C167.352 60.4219 167.481 59.6116 166.953 58.9171Z" fill="#454140"/>
<path d="M142.467 82.7246C142.327 82.6765 142.199 82.6404 142.059 82.6284H133.022C132.881 82.6404 132.741 82.6765 132.613 82.7246C131.796 83.0371 131.35 83.8303 131.733 84.6836C132.115 85.5369 133.915 87.9166 137.54 87.9166C141.165 87.9166 142.965 85.5249 143.348 84.6836C143.744 83.8423 143.284 83.0371 142.467 82.7246Z" fill="#DBA689"/>
<path d="M190.27 13.4915C177.859 5.26025 158.786 0 137.732 0C116.678 0 97.3093 5.26025 84.8981 13.4915C77.0914 18.6617 73.7603 26.0826 75.638 33.0148C77.0528 38.1722 88.808 46.5706 88.808 46.5706C103.161 53.3099 104.524 41.8248 137.578 41.7862C170.631 41.8248 171.995 53.3099 186.348 46.5706C186.348 46.5706 198.116 38.1722 199.518 33.002C201.395 26.0826 198.077 18.6617 190.27 13.4915Z" fill="url(#paint18_radial_5156_1574)"/>
<path d="M89.181 56.4221L87.8306 45.8502C87.8306 45.8502 96.7434 31.3298 138.324 31.3298C179.904 31.3298 187.454 45.7602 187.454 45.7602L185.962 55.7662C154.208 48.744 120.845 49.3999 89.181 56.4221Z" fill="url(#paint19_radial_5156_1574)"/>
<path d="M109 8.38574C109 8.38574 112.28 20.9126 120.189 32.5906C105.592 32.1276 102.647 16.3854 109 8.38574Z" fill="url(#paint20_linear_5156_1574)"/>
<path d="M90.2227 14.8933C90.9172 21.5426 90.3513 28.3976 102.364 36.6674C86.0685 41.5804 79.3163 26.2498 90.2227 14.8933Z" fill="url(#paint21_linear_5156_1574)"/>
<path d="M166.76 8.38574C166.76 8.38574 163.48 20.9126 155.571 32.5906C170.168 32.1276 173.114 16.3854 166.76 8.38574Z" fill="url(#paint22_linear_5156_1574)"/>
<path d="M185.55 14.8933C184.856 21.5426 185.422 28.3976 173.409 36.6674C189.704 41.5804 196.457 26.2498 185.55 14.8933Z" fill="url(#paint23_linear_5156_1574)"/>
<path d="M137.887 4.39844C139.752 6.62343 140.716 8.84843 141.411 11.0734C142.092 13.2984 142.375 15.5234 142.388 17.7484C142.388 19.9734 142.105 22.1984 141.424 24.4234C140.729 26.6484 139.764 28.8734 137.887 31.0984C136.009 28.8734 135.044 26.6484 134.35 24.4234C133.668 22.1984 133.385 19.9734 133.385 17.7484C133.398 15.5234 133.681 13.2984 134.363 11.0734C135.044 8.84843 136.009 6.62343 137.887 4.39844Z" fill="url(#paint24_linear_5156_1574)"/>
<defs>
<radialGradient id="paint0_radial_5156_1574" cx="0" cy="0" r="1" gradientUnits="userSpaceOnUse" gradientTransform="translate(180.152 110.979) rotate(155.183) scale(6.59069 4.85228)">
<stop offset="0.663" stop-color="#454140"/>
<stop offset="1" stop-color="#454140" stop-opacity="0"/>
</radialGradient>
<radialGradient id="paint1_radial_5156_1574" cx="0" cy="0" r="1" gradientUnits="userSpaceOnUse" gradientTransform="translate(163.374 92.8242) rotate(-94.2414) scale(27.7228 22.9073)">
<stop offset="0.725" stop-color="#454140" stop-opacity="0"/>
<stop offset="1" stop-color="#454140"/>
</radialGradient>
<radialGradient id="paint2_radial_5156_1574" cx="0" cy="0" r="1" gradientUnits="userSpaceOnUse" gradientTransform="translate(125.751 92.544) rotate(-85.6954) scale(28.196 23.6428)">
<stop offset="0.725" stop-color="#454140" stop-opacity="0"/>
<stop offset="1" stop-color="#454140"/>
</radialGradient>
<linearGradient id="paint3_linear_5156_1574" x1="194.407" y1="86.9714" x2="190.332" y2="130.282" gradientUnits="userSpaceOnUse">
<stop offset="0.119" stop-color="#757575"/>
<stop offset="0.226" stop-color="#7A7A7A"/>
<stop offset="0.359" stop-color="#8A8A8A"/>
<stop offset="0.479" stop-color="#9E9E9E"/>
<stop offset="0.488" stop-color="#969696"/>
<stop offset="0.524" stop-color="#7B7B7B"/>
<stop offset="0.566" stop-color="#656565"/>
<stop offset="0.615" stop-color="#545454"/>
<stop offset="0.676" stop-color="#494949"/>
<stop offset="0.76" stop-color="#424242"/>
<stop offset="0.996" stop-color="#404040"/>
</linearGradient>
<linearGradient id="paint4_linear_5156_1574" x1="190.675" y1="117.84" x2="195.892" y2="89.669" gradientUnits="userSpaceOnUse">
<stop stop-color="#212121"/>
<stop offset="0.996" stop-color="#404040"/>
</linearGradient>
<linearGradient id="paint5_linear_5156_1574" x1="192.44" y1="99.4587" x2="192.979" y2="108.512" gradientUnits="userSpaceOnUse">
<stop stop-color="#FFCA28"/>
<stop offset="0.341" stop-color="#FFC825"/>
<stop offset="0.629" stop-color="#FFC21A"/>
<stop offset="0.898" stop-color="#FFB809"/>
<stop offset="1" stop-color="#FFB300"/>
</linearGradient>
<radialGradient id="paint6_radial_5156_1574" cx="0" cy="0" r="1" gradientUnits="userSpaceOnUse" gradientTransform="translate(175.281 145.173) rotate(-91.4153) scale(19.2039 20.3027)">
<stop offset="0.307" stop-color="#F9DDBD"/>
<stop offset="1" stop-color="#FFD29C"/>
</radialGradient>
<radialGradient id="paint7_radial_5156_1574" cx="0" cy="0" r="1" gradientUnits="userSpaceOnUse" gradientTransform="translate(197.972 140.651) rotate(-20.035) scale(14.0708 14.0708)">
<stop stop-color="#FFD29C"/>
<stop offset="1" stop-color="#F9DDBD"/>
</radialGradient>
<radialGradient id="paint8_radial_5156_1574" cx="0" cy="0" r="1" gradientUnits="userSpaceOnUse" gradientTransform="translate(187.359 140.168) rotate(-0.269288) scale(12.8507 12.8507)">
<stop stop-color="#FFD29C"/>
<stop offset="1" stop-color="#F9DDBD"/>
</radialGradient>
<radialGradient id="paint9_radial_5156_1574" cx="0" cy="0" r="1" gradientUnits="userSpaceOnUse" gradientTransform="translate(194.286 133.352) rotate(9.96603) scale(14.4594 14.0609)">
<stop stop-color="#FFD29C"/>
<stop offset="1" stop-color="#F9DDBD"/>
</radialGradient>
<radialGradient id="paint10_radial_5156_1574" cx="0" cy="0" r="1" gradientUnits="userSpaceOnUse" gradientTransform="translate(201.542 141.717) rotate(-3.193) scale(15.994 15.994)">
<stop stop-color="#FFD29C"/>
<stop offset="1" stop-color="#F9DDBD"/>
</radialGradient>
<radialGradient id="paint11_radial_5156_1574" cx="0" cy="0" r="1" gradientUnits="userSpaceOnUse" gradientTransform="translate(201.006 142.154) rotate(4.956) scale(15.2833 15.2833)">
<stop stop-color="#FFD29C"/>
<stop offset="1" stop-color="#F9DDBD"/>
</radialGradient>
<radialGradient id="paint12_radial_5156_1574" cx="0" cy="0" r="1" gradientUnits="userSpaceOnUse" gradientTransform="translate(199.928 140.767) rotate(-12.368) scale(15.289 15.289)">
<stop stop-color="#FFD29C"/>
<stop offset="1" stop-color="#F9DDBD"/>
</radialGradient>
<radialGradient id="paint13_radial_5156_1574" cx="0" cy="0" r="1" gradientUnits="userSpaceOnUse" gradientTransform="translate(156.426 100.602) scale(30.2957 14.9354)">
<stop offset="0.728" stop-color="#454140" stop-opacity="0"/>
<stop offset="1" stop-color="#454140"/>
</radialGradient>
<radialGradient id="paint14_radial_5156_1574" cx="0" cy="0" r="1" gradientUnits="userSpaceOnUse" gradientTransform="translate(119.322 100.602) rotate(180) scale(30.2957 14.9354)">
<stop offset="0.728" stop-color="#454140" stop-opacity="0"/>
<stop offset="1" stop-color="#454140"/>
</radialGradient>
<radialGradient id="paint15_radial_5156_1574" cx="0" cy="0" r="1" gradientUnits="userSpaceOnUse" gradientTransform="translate(138.843 156.367) scale(86.7483 50.375)">
<stop offset="0.559" stop-color="#F8F8F7"/>
<stop offset="1" stop-color="#C6C6C6"/>
</radialGradient>
<radialGradient id="paint16_radial_5156_1574" cx="0" cy="0" r="1" gradientUnits="userSpaceOnUse" gradientTransform="translate(131.464 148.019) rotate(-15.6164) scale(25.6573 19.3812)">
<stop offset="0.153" stop-color="#BDBDBD"/>
<stop offset="1" stop-color="#BDBDBD" stop-opacity="0"/>
</radialGradient>
<linearGradient id="paint17_linear_5156_1574" x1="130.886" y1="154.271" x2="130.886" y2="125.903" gradientUnits="userSpaceOnUse">
<stop offset="0.299" stop-color="#BDBDBD"/>
<stop offset="0.657" stop-color="#CDCDCD"/>
<stop offset="1" stop-color="#E0E0E0"/>
</linearGradient>
<radialGradient id="paint18_radial_5156_1574" cx="0" cy="0" r="1" gradientUnits="userSpaceOnUse" gradientTransform="translate(138.216 22.4806) scale(70.3639 29.6936)">
<stop offset="0.462" stop-color="#FAFAFA"/>
<stop offset="0.634" stop-color="#EAEAEA"/>
<stop offset="0.969" stop-color="#C1C1C1"/>
<stop offset="1" stop-color="#BDBDBD"/>
</radialGradient>
<radialGradient id="paint19_radial_5156_1574" cx="0" cy="0" r="1" gradientUnits="userSpaceOnUse" gradientTransform="translate(137.694 38.0809) rotate(0.372417) scale(52.2873 51.0481)">
<stop offset="0.303" stop-color="#F8F8F7"/>
<stop offset="0.504" stop-color="#E8E8E7"/>
<stop offset="0.895" stop-color="#BFBFBF"/>
<stop offset="1" stop-color="#B3B3B3"/>
</radialGradient>
<linearGradient id="paint20_linear_5156_1574" x1="106.015" y1="6.59803" x2="115.661" y2="34.2497" gradientUnits="userSpaceOnUse">
<stop stop-color="#757575" stop-opacity="0"/>
<stop offset="1" stop-color="#757575" stop-opacity="0.9"/>
</linearGradient>
<linearGradient id="paint21_linear_5156_1574" x1="82.3837" y1="17.6816" x2="101.033" y2="37.1343" gradientUnits="userSpaceOnUse">
<stop stop-color="#757575" stop-opacity="0"/>
<stop offset="1" stop-color="#757575" stop-opacity="0.9"/>
</linearGradient>
<linearGradient id="paint22_linear_5156_1574" x1="169.746" y1="6.59803" x2="160.101" y2="34.2497" gradientUnits="userSpaceOnUse">
<stop stop-color="#757575" stop-opacity="0"/>
<stop offset="1" stop-color="#757575" stop-opacity="0.9"/>
</linearGradient>
<linearGradient id="paint23_linear_5156_1574" x1="193.378" y1="17.6829" x2="174.73" y2="37.1356" gradientUnits="userSpaceOnUse">
<stop stop-color="#757575" stop-opacity="0"/>
<stop offset="1" stop-color="#757575" stop-opacity="0.9"/>
</linearGradient>
<linearGradient id="paint24_linear_5156_1574" x1="137.882" y1="4.39458" x2="137.882" y2="31.11" gradientUnits="userSpaceOnUse">
<stop stop-color="#757575" stop-opacity="0"/>
<stop offset="1" stop-color="#757575" stop-opacity="0.9"/>
</linearGradient>
</defs>
</svg>
