<svg width="80" height="80" viewBox="0 0 80 80" fill="none" xmlns="http://www.w3.org/2000/svg">
<path d="M59.9419 29.9716C63.8902 26.0232 66.2085 26.8082 62.2602 22.8549L57.0552 17.6532C53.1069 13.7049 52.2252 16.0249 48.2752 19.9716L11.2952 52.4899C9.39911 54.387 8.33398 56.9594 8.33398 59.6416C8.33398 62.3237 9.39911 64.8961 11.2952 66.7932L13.1352 68.7032C15.0323 70.5993 17.6047 71.6644 20.2869 71.6644C22.969 71.6644 25.5414 70.5993 27.4385 68.7032L59.9419 29.9716Z" fill="#8BC34A"/>
<path d="M48.7983 34.745C43.3127 40.25 37.8377 45.7656 32.3733 51.2916C24.2433 59.5183 21.2649 64.9733 19.9016 67.2C17.3816 67.4566 15.0783 67.5416 13.2733 66.6366C12.5499 64.4683 13.0833 61.985 13.6449 59.4583C16.9049 57.4233 21.8949 54.0833 28.4249 47.5083C33.8866 42.0083 39.6233 36.2283 44.1566 31.6566C43.2416 31.5066 42.3466 30.855 42.1066 29.8833C42.0529 29.624 42.0267 29.3598 42.0283 29.095L14.9699 55.2016C12.6933 57.48 5.38327 61.9233 12.3016 67.7633C18.5866 75.2833 22.9516 66.6433 25.2316 64.3683L50.7883 36.78C50.1083 36.1916 49.4883 35.245 49.5283 34.33C49.3633 34.53 49.1033 34.6633 48.7983 34.745Z" fill="#689F38"/>
<path d="M67.0414 16.3167C72.5398 17.0717 69.7881 21.1034 68.7898 21.3517C73.2848 23.8751 71.5398 27.3984 70.0398 26.6451C70.7914 27.6551 71.5398 28.1567 71.5398 31.1801C71.5398 31.9351 70.5364 33.1984 67.7898 31.9351C68.7898 32.9417 70.0398 35.7134 69.0398 37.4834C68.5381 38.2384 67.2881 38.2384 66.7864 37.7317C67.0398 39.2434 67.0398 43.7767 64.7881 44.5367C61.7864 46.0467 61.2848 43.5284 60.2898 42.0151C59.7881 46.3001 55.7914 44.0284 56.0381 41.7617C51.7898 44.5367 50.5364 41.0067 52.0414 39.2434C48.7898 42.2667 46.2898 40.2534 47.2881 37.7317C46.0414 39.2434 39.7898 38.9917 42.5381 33.7017C41.7898 34.4567 36.2881 34.4567 39.0381 30.6801C36.2881 31.6834 32.0381 28.9101 36.5398 26.1434C33.5381 26.1434 31.0348 23.8767 33.7864 22.1151C29.2864 20.5967 33.0381 18.5851 35.0364 17.5767C34.0414 17.0734 31.2898 16.0651 35.5364 14.5534C34.0431 13.0434 36.7864 12.2867 40.7831 12.7917C39.5381 11.2767 41.2864 7.4984 48.2881 11.5317C47.0381 8.2534 49.5381 7.4984 53.0381 9.26174C52.5364 7.75007 56.7848 8.2534 57.7848 10.2701C59.5398 8.00007 63.7881 9.01007 63.2898 12.2851C65.2898 11.0267 69.2864 13.5417 67.0414 16.3167Z" fill="#558B2F"/>
<path d="M56.3083 16.1183C56.095 14.3983 54.665 12.8783 52.835 13.0283C51.885 13.1066 50.845 15.0516 51.9983 15.545C51.2966 13.9466 48.5783 13.885 47.18 14.1C46.2333 14.2433 45.4383 14.8366 45.625 15.9166C45.8383 17.15 46.9833 17.2583 47.96 17.4833C46.335 16.3566 42.8716 17.2 41.6616 18.635C41.24 19.1316 40.53 20.2433 40.9833 20.905C41.4133 21.5316 42.7933 21.6533 43.4333 21.4366C41.7583 21.7166 39.79 23.4616 39.4216 25.17C39.2666 25.8933 39.3466 26.7866 40.1483 27.0016C40.89 27.21 42.5216 27.0316 42.8266 26.1516C42.16 26.995 41.8466 28.84 42.1033 29.885C42.5883 31.845 45.7616 32.6133 46.36 30.325C45.84 31.1583 45.56 33.035 46.02 33.9333C46.6516 35.1733 50.0833 35.255 49.725 33.5683C49.015 34.8416 50.19 36.445 51.185 37.0833C52.7716 38.11 56.4 38.925 56.4733 35.9433C56.4866 37.615 65.155 24.7716 63.8783 25.2183C65.0183 25.115 66.515 23.86 65.8666 22.54C65.1633 21.1016 62.3666 20.7733 61.3 21.7883C62.1066 21.2016 64.2966 19.2983 62.8866 18.2333C61.6966 17.33 59.4483 17.6416 58.6566 18.9066C59.52 18.12 60.71 17.1833 60.61 15.8316C60.555 15.0733 59.6683 14.48 58.985 14.2916C58.4466 14.145 57.5716 14.1733 57.08 14.5166C56.7233 14.7666 56.52 15.4033 56.305 15.6033" fill="#7CB342"/>
<path d="M54.4667 21.56C53.2067 22.2266 52.66 23.31 53.77 24.4016C52.4967 23.6283 47.7484 24.365 48.8867 26.8C49.2617 27.5983 50.8634 27.3816 51.4734 27.065C50.255 27.54 47.7384 29.0466 47.7934 30.7116C47.8684 32.985 51.465 33.66 52.1784 31.645C51.6384 33.3883 50.5117 35.575 52.165 37.135C54.145 39.0016 57.4784 37.6833 58.3084 35.4433C57.44 37.3183 59.4084 38.7733 61.14 37.8483C63.2167 36.7316 63.2067 34.4783 61.6117 32.8916C62.9367 33.335 64.7967 33.3116 65.6517 31.935C67.3084 29.265 64.255 28.6583 62.2017 28.6516C63.305 28.2416 65.6784 26.0383 64.835 24.5283C63.82 22.705 60.4267 23.735 59.0734 25.1533C59.6884 24.4233 60.6417 23.3266 60.0167 22.625C58.5934 21.0166 57.5284 23.26 57.5284 24.845C57.5284 24.8433 57.255 20.8 54.4667 21.56Z" fill="#33691E"/>
<path d="M13.4533 56.5617C13.0883 54.8017 13.0299 52.8334 13.3816 50.655L11.2949 52.4917C7.72325 56.0634 7.41492 61.6234 10.3033 65.5817C7.80159 61.75 11.0483 58.6584 13.4533 56.5617ZM23.7016 66.2084C21.5899 68.88 18.5066 72.5284 14.5049 69.825C18.4499 72.585 23.9149 72.2267 27.4366 68.705L29.9783 65.675C27.9579 66.3478 25.8065 66.5307 23.7016 66.2084Z" fill="#DCEDC8"/>
<path d="M12.205 67.8134C10.2517 65.8634 10.365 62.8034 12.205 60.7434C13.6134 59.1651 16.555 57.5234 16.555 57.5234C16.555 57.5234 15.2967 62.1334 16.59 63.4284C17.925 64.7634 22.3784 63.5384 22.335 63.4618C22.2917 63.3851 21.4084 65.8118 19.2734 67.8134C16.9717 69.9701 14.1567 69.7651 12.205 67.8134Z" fill="#DCEDC8"/>
</svg>
