<svg width="80" height="80" viewBox="0 0 80 80" fill="none" xmlns="http://www.w3.org/2000/svg">
<path d="M73.7416 6.25744C70.0113 2.52573 65.8147 -0.00124959 61.0856 4.63574e-07C56.7352 4.63574e-07 51.9378 2.13634 46.6376 7.43546C35.572 18.5001 18.3627 47.3177 25.5208 54.4783C26.6952 55.6502 28.4455 56.1677 30.6061 56.1677C41.6388 56.1677 63.3095 42.6177 72.5648 33.3635C83.6294 22.2978 80.9024 13.417 73.7416 6.25744ZM70.2066 31.0064C65.6998 35.5133 58.1877 41.0067 50.6 45.3426C42.2639 50.1034 34.9763 52.8354 30.6063 52.8354C29.3075 52.8354 28.3406 52.5815 27.8792 52.1201C27.0809 51.3218 26.9442 49.1539 27.513 46.3192C28.1844 42.9792 29.8104 38.6922 32.2199 33.924C34.4612 29.4879 37.2883 24.7966 40.3938 20.3582C43.3491 16.1369 46.4032 12.3844 48.9934 9.7929C53.2806 5.50679 57.3479 3.33279 61.0856 3.33279C64.462 3.33279 67.8313 5.06005 71.3858 8.61363C74.794 12.0219 76.5176 15.2519 76.6567 18.4892C76.7348 20.2958 76.3271 22.11 75.4115 24.035C74.3521 26.2676 72.6015 28.6127 70.2066 31.0064Z" fill="#E6E9ED"/>
<path d="M27.733 54.6248L25.3745 52.2664L71.386 6.2561L73.7418 8.61339L27.733 54.6248Z" fill="#E6E9ED"/>
<path d="M26.6636 51.6953L23.8901 49.8446C23.9317 49.7835 28.0039 43.6947 33.5165 36.191C40.9408 26.0907 47.304 18.3684 52.4334 13.2402C57.1819 8.49155 61.7618 5.58378 66.0466 4.59999C69.4619 3.81511 71.4665 4.58171 71.6837 4.67202L70.4093 7.75183C70.4093 7.75183 70.419 7.75668 70.441 7.76527C70.4263 7.75918 69.0178 7.26603 66.4469 7.93247C61.9889 9.0922 57.6457 12.7408 54.7894 15.5975C42.8269 27.5617 26.8224 51.4559 26.6636 51.6953Z" fill="#E6E9ED"/>
<path d="M30.1547 56.1093L28.3042 53.3359C28.5434 53.1772 52.4384 37.1748 64.4035 25.2104C74.2496 15.3641 72.2721 9.64635 72.2477 9.59135L75.3287 8.31567C75.419 8.53303 76.1855 10.5386 75.3994 13.9529C74.4155 18.2376 71.508 22.8178 66.7595 27.5677C61.6326 32.6959 53.9106 39.0596 43.8106 46.4827C36.3044 51.9979 30.2156 56.0703 30.1547 56.1093Z" fill="#E6E9ED"/>
<path d="M24.3444 48.5847C23.6925 49.2341 23.6925 50.2912 24.3444 50.9431C24.9938 51.5925 26.0508 51.5925 26.7003 50.9431C27.3522 50.2912 27.3522 49.2341 26.7003 48.5847C26.051 47.9353 24.9938 47.9353 24.3444 48.5847Z" fill="#E6E9ED"/>
<path d="M26.6999 50.9433C26.0505 51.5927 26.0505 52.6474 26.6999 53.2993C27.3518 53.9512 28.4064 53.9512 29.0582 53.2993C29.7076 52.6474 29.7076 51.5927 29.0582 50.9433C28.4064 50.2914 27.3518 50.2914 26.6999 50.9433Z" fill="#E6E9ED"/>
<path d="M29.0587 53.2992C28.4069 53.9511 28.4069 55.0057 29.0587 55.6551C29.7081 56.307 30.7653 56.307 31.4147 55.6551C32.0664 55.0057 32.0664 53.9511 31.4147 53.2992C30.7653 52.6473 29.7081 52.6473 29.0587 53.2992Z" fill="#E6E9ED"/>
<path d="M20.8091 49.7615L1.9519 68.6191C-0.650633 71.2217 -0.650633 75.4456 1.9519 78.0481C4.55677 80.6505 8.77557 80.6505 11.3804 78.0481L30.2352 59.1903L20.8091 49.7615ZM5.4871 74.5129C4.83771 73.8635 4.83771 72.8063 5.4871 72.1544C6.13898 71.505 7.19352 71.505 7.8454 72.1544C8.49479 72.8063 8.49479 73.8635 7.8454 74.5129C7.19352 75.1624 6.13898 75.1624 5.4871 74.5129Z" fill="#A0D468"/>
</svg>
