<svg width="121" height="122" viewBox="0 0 121 122" fill="none" xmlns="http://www.w3.org/2000/svg">
<path d="M73.1042 17.7917C64.2813 17.5376 66.55 10.1667 60.5 10.1667C54.45 10.1667 56.7188 17.5376 47.8958 17.7917C40.5854 18.0459 37.8125 30.5001 37.8125 30.5001L60.5 88.9584L83.1875 30.5001C83.1875 30.5001 80.4146 18.0459 73.1042 17.7917Z" fill="#689F38"/>
<path d="M50.4167 114.375C49.4083 108.529 53.1896 103.446 48.1479 100.396C45.6271 98.8708 42.6021 98.3625 40.3333 96.5833C36.5521 94.0416 37.5604 87.1791 36.5521 82.6041C36.3 81.8416 36.0479 80.825 35.5438 80.3166C34.5354 79.0458 29.9979 77.0125 28.4854 76.5041C25.4604 75.9958 23.4438 73.7083 22.6875 71.1666C21.9313 68.3708 22.9396 65.3208 22.6875 62.525C22.6875 58.9666 23.6958 57.95 21.175 55.4083C19.4104 53.8833 17.3938 52.8666 16.1333 50.8333C13.8646 47.275 15.3771 40.6666 19.1583 38.6333C21.175 37.6166 23.6958 37.3625 25.2083 32.7875C26.4688 28.7208 26.4688 27.45 27.7292 23.3833C28.7375 20.0791 32.0146 17.7916 35.2917 17.5375C38.5688 17.2833 41.8458 19.3166 42.8542 22.6208C44.3667 27.1958 43.6104 26.9416 45.375 30.2458C47.3917 34.0583 55.2063 35.075 55.4584 42.9541C55.4584 45.75 51.6771 49.8166 52.6854 52.1041C53.1896 53.1208 54.1979 53.8833 55.2063 54.9C57.7271 57.4416 58.9875 61.2541 58.4833 64.8125C58.2313 66.8458 57.2229 68.8791 56.9709 71.1666C56.7188 75.7416 60.2479 79.3 63.0208 83.1125C69.575 92.0083 65.5417 98.8708 65.5417 114.121C65.5417 114.375 50.4167 114.375 50.4167 114.375Z" fill="#8BC34A"/>
<path d="M65.5416 114.375C66.55 108.529 67.8104 103.446 72.8521 100.396C75.3729 98.8708 78.3979 98.3625 80.6666 96.5833C84.4479 94.0416 83.4396 87.1791 84.4479 82.6041C84.7 81.8416 84.9521 80.825 85.4562 80.3166C86.4646 79.0458 91.0021 77.0125 92.5146 76.5041C95.0354 75.7416 97.3041 73.7083 98.0604 71.1666C98.8166 68.3708 97.8083 65.3208 98.0604 62.525C98.0604 58.9666 97.0521 57.95 99.5729 55.4083C101.337 53.8833 103.354 52.8666 104.615 50.8333C106.883 47.275 105.371 40.6666 101.59 38.6333C99.5729 37.6166 97.0521 36.0916 95.5396 32.7875C93.775 28.975 94.2791 27.45 93.0187 23.3833C92.0104 20.0791 88.7333 17.7916 85.4562 17.5375C82.1791 17.2833 78.9021 19.3166 77.8937 22.6208C76.3812 27.1958 77.1375 26.9416 75.3729 30.2458C73.3562 34.0583 65.5416 35.075 65.2896 42.9541C65.2896 45.75 69.0708 49.8166 68.0625 52.1041C67.5583 53.1208 66.55 53.8833 65.5416 54.9C63.0208 57.4416 61.7604 61.2541 62.2646 64.8125C62.5166 66.8458 63.525 68.8791 63.7771 71.1666C64.0291 75.7416 60.5 79.3 57.7271 83.1125C51.1729 92.0083 50.1646 98.8708 50.1646 114.121C50.4166 114.375 65.5416 114.375 65.5416 114.375Z" fill="#8BC34A"/>
<path d="M73.1044 17.7917C66.0461 17.5375 66.0461 12.7084 63.2731 10.9292C65.5419 22.6209 72.8523 21.6042 72.3481 25.4167C72.0961 26.4334 72.0961 26.9417 71.3398 28.2125C71.0877 28.4667 69.8273 29.4834 69.0711 29.9917C66.0461 32.025 61.0044 35.5834 60.7523 43.2084C60.5002 35.5834 55.4586 32.2792 52.4336 29.9917C51.6773 29.4834 50.4169 28.7209 50.1648 28.2125C49.4086 26.9417 49.1565 26.6875 49.1565 25.4167C48.9044 21.35 55.4586 22.6209 58.2315 10.9292C54.9544 12.7084 54.9544 17.5375 47.8961 17.7917C45.3752 17.7917 43.6106 19.3167 42.0981 21.0959C42.3502 21.6042 42.6023 22.3667 42.8544 22.875C44.3669 27.45 43.6106 27.1959 45.3752 30.5C47.3919 34.3125 55.2065 35.3292 55.4586 43.2084C55.4586 46.0042 51.6773 50.0709 52.6856 52.3584C53.1898 53.375 54.1981 54.1375 55.2065 55.1542C57.7273 57.6959 58.9877 61.5084 58.4836 65.0667C58.2315 67.1 57.2231 69.1334 56.9711 71.4209C56.9711 72.9459 57.2231 74.2167 57.7273 75.4875C49.1565 84.3834 50.4169 102.683 50.669 103.954C51.1731 95.3125 53.1898 89.975 57.9794 83.3667C58.7356 82.35 59.744 81.3334 60.5002 80.0625C62.5169 77.5209 64.2815 74.725 64.0294 71.4209C64.0294 69.1334 63.0211 67.1 62.5169 65.0667C62.0127 61.5084 63.0211 57.6959 65.794 55.1542C66.5502 54.3917 67.8106 53.6292 68.3148 52.3584C69.3231 49.8167 65.5419 45.75 65.5419 43.2084C65.794 35.3292 73.6086 34.3125 75.6252 30.5C77.3898 27.1959 76.6336 27.1959 78.1461 22.875C78.3981 22.3667 78.6502 21.6042 78.9023 21.0959C77.3898 19.3167 75.6252 17.7917 73.1044 17.7917ZM62.2648 51.5959C61.5086 52.3584 61.0044 52.8667 60.5002 53.6292C59.9961 52.8667 59.2398 52.1042 58.7356 51.5959L57.9794 50.8334C58.2315 50.325 58.4836 50.0709 58.4836 49.5625C59.4919 47.7834 60.5002 45.75 60.5002 43.4625C60.5002 45.75 61.5086 47.7834 62.5169 49.5625C62.769 49.8167 63.0211 50.325 63.0211 50.8334L62.2648 51.5959Z" fill="#558B2F"/>
<path d="M50.6687 93.5332C50.4166 93.0249 50.1645 92.7707 49.9124 92.2624C48.9041 90.2291 47.6437 88.1957 46.3833 86.1624C45.1229 84.1291 43.8624 81.8416 42.602 79.5541C41.3416 77.2666 40.0812 74.9791 39.0729 72.6916C38.0645 70.4041 36.8041 68.1166 36.0479 65.8291C35.0395 63.5416 34.5354 61.2541 34.0312 59.2207C33.527 57.1874 33.2749 54.8999 33.0229 53.1207C32.7708 51.0874 32.7708 49.3082 32.7708 47.7832C32.5187 46.2582 33.0229 44.9874 33.0229 43.7166C33.2749 41.4291 33.2749 40.1582 33.2749 40.1582C33.2749 40.1582 33.2749 41.4291 33.527 43.7166C33.527 44.7332 33.527 46.2582 33.7791 47.5291C34.0312 49.0541 34.2833 50.8332 34.7874 52.6124C35.2916 54.3916 35.7958 56.4249 36.552 58.4582C37.3083 60.4916 38.0645 62.5249 39.3249 64.5582C40.3333 66.5916 41.5937 68.6249 42.8541 70.6582C44.1145 72.6916 45.627 74.7249 47.1395 76.7582C48.652 78.7916 50.1645 80.8249 51.677 82.6041C52.1812 83.1124 52.4333 83.6207 52.9374 84.1291C52.6854 85.1457 52.1812 86.4166 51.9291 87.4332V88.4499C51.677 88.9582 51.677 89.7207 51.677 90.2291C51.677 90.9916 51.4249 91.7541 51.4249 92.5166C50.9208 92.7707 50.9208 93.2791 50.6687 93.5332ZM63.0208 114.375C63.0208 114.375 63.0208 113.104 62.7687 110.817C62.5166 109.546 62.7687 108.783 63.0208 107.512C63.0208 106.496 63.2729 104.971 63.777 103.192C64.0291 102.429 64.2812 101.412 64.5333 100.65C64.7854 99.8874 65.0374 98.8707 65.5416 97.8541C66.2979 96.0749 67.3062 94.0416 68.3145 92.0082C69.3229 89.9749 70.5833 87.9416 71.8437 85.9082C73.1041 83.8749 74.3645 81.5874 75.6249 79.2999C76.8854 77.0124 78.1458 74.7249 79.1541 72.4374C80.1624 70.1499 81.4229 67.8624 82.1791 65.5749C83.1874 63.2874 83.6916 60.9999 84.1958 58.9666C84.6999 56.9332 84.952 54.6457 85.2041 52.8666C85.4562 50.8332 85.4562 49.3082 85.4562 47.5291C85.7083 46.0041 85.2041 44.7332 85.2041 43.4624C84.952 41.1749 84.952 39.9041 84.952 39.9041C84.952 39.9041 84.952 41.1749 84.6999 43.4624C84.6999 44.4791 84.6999 46.0041 84.4479 47.2749C84.1958 48.7999 83.9437 50.5791 83.4395 52.3582C82.9354 54.1374 82.4312 56.1707 81.6749 58.2041C80.9187 60.2374 80.1624 62.2707 78.902 64.3041C77.8937 66.3374 76.6333 68.3707 75.3729 70.4041C74.1124 72.4374 72.5999 74.4707 71.0874 76.5041C69.5749 78.5374 68.0624 80.5707 66.5499 82.3499C65.0374 84.3832 63.5249 86.1624 62.0124 88.1957C60.4999 90.2291 59.2395 92.2624 58.2312 94.2957L56.7187 97.3457C56.2145 98.3624 55.7104 99.3791 55.4583 100.396C54.702 102.429 53.9458 104.208 53.6937 105.987C53.1895 107.767 52.9374 109.546 52.9374 110.562V114.375H63.0208Z" fill="#DCEDC8"/>
</svg>
