<svg width="36" height="45" viewBox="0 0 36 45" fill="none" xmlns="http://www.w3.org/2000/svg">
<path d="M18.3047 29.543C17.4648 29.543 16.7617 28.8594 16.7617 28.0391V8.15625L16.8789 5.24609L15.7852 6.39844L12.7578 9.62109C12.4844 9.93359 12.0547 10.0898 11.6836 10.0898C10.8633 10.0898 10.2773 9.50391 10.2773 8.72266C10.2773 8.29297 10.4531 7.98047 10.7461 7.6875L17.1719 1.47656C17.582 1.08594 17.9141 0.96875 18.3047 0.96875C18.7148 0.96875 19.0469 1.08594 19.4375 1.47656L25.8828 7.6875C26.1758 7.98047 26.332 8.29297 26.332 8.72266C26.332 9.50391 25.7266 10.0898 24.9062 10.0898C24.5352 10.0898 24.125 9.93359 23.8516 9.62109L20.8438 6.39844L19.75 5.24609L19.8672 8.15625V28.0391C19.8672 28.8594 19.1445 29.543 18.3047 29.543ZM7.11328 44.8555C3.03125 44.8555 0.980469 42.8438 0.980469 38.8008V19.5234C0.980469 15.4805 3.03125 13.4688 7.11328 13.4688H13.0898V16.6133H7.15234C5.19922 16.6133 4.125 17.6484 4.125 19.6797V38.6445C4.125 40.6758 5.19922 41.7109 7.15234 41.7109H29.457C31.3906 41.7109 32.5039 40.6758 32.5039 38.6445V19.6797C32.5039 17.6484 31.3906 16.6133 29.457 16.6133H23.5195V13.4688H29.5156C33.5977 13.4688 35.6484 15.5 35.6484 19.5234V38.8008C35.6484 42.8242 33.5977 44.8555 29.5156 44.8555H7.11328Z" fill="black"/>
</svg>
