<svg width="106" height="106" viewBox="0 0 106 106" fill="none" xmlns="http://www.w3.org/2000/svg">
<path d="M44.1667 13.25L13.25 92.75L92.75 61.8333L44.1667 13.25Z" fill="#FFD54F"/>
<path d="M33.1274 70.6667C31.6774 70.6665 30.2415 70.9518 28.9017 71.5064C27.562 72.061 26.3446 72.8741 25.3191 73.8992C24.2936 74.9243 23.48 76.1414 22.9248 77.4809C22.3697 78.8204 22.0838 80.2562 22.0835 81.7062C22.0835 84.2392 22.9712 86.5469 24.4089 88.4107L44.0719 80.7632C43.586 75.1165 38.9 70.6667 33.1274 70.6667Z" fill="#FF3D00"/>
<path d="M35.3354 40.8542C35.3354 43.4898 36.3824 46.0175 38.2461 47.8811C40.1097 49.7448 42.6374 50.7917 45.2729 50.7917C47.9085 50.7917 50.4362 49.7448 52.2998 47.8811C54.1635 46.0175 55.2104 43.4898 55.2104 40.8542C55.2104 38.2187 54.1635 35.691 52.2998 33.8274C50.4362 31.9637 47.9085 30.9167 45.2729 30.9167C42.6374 30.9167 40.1097 31.9637 38.2461 33.8274C36.3824 35.691 35.3354 38.2187 35.3354 40.8542Z" fill="#FF3D00"/>
<path d="M61.8335 44.1667C58.1787 44.1667 55.2085 47.137 55.2085 50.7962C55.2085 54.4487 58.1787 57.4168 61.8335 57.4168C65.4883 57.4168 68.4585 54.4487 68.4585 50.7962C68.4579 49.0389 67.7599 47.3537 66.5177 46.1107C65.2755 44.8677 63.5908 44.1685 61.8335 44.1667ZM61.8335 54.1043C61.3914 54.1158 60.9516 54.0388 60.5398 53.8776C60.128 53.7165 59.7526 53.4745 59.4358 53.166C59.119 52.8575 58.8672 52.4886 58.6952 52.0813C58.5232 51.6739 58.4345 51.2362 58.4344 50.794C58.4342 50.3518 58.5226 49.914 58.6943 49.5065C58.8661 49.099 59.1176 48.73 59.4342 48.4213C59.7508 48.1126 60.126 47.8704 60.5377 47.709C60.9494 47.5475 61.3892 47.4702 61.8313 47.4815C62.6947 47.5035 63.5154 47.8619 64.1184 48.4802C64.7215 49.0986 65.0591 49.9281 65.0594 50.7918C65.0597 51.6555 64.7226 52.4852 64.12 53.104C63.5174 53.7227 62.6969 54.0817 61.8335 54.1043ZM35.3335 55.2084C31.6787 55.2084 28.7085 58.1786 28.7085 61.8378C28.7085 65.4904 31.6787 68.4584 35.3335 68.4584C38.9883 68.4584 41.9585 65.4904 41.9585 61.8378C41.9579 60.0805 41.2599 58.3953 40.0177 57.1523C38.7755 55.9093 37.0908 55.2102 35.3335 55.2084ZM35.3335 65.1459C34.8914 65.1575 34.4516 65.0804 34.0398 64.9193C33.628 64.7581 33.2526 64.5162 32.9358 64.2077C32.619 63.8991 32.3672 63.5303 32.1952 63.1229C32.0232 62.7155 31.9345 62.2779 31.9344 61.8356C31.9342 61.3934 32.0226 60.9557 32.1943 60.5482C32.3661 60.1407 32.6176 59.7717 32.9342 59.463C33.2508 59.1543 33.626 58.912 34.0377 58.7506C34.4494 58.5892 34.8892 58.5119 35.3313 58.5231C36.1947 58.5451 37.0154 58.9035 37.6184 59.5219C38.2215 60.1403 38.5591 60.9697 38.5594 61.8334C38.5597 62.6972 38.2226 63.5268 37.62 64.1456C37.0174 64.7644 36.1969 65.1233 35.3335 65.1459Z" fill="#3E2723"/>
<path d="M65.9672 71.8195C65.5557 70.7228 64.7255 69.8345 63.659 69.35C62.5926 68.8654 61.3774 68.8243 60.2807 69.2357C57.9973 70.0926 46.5007 76.5144 47.3553 78.7978C47.4304 79.001 47.6314 79.1512 47.8809 79.2814L66.0666 72.2082C66.0334 72.0801 66.0158 71.9476 65.9672 71.8195Z" fill="#8D6E63"/>
<path d="M55.6257 75.6972C54.5524 72.3405 54.9477 69.3085 54.9477 69.3085C55.0206 69.2135 55.0228 69.1009 55.0139 68.9861C55.139 68.558 55.1266 68.1016 54.9786 67.6809C54.8497 67.3389 54.6378 67.0342 54.3621 66.7941C54.0864 66.5541 53.7554 66.3863 53.3988 66.3057C53.0422 66.2252 52.6712 66.2344 52.3191 66.3326C51.9669 66.4308 51.6447 66.6148 51.3812 66.8683C49.4438 68.0933 47.9865 69.9474 47.2539 72.1195C46.5213 74.2915 46.558 76.6494 47.3577 78.7977C47.4327 79.0009 47.5454 79.1775 47.6337 79.3741L55.8156 76.1941C55.7559 76.0284 55.6831 75.8716 55.6257 75.6972Z" fill="#8D6E63"/>
<path d="M57.4165 63.1474C57.4165 63.1474 56.2328 51.2842 44.1665 55.5441C45.4672 67.8865 57.4165 63.1474 57.4165 63.1474ZM74.1888 55.2084C74.1888 55.2084 62.3234 56.3899 66.5855 68.4584C78.9279 67.1555 74.1888 55.2084 74.1888 55.2084Z" fill="#689F38"/>
<path d="M92.4365 60.0401C90.3894 55.2281 85.6415 41.1787 75.2424 30.7819C65.126 20.6589 51.7435 15.0939 45.8031 13.4818C43.9503 12.9827 43.5396 12.8811 42.813 14.7251C42.2212 16.2179 40.5385 21.3214 39.7081 23.7108C39.5883 24.0481 39.4989 24.3955 39.4409 24.7487C48.9547 28.426 57.5933 34.0541 64.801 41.2709C72.0087 48.4877 77.6258 57.1334 81.291 66.6518C81.3462 66.6386 81.3948 66.6496 81.4545 66.6297C82.9892 66.1417 89.1196 64.0018 90.7471 63.4586C92.3747 62.9065 93.2602 61.9724 92.4365 60.0401Z" fill="#FF9800"/>
</svg>
