<svg width="37" height="22" viewBox="0 0 37 22" fill="none" xmlns="http://www.w3.org/2000/svg">
<path d="M8.33398 21.4805C6.81055 21.4805 5.48242 21.2103 4.34961 20.6699C3.2168 20.1296 2.33789 19.3743 1.71289 18.4043C1.08789 17.4277 0.775391 16.2852 0.775391 14.9766C0.775391 14.2865 0.830729 13.6777 0.941406 13.1504C1.05859 12.6165 1.19857 12.1348 1.36133 11.7051C1.5306 11.2754 1.69987 10.8652 1.86914 10.4746C2.03841 10.084 2.17839 9.6901 2.28906 9.29297C2.39974 8.89583 2.45508 8.45964 2.45508 7.98438C2.45508 7.76302 2.44206 7.52539 2.41602 7.27148C2.39648 7.01107 2.38672 6.81901 2.38672 6.69531C2.38672 6.52604 2.43229 6.38932 2.52344 6.28516C2.62109 6.17448 2.7513 6.11914 2.91406 6.11914C3.22656 6.11914 3.55859 6.2168 3.91016 6.41211C4.26172 6.60742 4.58398 6.88086 4.87695 7.23242C5.17643 7.58398 5.4043 7.99089 5.56055 8.45312L5.13086 8.55078C5.30013 8.28385 5.41406 8.02995 5.47266 7.78906C5.53776 7.54818 5.57031 7.30078 5.57031 7.04688C5.57031 6.42839 5.45312 5.83268 5.21875 5.25977C4.99089 4.68034 4.69792 4.1237 4.33984 3.58984C3.98177 3.05599 3.60742 2.55794 3.2168 2.0957C3.11914 1.97852 3.04753 1.86784 3.00195 1.76367C2.95638 1.65951 2.93359 1.55534 2.93359 1.45117C2.93359 1.19076 3.04427 0.992188 3.26562 0.855469C3.49349 0.71875 3.80599 0.650391 4.20312 0.650391C5.06901 0.650391 5.97721 0.754557 6.92773 0.962891C7.88477 1.16471 8.83203 1.48047 9.76953 1.91016C10.707 2.33984 11.5924 2.88346 12.4258 3.54102C13.2656 4.19857 14.0078 4.97982 14.6523 5.88477C15.3034 6.78971 15.8145 7.82487 16.1855 8.99023C16.5566 10.1491 16.7422 11.4479 16.7422 12.8867C16.7422 14.1758 16.5436 15.3477 16.1465 16.4023C15.7493 17.457 15.1764 18.362 14.4277 19.1172C13.6855 19.8724 12.8001 20.4551 11.7715 20.8652C10.7428 21.2754 9.59701 21.4805 8.33398 21.4805ZM8.40234 20.4062C9.83464 20.4062 11.0911 20.0872 12.1719 19.4492C13.2591 18.8177 14.1022 17.9355 14.7012 16.8027C15.3066 15.6699 15.6094 14.3548 15.6094 12.8574C15.6094 11.5618 15.4206 10.3477 15.043 9.21484C14.6654 8.08203 14.125 7.05664 13.4219 6.13867C12.7253 5.2207 11.8887 4.43294 10.9121 3.77539C9.93555 3.11133 8.84505 2.60026 7.64062 2.24219C6.44271 1.88411 5.15365 1.70182 3.77344 1.69531L3.96875 1.44141C4.52214 2.02083 4.98763 2.61654 5.36523 3.22852C5.74935 3.84049 6.04232 4.47201 6.24414 5.12305C6.44596 5.77409 6.54688 6.44466 6.54688 7.13477C6.54688 7.45378 6.51107 7.7793 6.43945 8.11133C6.36784 8.44336 6.27344 8.7526 6.15625 9.03906C6.04557 9.32552 5.91536 9.55664 5.76562 9.73242C5.6224 9.9082 5.47266 9.99609 5.31641 9.99609C5.24479 9.99609 5.1862 9.97656 5.14062 9.9375C5.10156 9.89193 5.07227 9.83008 5.05273 9.75195C4.93555 9.32227 4.7793 8.94792 4.58398 8.62891C4.39518 8.3099 4.18034 8.03971 3.93945 7.81836C3.70508 7.59049 3.46094 7.41797 3.20703 7.30078L3.40234 6.97852C3.44792 7.16081 3.48372 7.34635 3.50977 7.53516C3.53581 7.71745 3.54883 7.89974 3.54883 8.08203C3.54883 8.63542 3.49349 9.12695 3.38281 9.55664C3.27214 9.97982 3.13216 10.3835 2.96289 10.7676C2.79362 11.1452 2.62109 11.5358 2.44531 11.9395C2.27604 12.3366 2.13281 12.7793 2.01562 13.2676C1.90495 13.7559 1.84961 14.3255 1.84961 14.9766C1.84961 16.0573 2.12305 17.0046 2.66992 17.8184C3.22331 18.6322 3.98828 19.2669 4.96484 19.7227C5.94792 20.1784 7.09375 20.4062 8.40234 20.4062ZM8.50977 18.7363C7.63737 18.7363 6.93424 18.4954 6.40039 18.0137C5.86654 17.5254 5.59961 16.8874 5.59961 16.0996C5.59961 15.6829 5.6582 15.3281 5.77539 15.0352C5.89909 14.7357 6.04232 14.4655 6.20508 14.2246C6.36784 13.9837 6.51758 13.7526 6.6543 13.5312C6.79753 13.3034 6.88867 13.056 6.92773 12.7891C6.93424 12.7435 6.95052 12.7174 6.97656 12.7109C7.0026 12.6979 7.0319 12.7044 7.06445 12.7305C7.28581 12.9258 7.47135 13.1439 7.62109 13.3848C7.77734 13.6191 7.91732 13.8698 8.04102 14.1367C8.29492 13.7982 8.47396 13.3034 8.57812 12.6523C8.68229 12.0013 8.68555 11.2819 8.58789 10.4941C8.58138 10.4486 8.58789 10.416 8.60742 10.3965C8.63346 10.377 8.66927 10.377 8.71484 10.3965C9.39844 10.722 9.97135 11.1484 10.4336 11.6758C10.8958 12.1966 11.2441 12.7663 11.4785 13.3848C11.7129 14.0033 11.8301 14.6185 11.8301 15.2305C11.8301 15.849 11.7096 16.4251 11.4688 16.959C11.2279 17.4928 10.86 17.9225 10.3652 18.248C9.87695 18.5736 9.25846 18.7363 8.50977 18.7363ZM27.8066 21.4805C26.2832 21.4805 24.9551 21.2103 23.8223 20.6699C22.6895 20.1296 21.8105 19.3743 21.1855 18.4043C20.5605 17.4277 20.248 16.2852 20.248 14.9766C20.248 14.2865 20.3034 13.6777 20.4141 13.1504C20.5312 12.6165 20.6712 12.1348 20.834 11.7051C21.0033 11.2754 21.1725 10.8652 21.3418 10.4746C21.5111 10.084 21.651 9.6901 21.7617 9.29297C21.8724 8.89583 21.9277 8.45964 21.9277 7.98438C21.9277 7.76302 21.9147 7.52539 21.8887 7.27148C21.8691 7.01107 21.8594 6.81901 21.8594 6.69531C21.8594 6.52604 21.9049 6.38932 21.9961 6.28516C22.0938 6.17448 22.224 6.11914 22.3867 6.11914C22.6992 6.11914 23.0312 6.2168 23.3828 6.41211C23.7344 6.60742 24.0566 6.88086 24.3496 7.23242C24.6491 7.58398 24.877 7.99089 25.0332 8.45312L24.6035 8.55078C24.7728 8.28385 24.8867 8.02995 24.9453 7.78906C25.0104 7.54818 25.043 7.30078 25.043 7.04688C25.043 6.42839 24.9258 5.83268 24.6914 5.25977C24.4635 4.68034 24.1706 4.1237 23.8125 3.58984C23.4544 3.05599 23.0801 2.55794 22.6895 2.0957C22.5918 1.97852 22.5202 1.86784 22.4746 1.76367C22.429 1.65951 22.4062 1.55534 22.4062 1.45117C22.4062 1.19076 22.5169 0.992188 22.7383 0.855469C22.9661 0.71875 23.2786 0.650391 23.6758 0.650391C24.5417 0.650391 25.4499 0.754557 26.4004 0.962891C27.3574 1.16471 28.3047 1.48047 29.2422 1.91016C30.1797 2.33984 31.0651 2.88346 31.8984 3.54102C32.7383 4.19857 33.4805 4.97982 34.125 5.88477C34.776 6.78971 35.2871 7.82487 35.6582 8.99023C36.0293 10.1491 36.2148 11.4479 36.2148 12.8867C36.2148 14.1758 36.0163 15.3477 35.6191 16.4023C35.222 17.457 34.6491 18.362 33.9004 19.1172C33.1582 19.8724 32.2728 20.4551 31.2441 20.8652C30.2155 21.2754 29.0697 21.4805 27.8066 21.4805ZM27.875 20.4062C29.3073 20.4062 30.5638 20.0872 31.6445 19.4492C32.7318 18.8177 33.5749 17.9355 34.1738 16.8027C34.7793 15.6699 35.082 14.3548 35.082 12.8574C35.082 11.5618 34.8932 10.3477 34.5156 9.21484C34.138 8.08203 33.5977 7.05664 32.8945 6.13867C32.1979 5.2207 31.3613 4.43294 30.3848 3.77539C29.4082 3.11133 28.3177 2.60026 27.1133 2.24219C25.9154 1.88411 24.6263 1.70182 23.2461 1.69531L23.4414 1.44141C23.9948 2.02083 24.4603 2.61654 24.8379 3.22852C25.222 3.84049 25.515 4.47201 25.7168 5.12305C25.9186 5.77409 26.0195 6.44466 26.0195 7.13477C26.0195 7.45378 25.9837 7.7793 25.9121 8.11133C25.8405 8.44336 25.7461 8.7526 25.6289 9.03906C25.5182 9.32552 25.388 9.55664 25.2383 9.73242C25.0951 9.9082 24.9453 9.99609 24.7891 9.99609C24.7174 9.99609 24.6589 9.97656 24.6133 9.9375C24.5742 9.89193 24.5449 9.83008 24.5254 9.75195C24.4082 9.32227 24.252 8.94792 24.0566 8.62891C23.8678 8.3099 23.653 8.03971 23.4121 7.81836C23.1777 7.59049 22.9336 7.41797 22.6797 7.30078L22.875 6.97852C22.9206 7.16081 22.9564 7.34635 22.9824 7.53516C23.0085 7.71745 23.0215 7.89974 23.0215 8.08203C23.0215 8.63542 22.9661 9.12695 22.8555 9.55664C22.7448 9.97982 22.6048 10.3835 22.4355 10.7676C22.2663 11.1452 22.0938 11.5358 21.918 11.9395C21.7487 12.3366 21.6055 12.7793 21.4883 13.2676C21.3776 13.7559 21.3223 14.3255 21.3223 14.9766C21.3223 16.0573 21.5957 17.0046 22.1426 17.8184C22.696 18.6322 23.4609 19.2669 24.4375 19.7227C25.4206 20.1784 26.5664 20.4062 27.875 20.4062ZM27.9824 18.7363C27.11 18.7363 26.4069 18.4954 25.873 18.0137C25.3392 17.5254 25.0723 16.8874 25.0723 16.0996C25.0723 15.6829 25.1309 15.3281 25.248 15.0352C25.3717 14.7357 25.515 14.4655 25.6777 14.2246C25.8405 13.9837 25.9902 13.7526 26.127 13.5312C26.2702 13.3034 26.3613 13.056 26.4004 12.7891C26.4069 12.7435 26.4232 12.7174 26.4492 12.7109C26.4753 12.6979 26.5046 12.7044 26.5371 12.7305C26.7585 12.9258 26.944 13.1439 27.0938 13.3848C27.25 13.6191 27.39 13.8698 27.5137 14.1367C27.7676 13.7982 27.9466 13.3034 28.0508 12.6523C28.1549 12.0013 28.1582 11.2819 28.0605 10.4941C28.054 10.4486 28.0605 10.416 28.0801 10.3965C28.1061 10.377 28.1419 10.377 28.1875 10.3965C28.8711 10.722 29.444 11.1484 29.9062 11.6758C30.3685 12.1966 30.7168 12.7663 30.9512 13.3848C31.1855 14.0033 31.3027 14.6185 31.3027 15.2305C31.3027 15.849 31.1823 16.4251 30.9414 16.959C30.7005 17.4928 30.3327 17.9225 29.8379 18.248C29.3496 18.5736 28.7311 18.7363 27.9824 18.7363Z" fill="black"/>
</svg>
