<svg width="101" height="110" viewBox="0 0 101 110" fill="none" xmlns="http://www.w3.org/2000/svg">
<path d="M62.5803 50.0658C58.851 48.4638 55.5611 48.5006 53.3966 47.5708C51.2322 46.641 48.5352 44.0323 45.2647 42.6273C33.384 37.5236 22.0905 42.8584 17.3649 53.8588C12.6394 64.8591 16.8512 78.9278 26.3791 83.0208L25.509 82.6471C34.1668 86.3663 32.6278 95.9171 32.6278 95.9171C32.6278 95.9171 38.4957 88.2259 48.3417 92.402L47.4738 92.0292C55.8113 95.6644 68.8393 89.0017 73.5648 78.0013C78.2904 67.001 74.9628 55.3979 62.5803 50.0658Z" fill="#D81B60"/>
<path d="M45.2173 47.5009C44.4396 49.3112 44.416 51.3575 45.1516 53.1898C45.8873 55.0221 47.3219 56.4903 49.1399 57.2713C50.9579 58.0522 53.0104 58.0821 54.8458 57.3543C56.6812 56.6265 58.1492 55.2006 58.9269 53.3903C59.5472 51.9463 59.6315 50.4252 59.3319 48.9919C56.9371 48.3895 54.8427 48.1919 53.3211 47.5382C51.8363 46.9003 50.0844 45.4815 48.0864 44.1942C46.8137 44.9784 45.8128 46.1321 45.2173 47.5009Z" fill="#AD1457"/>
<path d="M32.2147 54.8919L38.8899 57.7594ZM55.0978 67.2751L63.7556 70.9943ZM26.3214 65.1251L40.5721 71.247ZM40.5223 81.4374L49.8554 85.4468Z" fill="#AD1457"/>
<path d="M95.9745 32.1621C95.4803 30.9312 96.1596 31.7311 96.656 31.1784C97.4583 30.5045 95.8181 29.542 94.9545 29.171L94.5216 28.985C92.2333 27.7467 95.0158 28.4315 95.2623 27.2609C95.5088 26.0903 92.8188 25.19 92.1695 24.9111C90.7752 24.5699 89.0749 24.3501 87.7149 24.5318C88.2413 24.5 89.2601 23.919 89.0145 23.303C88.7668 22.686 86.7575 22.5887 86.106 22.3088C84.6221 22.182 83.4464 21.9347 81.8721 22.0244C80.8212 22.0835 79.8015 22.6666 78.6567 22.9382C78.841 22.5093 79.2448 22.1722 79.4309 21.739C77.668 20.4711 72.6622 23.1713 72.0432 25.2031C72.4126 24.3431 73.0617 22.8323 71.6082 23.2317C70.808 23.9066 61.6579 27.8926 55.6398 41.9016L52.7947 48.5247C52.653 48.8544 52.5658 49.159 52.5007 49.4477L51.0694 52.7797C52.1494 53.2436 53.4252 52.8164 54.0291 51.8581C54.0554 51.8567 54.0028 51.8596 54.0291 51.8581C55.7703 49.0166 57.9003 46.189 60.7729 43.083C62.9327 40.4366 65.7149 37.5471 69.4558 38.3882C70.4151 38.5424 71.5276 39.5335 72.7638 39.0434C72.6387 38.7318 72.7926 35.9922 72.6675 35.6806C73.6562 36.3632 73.9986 38.5501 75.2069 39.3244C76.8449 40.286 77.5222 39.3004 78.2972 38.099C78.4836 39.4556 79.6284 40.9685 80.618 41.649C81.8232 42.4245 83.3683 41.8118 83.059 40.1446C83.9873 41.5646 87.6371 46.1986 89.1194 42.7481C89.9518 40.8105 89.4238 37.2649 87.9688 35.8713C89.2696 36.4302 90.8451 38.1282 92.4519 38.5657C93.7527 39.1245 94.9867 38.6334 95.9751 37.5262C97.2443 35.7712 96.5003 33.9223 95.9745 32.1621Z" fill="#4CAF50"/>
<path d="M55.7272 41.9368C61.7452 27.9277 58.3394 18.5479 58.2759 17.502C57.564 16.175 56.9159 17.6836 56.5465 18.5436C57.5953 16.699 56.1087 11.2072 53.9734 10.8005C53.7882 11.2315 53.8216 11.7565 53.6365 12.1875C53.0484 11.169 52.7685 10.0301 52.0857 9.22624C51.0648 8.02179 50.0752 7.34136 48.9648 6.3512C48.3133 6.07132 46.8595 4.6809 46.2414 4.92599C45.6255 5.172 45.9045 6.31304 46.2448 6.71453C45.4404 5.60305 44.1104 4.52113 42.9031 3.74464C42.2537 3.46569 39.749 2.1344 39.0696 3.11903C38.3903 4.10367 40.8024 5.65049 38.3289 4.84322L37.8961 4.65726C37.0324 4.28627 35.2052 3.75917 35.2687 4.80507C35.2095 5.54555 36.2574 5.48766 35.0244 5.9766C33.3848 6.80915 31.5315 7.54225 31.1302 9.67008C31.0076 11.1492 31.503 12.3832 32.8017 12.9411C34.2242 13.8075 36.5435 13.7801 37.8422 14.338C35.8298 14.2419 32.8946 16.2999 32.0622 18.2374C30.5799 21.688 36.4537 21.1451 38.1227 20.8409C36.7026 21.7652 37.3219 23.3077 38.7119 23.647C39.8868 23.8964 41.7722 23.6852 42.8845 22.8865C42.5466 24.2757 42.298 25.4454 44.1231 25.9715C45.5165 26.3148 47.3385 25.0577 48.5142 25.3049C48.2021 25.4287 46.321 27.4263 46.0088 27.5501C46.5052 28.7819 47.989 28.9088 48.7613 29.4984C51.9467 31.6326 51.7649 35.6368 51.3336 39.0282C51.0473 43.4546 50.4792 47.063 49.8275 49.696C49.7059 49.979 49.6415 50.2833 49.638 50.5915C49.6344 50.8997 49.6918 51.2058 49.8068 51.4923C49.9218 51.7788 50.0922 52.04 50.3083 52.2611C50.5243 52.4822 50.7819 52.6589 51.0661 52.781L52.9178 48.4705L55.7272 41.9368Z" fill="#388E3C"/>
</svg>
