<svg width="77" height="53" viewBox="0 0 77 53" fill="none" xmlns="http://www.w3.org/2000/svg">
<path d="M70.3055 19.9484C70.3055 19.805 70.1603 19.6616 70.1603 19.5183C71.0317 18.3712 71.1769 16.794 70.596 15.5035C69.8698 13.7829 68.2723 12.7792 66.5295 12.9226C67.1105 11.3454 66.82 9.48141 65.3677 8.19096C64.0606 7.04389 62.1726 6.75712 60.7203 7.33065C60.7203 5.75343 59.7037 4.17622 58.1061 3.4593C56.5086 2.74238 54.7658 3.02915 53.604 4.03283C53.1683 2.599 51.8612 1.30854 50.2637 1.02178C48.6662 0.73501 47.0686 1.30854 46.052 2.45561C45.3258 1.16516 44.0188 0.161476 42.4212 0.0180925C40.8237 -0.125291 39.3714 0.735011 38.5 1.88208C37.6286 0.591627 36.1763 -0.125291 34.5788 0.0180925C32.9812 0.161476 31.5289 1.02178 30.948 2.31223C29.9314 1.16516 28.3338 0.591627 26.7363 0.878394C25.1388 1.16516 23.8317 2.45561 23.396 3.88945C22.2342 2.88576 20.4914 2.599 18.8939 3.31591C17.2963 4.03283 16.2797 5.46667 16.2797 7.18727C14.6822 6.47035 12.9394 6.75712 11.6323 7.90419C10.3252 9.05126 9.88955 10.9152 10.4705 12.4925C8.7277 12.4925 7.13016 13.4961 6.40401 15.0734C5.82308 16.3638 5.96832 17.941 6.69447 19.0881C6.69447 19.3749 6.54924 19.5183 6.54924 19.805C6.40401 20.3786 6.40401 20.9521 6.54924 21.5256C5.67785 23.1028 5.82308 24.9668 7.13016 26.2573C8.43724 27.8345 10.6157 28.1213 12.3585 27.261C12.5037 28.9816 13.6655 30.4154 15.4083 30.9889C17.0059 31.4191 18.6034 31.1323 19.7652 29.9853C20.3462 31.4191 21.508 32.4228 23.1055 32.7095C24.7031 32.9963 26.1554 32.4228 27.172 31.2757C27.7529 32.5662 29.06 33.5698 30.6575 33.7132H31.0932C32.5455 33.7132 33.8526 32.9963 34.724 31.8492C34.8692 32.136 35.1597 32.4228 35.4502 32.7095C36.3215 33.5698 37.3382 34 38.5 34H38.7905C39.9523 34 41.1142 33.5698 41.8403 32.7095C42.1308 32.4228 42.276 32.136 42.4212 31.8492C43.2926 32.9963 44.7449 33.8566 46.3425 33.7132C47.94 33.5698 49.2471 32.5662 49.828 31.2757C50.8446 32.4228 52.2969 32.9963 53.8945 32.7095C55.492 32.4228 56.7991 31.4191 57.2348 29.9853C58.3966 30.9889 59.9941 31.4191 61.5917 30.9889C63.3345 30.4154 64.4963 28.9816 64.6415 27.4044C66.3843 28.2647 68.5628 27.9779 69.8698 26.5441C71.1769 25.1102 71.3221 23.1028 70.4508 21.5256C70.4508 21.2389 70.4508 20.6653 70.3055 19.9484Z" fill="#D50000"/>
<g filter="url(#filter0_d_5554_13507)">
<path d="M55.75 24.4118C48.5625 30 38.5 25.8824 38.5 25.8824C38.5 25.8824 28.2938 30 21.25 24.4118C11.1875 29.8529 4 20 4 20C4 20 8.16875 34.4118 14.0625 40.5882C14.0625 40.5882 25.5625 45 38.5 45C51.4375 45 62.9375 40.5882 62.9375 40.5882C68.8312 34.4118 73 20 73 20C73 20 65.9562 30 55.75 24.4118Z" fill="#FFC107"/>
</g>
<path d="M38.5 26.4286L41.4286 27.8571L38.5 45L35.5714 27.8571L38.5 26.4286ZM18 25L23.8571 43.5714V26.4286L20.9286 25H18ZM56.0714 25L53.1429 26.4286V43.5714L59 25H56.0714Z" fill="#FFB300"/>
<path d="M72.1032 19.0863C71.3858 18.8109 70.5248 19.2239 70.2379 19.9124C70.2379 19.9124 69.09 22.8039 65.7897 24.0431C63.2069 25.007 60.0502 24.7316 56.3195 23.217L55.6021 22.9416L54.8846 23.3547C47.7102 28.1739 39.2444 24.7316 38.9575 24.5939L38.527 24.3185L37.9531 24.5939C37.8096 24.5939 29.3438 28.1739 22.0259 23.3547L21.3085 22.9416L20.7345 23.217C17.0038 24.7316 13.8471 25.007 11.2643 24.0431C8.10755 22.8039 6.81616 19.9124 6.81616 19.9124C6.52919 19.2239 5.66826 18.8109 4.95082 19.0863C4.23338 19.3616 3.80291 20.1878 4.08989 20.8762C4.08989 21.0139 5.81175 24.8693 10.1164 26.5216C13.2731 27.7608 16.8603 27.6231 21.0215 25.9708C23.8912 28.1739 27.1915 29 30.0612 29C33.7919 29 37.0921 27.8985 38.527 27.3477C39.8184 27.8985 43.1186 29 46.9928 29C50.0061 29 53.3063 28.3115 56.0325 25.9708C60.1937 27.4854 63.7809 27.7608 66.9376 26.5216C71.2423 24.7316 72.8206 21.0139 72.9641 20.8762C73.1076 20.1878 72.8206 19.3616 72.1032 19.0863Z" fill="#FF8F00"/>
<path d="M32.9091 9.25C32.9091 11.35 31.3091 13 29.2727 13C27.2364 13 25.6364 11.35 25.6364 9.25C25.6364 7.15 27.2364 5.5 29.2727 5.5C31.3091 5.5 32.9091 7.3 32.9091 9.25ZM44.5455 4C42.9455 4 41.6364 5.35 41.6364 7C41.6364 8.65 42.9455 10 44.5455 10C46.1455 10 47.4545 8.65 47.4545 7C47.4545 5.35 46.1455 4 44.5455 4ZM57.6364 10C55.1636 10 53.2727 11.95 53.2727 14.5C53.2727 17.05 55.1636 19 57.6364 19C60.1091 19 62 17.05 62 14.5C62 12.1 60.1091 10 57.6364 10ZM38.7273 13C36.2545 13 34.3636 14.95 34.3636 17.5C34.3636 20.05 36.2545 22 38.7273 22C41.2 22 43.0909 20.05 43.0909 17.5C43.0909 15.1 41.2 13 38.7273 13ZM17.6364 13C15.6 13 14 14.65 14 16.75C14 18.85 15.6 20.5 17.6364 20.5C19.6727 20.5 21.2727 18.85 21.2727 16.75C21.2727 14.8 19.6727 13 17.6364 13Z" fill="#FF1744"/>
<path d="M25.2727 13.9615C25.2727 16.0077 23.6727 17.6154 21.6364 17.6154C19.6 17.6154 18 16.0077 18 13.9615C18 11.9154 19.6 10.3077 21.6364 10.3077C23.6727 10.3077 25.2727 12.0615 25.2727 13.9615ZM26.7273 19.0769C26.7273 20.6846 28.0364 22 29.6364 22C31.2364 22 32.5455 20.6846 32.5455 19.0769C32.5455 17.4692 31.2364 16.1538 29.6364 16.1538C28.0364 16.1538 26.7273 17.4692 26.7273 19.0769ZM48.5455 11.7692C46.0727 11.7692 44.1818 13.6692 44.1818 16.1538C44.1818 18.6385 46.0727 20.5385 48.5455 20.5385C51.0182 20.5385 52.9091 18.6385 52.9091 16.1538C52.9091 13.8154 51.0182 11.7692 48.5455 11.7692ZM63.0909 19.0769C64.6909 19.0769 66 17.7615 66 16.1538C66 14.5462 64.6909 13.2308 63.0909 13.2308C61.4909 13.2308 60.1818 14.5462 60.1818 16.1538C60.1818 17.9077 61.4909 19.0769 63.0909 19.0769ZM39.0909 3C37.0545 3 35.4545 4.60769 35.4545 6.65385C35.4545 8.7 37.0545 10.3077 39.0909 10.3077C41.1273 10.3077 42.7273 8.7 42.7273 6.65385C42.7273 4.60769 41.1273 3 39.0909 3Z" fill="#B71C1C"/>
<defs>
<filter id="filter0_d_5554_13507" x="0" y="20" width="77" height="33" filterUnits="userSpaceOnUse" color-interpolation-filters="sRGB">
<feFlood flood-opacity="0" result="BackgroundImageFix"/>
<feColorMatrix in="SourceAlpha" type="matrix" values="0 0 0 0 0 0 0 0 0 0 0 0 0 0 0 0 0 0 127 0" result="hardAlpha"/>
<feOffset dy="4"/>
<feGaussianBlur stdDeviation="2"/>
<feComposite in2="hardAlpha" operator="out"/>
<feColorMatrix type="matrix" values="0 0 0 0 0 0 0 0 0 0 0 0 0 0 0 0 0 0 0.25 0"/>
<feBlend mode="normal" in2="BackgroundImageFix" result="effect1_dropShadow_5554_13507"/>
<feBlend mode="normal" in="SourceGraphic" in2="effect1_dropShadow_5554_13507" result="shape"/>
</filter>
</defs>
</svg>
