<svg width="55" height="50" viewBox="0 0 55 50" fill="none" xmlns="http://www.w3.org/2000/svg">
<path d="M28.5 8.5H19.3211C17.995 8.5 16.7232 9.02678 15.7855 9.96448L13.7145 12.0355C12.7768 12.9732 11.505 13.5 10.1789 13.5H6C3.23857 13.5 1 15.7386 1 18.5V43.5C1 46.2615 3.23857 48.5 6 48.5H41C43.7615 48.5 46 46.2615 46 43.5V26M38.5 8.5H53.5M46 16V1M23.5 41C29.0228 41 33.5 36.5228 33.5 31C33.5 25.4772 29.0228 21 23.5 21C17.9771 21 13.5 25.4772 13.5 31C13.5 36.5228 17.9771 41 23.5 41Z" stroke="#2D281E" stroke-opacity="0.7" stroke-width="2" stroke-linecap="round" stroke-linejoin="round"/>
</svg>
