<svg width="94" height="94" viewBox="0 0 94 94" fill="none" xmlns="http://www.w3.org/2000/svg">
<g clip-path="url(#clip0_5554_13262)">
<path d="M53.384 0H40.6162C38.5686 0 36.9087 1.66005 36.9087 3.70749C36.9087 5.75493 38.5687 7.41498 40.6162 7.41498H43.2926V14.2821C43.2926 16.3297 44.9527 17.9896 47.0001 17.9896C49.0477 17.9896 50.7076 16.3296 50.7076 14.2821V7.41517H53.384C55.4317 7.41517 57.0915 5.75511 57.0915 3.70768C57.0915 1.66024 55.4318 0 53.384 0Z" fill="#51B3DA"/>
<path d="M53.3839 0H47V17.9898C49.0476 17.9898 50.7075 16.3297 50.7075 14.2823V7.41517H53.3839C55.4315 7.41517 57.0914 5.75511 57.0914 3.70768C57.0914 1.66024 55.4317 0 53.3839 0Z" fill="#39A3DB"/>
<path d="M46.9998 94.0001C23.9994 94.0001 5.28711 75.2878 5.28711 52.2874C5.28711 29.287 23.9997 10.5747 46.9998 10.5747C69.9999 10.5747 88.7125 29.287 88.7125 52.2874C88.7125 75.2878 70.0002 94.0001 46.9998 94.0001Z" fill="#FFEDBE"/>
<path d="M47 10.5747V93.9997C70.0004 93.9997 88.7127 75.2875 88.7127 52.287C88.7127 29.2866 70.0004 10.5747 47 10.5747Z" fill="#FFE49C"/>
<path d="M63.4881 35.7989C62.0405 34.3512 59.6929 34.3512 58.2449 35.7989L47.5638 46.4803C44.1106 46.1491 41.1655 48.8627 41.1655 52.2871C41.1655 55.5095 43.7777 58.1215 47 58.1215C50.424 58.1215 53.1377 55.1777 52.8067 51.7232L63.4878 41.0417C64.9363 39.5941 64.9363 37.2465 63.4881 35.7989Z" fill="#FF5E5B"/>
<path d="M47 28.0647C44.9524 28.0647 43.2925 26.4047 43.2925 24.3572V16.7539C43.2925 14.7063 44.9525 13.0464 47 13.0464C49.0474 13.0464 50.7075 14.7064 50.7075 16.7539V24.357C50.7075 26.4047 49.0476 28.0647 47 28.0647Z" fill="#FFBE00"/>
<path d="M47 91.5283C44.9524 91.5283 43.2925 89.8682 43.2925 87.8208V80.2173C43.2925 78.1696 44.9525 76.5098 47 76.5098C49.0474 76.5098 50.7075 78.1698 50.7075 80.2173V87.8208C50.7075 89.8682 49.0476 91.5283 47 91.5283Z" fill="#FFBE00"/>
<path d="M19.0699 55.9948H11.4668C9.41915 55.9948 7.75928 54.3348 7.75928 52.2873C7.75928 50.2399 9.41933 48.5798 11.4668 48.5798H19.0703C21.1179 48.5798 22.7778 50.2399 22.7778 52.2873C22.7778 54.3348 21.1177 55.9948 19.0699 55.9948Z" fill="#FFBE00"/>
<path d="M63.4882 35.7989C62.0406 34.3512 59.6929 34.3512 58.2449 35.7989L47.5638 46.4803C47.3782 46.4625 47.1904 46.4526 47 46.4526V58.1218C50.424 58.1218 53.1377 55.1781 52.8067 51.7236L63.4878 41.0421C64.9364 39.5941 64.9364 37.2465 63.4882 35.7989Z" fill="#FF423D"/>
<path d="M47 13.0464V28.0647C49.0476 28.0647 50.7075 26.4047 50.7075 24.3572V16.7539C50.7075 14.7064 49.0476 13.0464 47 13.0464Z" fill="#FFAF00"/>
<path d="M47 76.5098V91.5283C49.0476 91.5283 50.7075 89.8682 50.7075 87.8208V80.2173C50.7075 78.1698 49.0476 76.5098 47 76.5098Z" fill="#FFAF00"/>
<path d="M82.5335 55.9948H74.9301C72.8825 55.9948 71.2227 54.3348 71.2227 52.2873C71.2227 50.2399 72.8827 48.5798 74.9301 48.5798H82.5335C84.5811 48.5798 86.241 50.2399 86.241 52.2873C86.241 54.3348 84.5809 55.9948 82.5335 55.9948Z" fill="#FFAF00"/>
</g>
<defs>
<clipPath id="clip0_5554_13262">
<rect width="94" height="94" fill="white"/>
</clipPath>
</defs>
</svg>
